<?xml version="1.0" encoding="utf-8"?>
<!-- Generator: Adobe Illustrator 19.2.1, SVG Export Plug-In . SVG Version: 6.00 Build 0)  -->
<svg version="1.1" id="Layer_1" xmlns="http://www.w3.org/2000/svg" xmlns:xlink="http://www.w3.org/1999/xlink" x="0px" y="0px"
	 viewBox="0 0 584.1 251.3" style="enable-background:new 0 0 584.1 251.3;" xml:space="preserve">
<style type="text/css">
	.st0{fill:#FFFFFF;stroke:#000000;stroke-miterlimit:10;}
	.st1{clip-path:url(#SVGID_2_);}
	.st2{clip-path:url(#SVGID_4_);fill:none;stroke:#000000;stroke-width:9;}
	.st3{clip-path:url(#SVGID_6_);fill:none;stroke:#000000;stroke-width:9;}
</style>
<rect x="17" y="21" class="st0" width="549" height="211"/>
<g>
	<g>
		<defs>
			<rect id="SVGID_1_" width="584.1" height="249.1"/>
		</defs>
		<clipPath id="SVGID_2_">
			<use xlink:href="#SVGID_1_"  style="overflow:visible;"/>
		</clipPath>
		<path class="st1" d="M561,213.5c0,6.5-5.2,11.9-11.6,11.9H485c1.3-3.7,2.1-7.7,2.1-11.9v-46V82.3c0-19.6-15.6-35.6-34.7-35.6
			H131.7c-19.1,0-34.7,16-34.7,35.6v85.3v46c0,4.2,0.8,8.1,2.1,11.9H34.7c-6.4,0-11.6-5.3-11.6-11.9v-178c0-6.5,5.2-11.9,11.6-11.9
			h107h302.6h105.1c6.4,0,11.6,5.3,11.6,11.9L561,213.5L561,213.5z M131.7,225.4c-6.4,0-11.6-5.3-11.6-11.9v-46
			c0-6.6,5.2-11.9,11.6-11.9h320.8c6.4,0,11.6,5.3,11.6,11.9v46c0,6.5-5.2,11.9-11.6,11.9H131.7z M464,134.1
			c-3.6-1.3-7.5-2.2-11.6-2.2H131.7c-4.1,0-7.9,0.9-11.6,2.2V82.3c0-6.5,5.2-11.9,11.6-11.9h320.8c6.4,0,11.6,5.3,11.6,11.9v51.8
			H464z M421.1,0H164.8 M141.7,0h-107C15.6,0,0,16,0,35.6v177.9c0,19.6,15.6,35.6,34.7,35.6h97h320.8h97c19.1,0,34.7-16,34.7-35.6
			V35.6C584.1,16,568.5,0,549.4,0H444.3"/>
	</g>
	<g>
		<defs>
			<rect id="SVGID_3_" width="584.1" height="249.1"/>
		</defs>
		<clipPath id="SVGID_4_">
			<use xlink:href="#SVGID_3_"  style="overflow:visible;"/>
		</clipPath>
		<circle class="st2" cx="523" cy="69.6" r="16"/>
	</g>
	<g>
		<defs>
			<rect id="SVGID_5_" width="584.1" height="249.1"/>
		</defs>
		<clipPath id="SVGID_6_">
			<use xlink:href="#SVGID_5_"  style="overflow:visible;"/>
		</clipPath>
		<circle class="st3" cx="523" cy="124.6" r="16"/>
	</g>
</g>
</svg>
