<?xml version="1.0" encoding="utf-8"?>
<!-- Generator: Adobe Illustrator 19.2.1, SVG Export Plug-In . SVG Version: 6.00 Build 0)  -->
<svg version="1.1" id="Layer_1" xmlns="http://www.w3.org/2000/svg" xmlns:xlink="http://www.w3.org/1999/xlink" x="0px" y="0px"
	 viewBox="0 0 1124.1 591.8" style="enable-background:new 0 0 1124.1 591.8;" xml:space="preserve">
<style type="text/css">
	.st0{fill:#FFFFFF;}
	.st1{clip-path:url(#SVGID_2_);fill:#FFFFFF;}
	.st2{clip-path:url(#SVGID_4_);fill:#FFFFFF;}
	.st3{fill:#A0ECFF;}
	.st4{clip-path:url(#SVGID_6_);fill:none;stroke:#1D1D1B;stroke-width:6;stroke-linecap:round;stroke-miterlimit:3;}
	.st5{clip-path:url(#SVGID_8_);fill:none;stroke:#1D1D1B;stroke-width:8;stroke-linecap:round;stroke-miterlimit:3;}
	.st6{clip-path:url(#SVGID_10_);}
	.st7{fill:none;stroke:#000000;stroke-width:5;stroke-miterlimit:10;}
	.st8{fill:none;stroke:#1D1D1B;stroke-width:9;stroke-linecap:round;stroke-miterlimit:3;}
</style>
<polygon class="st0" points="182,103.5 182,490.6 381.1,520 1105.4,514.2 1113.1,325.4 1044.7,91.9 "/>
<g>
	<g>
		<defs>
			<rect id="SVGID_1_" y="16.7" width="1124.1" height="575.1"/>
		</defs>
		<clipPath id="SVGID_2_">
			<use xlink:href="#SVGID_1_"  style="overflow:visible;"/>
		</clipPath>
		<path class="st1" d="M964.6,561.5c37.4,0,67.8-30.9,67.8-68.9s-30.3-68.9-67.8-68.9c-37.4,0-67.8,30.9-67.8,68.9
			S927.2,561.5,964.6,561.5"/>
	</g>
	<g>
		<defs>
			<rect id="SVGID_3_" y="16.7" width="1124.1" height="575.1"/>
		</defs>
		<clipPath id="SVGID_4_">
			<use xlink:href="#SVGID_3_"  style="overflow:visible;"/>
		</clipPath>
		<path class="st2" d="M444.9,558.6c34,0,61.6-28.1,61.6-62.7s-27.6-62.7-61.6-62.7s-61.6,28.1-61.6,62.7S410.8,558.6,444.9,558.6"
			/>
	</g>
</g>
<rect x="619.1" y="352.4" class="st3" width="125.1" height="148.5"/>
<rect x="173.5" y="122.1" class="st3" width="59.7" height="184"/>
<polyline class="st3" points="448.4,103.7 476.9,60.5 907.2,60.5 937.6,103.7 "/>
<rect x="189.8" y="103.7" class="st3" width="874.8" height="63.3"/>
<g>
	<polygon class="st0" points="416,82.1 470,38 922,38 978.7,98 	"/>
	<circle class="st0" cx="26.3" cy="354.5" r="20.5"/>
	<circle class="st0" cx="103.5" cy="403.5" r="32.5"/>
	<g>
		<defs>
			<rect id="SVGID_5_" y="16.7" width="1124.1" height="575.1"/>
		</defs>
		<clipPath id="SVGID_6_">
			<use xlink:href="#SVGID_5_"  style="overflow:visible;"/>
		</clipPath>
		<ellipse class="st4" cx="25.6" cy="352.4" rx="22.6" ry="23"/>
	</g>
	<g>
		<defs>
			<rect id="SVGID_7_" y="16.7" width="1124.1" height="575.1"/>
		</defs>
		<clipPath id="SVGID_8_">
			<use xlink:href="#SVGID_7_"  style="overflow:visible;"/>
		</clipPath>
		<ellipse class="st5" cx="102.3" cy="404.2" rx="35.9" ry="35.4"/>
	</g>
	<g>
		<defs>
			<rect id="SVGID_9_" y="16.7" width="1124.1" height="575.1"/>
		</defs>
		<clipPath id="SVGID_10_">
			<use xlink:href="#SVGID_9_"  style="overflow:visible;"/>
		</clipPath>
		<path class="st6" d="M1093.7,493.9c0,0.6-0.5,1-1,1h-33.5c0-0.3,0-0.7,0-1c0-54-43.2-97.9-96.3-97.9s-96.3,43.9-96.3,97.9
			c0,0.3,0,0.7,0,1h-99.3V344.5h326.3L1093.7,493.9L1093.7,493.9z M963,560.9c-36.3,0-65.9-30-65.9-67c0-36.9,29.5-67,65.9-67
			c36.3,0,65.9,30.1,65.9,67C1028.8,530.8,999.3,560.9,963,560.9 M737,313.5h-50.7v-134H737V313.5z M737,494.9H605.3V344.5H737
			V494.9z M574.9,313.5h-148v-134h147.9v134H574.9z M396.5,179.6v134H249.6c-0.6,0-1-0.5-1-1v-132c0-0.6,0.5-1,1-1H396.5
			L396.5,179.6z M655.9,313.5h-50.7v-134h50.7V313.5z M915.4,313.5h-148v-134h147.9L915.4,313.5L915.4,313.5z M574.9,494.9h-34.5
			c0-0.3,0-0.7,0-1c0-54-43.2-97.9-96.3-97.9c-52.5,0-95.3,43-96.2,96.2l-149.8-25.4c-8.3-1.4-14.4-8.7-14.4-17.3V114.6
			c0-0.6,0.5-1,1-1h794.4l0,0l0,0h54.8c8.1,0,15.2,5.8,16.8,13.8l4.5,21.2H249.6c-17.3,0-31.4,14.3-31.4,31.9v131.9
			c0,17.6,14.1,31.9,31.4,31.9h325.3V494.9z M444.2,560.9c-36.3,0-65.9-30-65.9-67c0-36.9,29.5-67,65.9-67c36.3,0,65.9,30.1,65.9,67
			C510,530.8,480.5,560.9,444.2,560.9 M441.7,61.3c6.3-8.5,16.3-13.6,26.8-13.6h437.8c10.5,0,20.5,5.1,26.8,13.6l15.8,21.4h-523
			L441.7,61.3z M773.4,16.7H504 M1061.8,179.5l28.2,134.1H945.8v-134h114.5C1060.8,179.6,1061.3,179.5,1061.8,179.5 M460.4,17.3
			c-17,2.2-32.7,11.4-43,25.4l-29.5,40H184.7c-17.3,0-31.4,14.3-31.4,31.9v334.8c0,23.8,16.7,43.9,39.8,47.8l159.5,27
			c12.6,39.1,48.8,67.5,91.5,67.5c42.1,0,77.9-27.6,91-66H872c13.1,38.3,48.9,66,91,66s77.9-27.6,91-66h38.7
			c17.3,0,31.4-14.3,31.4-31.9V329c0-1.1-0.1-2.2-0.3-3.2L1080.6,121c-4.7-22.2-24.3-38.3-46.6-38.3h-47.3l-29.5-40
			c-12-16.3-31.1-26-51.1-26h-88.7"/>
	</g>
</g>
<path class="st7" d="M1104.2,323.6H228.8V161.4h839.1L1104.2,323.6z M754.9,517H585.5V161.4h169.4V517z"/>
<line class="st8" x1="1011.9" y1="195.9" x2="1049.6" y2="233.6"/>
<line class="st8" x1="971.1" y1="201.6" x2="1049.6" y2="274.6"/>
</svg>
