<?xml version="1.0" encoding="utf-8"?>
<!-- Generator: Adobe Illustrator 19.2.1, SVG Export Plug-In . SVG Version: 6.00 Build 0)  -->
<svg version="1.1" id="Layer_1" xmlns="http://www.w3.org/2000/svg" xmlns:xlink="http://www.w3.org/1999/xlink" x="0px" y="0px"
	 viewBox="0 0 337 381" style="enable-background:new 0 0 337 381;" xml:space="preserve">
<style type="text/css">
	.st0{fill:#FFFFFF;}
	.st1{clip-path:url(#SVGID_2_);fill:none;stroke:#000000;stroke-width:22;}
	.st2{fill:#F9F100;}
	.st3{fill:none;stroke:#1D1D1B;stroke-width:8.724;stroke-miterlimit:10;}
	.st4{clip-path:url(#SVGID_4_);fill:none;stroke:#000000;stroke-width:22;}
	.st5{clip-path:url(#SVGID_4_);fill:#FAF200;}
	.st6{clip-path:url(#SVGID_4_);fill:none;stroke:#1D1D1B;stroke-width:8.724;stroke-miterlimit:10;}
</style>
<g>
	<rect x="11" y="11" class="st0" width="315" height="356.2"/>
	<g>
		<g>
			<defs>
				<rect id="SVGID_1_" width="337" height="378.2"/>
			</defs>
			<clipPath id="SVGID_2_">
				<use xlink:href="#SVGID_1_"  style="overflow:visible;"/>
			</clipPath>
			<rect x="11" y="11" class="st1" width="315" height="356.2"/>
		</g>
	</g>
	<rect x="76.9" y="84.7" class="st2" width="46.2" height="46.2"/>
	<rect x="76.9" y="146" class="st2" width="46.2" height="46.2"/>
	<rect x="76.9" y="207.4" class="st2" width="46.2" height="46.2"/>
	<rect x="76.9" y="268.8" class="st2" width="46.2" height="46.2"/>
	<rect x="142.1" y="84.7" class="st2" width="46.2" height="46.2"/>
	<rect x="142.1" y="146" class="st2" width="46.2" height="46.2"/>
	<rect x="142.1" y="207.4" class="st2" width="46.2" height="46.2"/>
	<rect x="142.1" y="268.8" class="st2" width="46.2" height="46.2"/>
	<rect x="207.4" y="84.7" class="st2" width="46.2" height="46.2"/>
	<rect x="207.4" y="146" class="st2" width="46.2" height="46.2"/>
	<rect x="207.4" y="207.4" class="st2" width="46.2" height="46.2"/>
	<rect x="67" y="76.3" class="st3" width="46.2" height="46.2"/>
	<rect x="67" y="137.7" class="st3" width="46.2" height="46.2"/>
	<rect x="67" y="199" class="st3" width="46.2" height="46.2"/>
	<rect x="67" y="260.4" class="st3" width="46.2" height="46.2"/>
	<rect x="132.3" y="76.3" class="st3" width="46.2" height="46.2"/>
	<rect x="132.3" y="137.7" class="st3" width="46.2" height="46.2"/>
	<rect x="132.3" y="199" class="st3" width="46.2" height="46.2"/>
	<rect x="132.3" y="260.4" class="st3" width="46.2" height="46.2"/>
	<rect x="197.5" y="76.3" class="st3" width="46.2" height="46.2"/>
	<rect x="197.5" y="137.7" class="st3" width="46.2" height="46.2"/>
	<rect x="197.5" y="199" class="st3" width="46.2" height="46.2"/>
</g>
<rect x="10" y="11.8" class="st0" width="315" height="356.2"/>
<g>
	<defs>
		<rect id="SVGID_3_" x="-1" y="0.8" width="337" height="378.2"/>
	</defs>
	<clipPath id="SVGID_4_">
		<use xlink:href="#SVGID_3_"  style="overflow:visible;"/>
	</clipPath>
	<rect x="10" y="11.8" class="st4" width="315" height="356.2"/>
	<path class="st5" d="M83.9,85.5c0,0-8,0-8,8v30.2c0,0,0,8,8,8h30.2c0,0,8,0,8-8V93.5c0,0,0-8-8-8H83.9z"/>
	<path class="st5" d="M83.9,146.9c0,0-8,0-8,8v30.2c0,0,0,8,8,8h30.2c0,0,8,0,8-8v-30.2c0,0,0-8-8-8H83.9z"/>
	<path class="st5" d="M83.9,208.2c0,0-8,0-8,8v30.2c0,0,0,8,8,8h30.2c0,0,8,0,8-8v-30.2c0,0,0-8-8-8H83.9z"/>
	<path class="st5" d="M83.9,269.6c0,0-8,0-8,8v30.2c0,0,0,8,8,8h30.2c0,0,8,0,8-8v-30.2c0,0,0-8-8-8H83.9z"/>
	<path class="st5" d="M149.1,85.5c0,0-8,0-8,8v30.2c0,0,0,8,8,8h30.2c0,0,8,0,8-8V93.5c0,0,0-8-8-8H149.1z"/>
	<path class="st5" d="M149.1,146.9c0,0-8,0-8,8v30.2c0,0,0,8,8,8h30.2c0,0,8,0,8-8v-30.2c0,0,0-8-8-8H149.1z"/>
	<path class="st5" d="M149.1,208.2c0,0-8,0-8,8v30.2c0,0,0,8,8,8h30.2c0,0,8,0,8-8v-30.2c0,0,0-8-8-8H149.1z"/>
	<path class="st5" d="M149.1,269.6c0,0-8,0-8,8v30.2c0,0,0,8,8,8h30.2c0,0,8,0,8-8v-30.2c0,0,0-8-8-8H149.1z"/>
	<path class="st5" d="M214.4,85.5c0,0-8,0-8,8v30.2c0,0,0,8,8,8h30.2c0,0,8,0,8-8V93.5c0,0,0-8-8-8H214.4z"/>
	<path class="st5" d="M214.4,146.9c0,0-8,0-8,8v30.2c0,0,0,8,8,8h30.2c0,0,8,0,8-8v-30.2c0,0,0-8-8-8H214.4z"/>
	<path class="st5" d="M214.4,208.2c0,0-8,0-8,8v30.2c0,0,0,8,8,8h30.2c0,0,8,0,8-8v-30.2c0,0,0-8-8-8H214.4z"/>
	<path class="st6" d="M74,77.2c0,0-8,0-8,8v30.2c0,0,0,8,8,8h30.2c0,0,8,0,8-8V85.2c0,0,0-8-8-8H74z"/>
	<path class="st6" d="M74,138.5c0,0-8,0-8,8v30.2c0,0,0,8,8,8h30.2c0,0,8,0,8-8v-30.2c0,0,0-8-8-8H74z"/>
	<path class="st6" d="M74,199.9c0,0-8,0-8,8v30.2c0,0,0,8,8,8h30.2c0,0,8,0,8-8v-30.2c0,0,0-8-8-8H74z"/>
	<path class="st6" d="M74,261.2c0,0-8,0-8,8v30.2c0,0,0,8,8,8h30.2c0,0,8,0,8-8v-30.2c0,0,0-8-8-8H74z"/>
	<path class="st6" d="M139.3,77.2c0,0-8,0-8,8v30.2c0,0,0,8,8,8h30.2c0,0,8,0,8-8V85.2c0,0,0-8-8-8H139.3z"/>
	<path class="st6" d="M139.3,138.5c0,0-8,0-8,8v30.2c0,0,0,8,8,8h30.2c0,0,8,0,8-8v-30.2c0,0,0-8-8-8H139.3z"/>
	<path class="st6" d="M139.3,199.9c0,0-8,0-8,8v30.2c0,0,0,8,8,8h30.2c0,0,8,0,8-8v-30.2c0,0,0-8-8-8H139.3z"/>
	<path class="st6" d="M139.3,261.2c0,0-8,0-8,8v30.2c0,0,0,8,8,8h30.2c0,0,8,0,8-8v-30.2c0,0,0-8-8-8H139.3z"/>
	<path class="st6" d="M204.5,77.2c0,0-8,0-8,8v30.2c0,0,0,8,8,8h30.2c0,0,8,0,8-8V85.2c0,0,0-8-8-8H204.5z"/>
	<path class="st6" d="M204.5,138.5c0,0-8,0-8,8v30.2c0,0,0,8,8,8h30.2c0,0,8,0,8-8v-30.2c0,0,0-8-8-8H204.5z"/>
	<path class="st6" d="M204.5,199.9c0,0-8,0-8,8v30.2c0,0,0,8,8,8h30.2c0,0,8,0,8-8v-30.2c0,0,0-8-8-8H204.5z"/>
</g>
</svg>
