<?xml version="1.0" encoding="utf-8"?>
<!-- Generator: Adobe Illustrator 21.0.2, SVG Export Plug-In . SVG Version: 6.00 Build 0)  -->
<svg version="1.1" id="Layer_1" xmlns="http://www.w3.org/2000/svg" xmlns:xlink="http://www.w3.org/1999/xlink" x="0px" y="0px"
	 viewBox="0 0 639.6 506" style="enable-background:new 0 0 639.6 506;" xml:space="preserve">
<style type="text/css">
	.st0{fill:#FFFFFF;}
	.st1{fill:none;stroke:#1D1D1B;stroke-width:0.902;}
	.st2{opacity:0.7;}
	.st3{clip-path:url(#SVGID_2_);fill:#FFFFFF;}
	.st4{clip-path:url(#SVGID_2_);fill:none;stroke:#1D1D1B;stroke-width:0.902;}
	.st5{clip-path:url(#SVGID_4_);fill:#FFFFFF;}
	.st6{clip-path:url(#SVGID_4_);fill:none;stroke:#1D1D1B;stroke-width:0.902;}
	.st7{fill:none;}
	.st8{fill:none;stroke:#000000;stroke-width:11;stroke-linecap:round;stroke-miterlimit:3;}
</style>
<rect x="48.4" y="125" class="st0" width="27.4" height="369.7"/>
<rect x="48.4" y="125" class="st1" width="27.4" height="369.7"/>
<rect x="567.3" y="125" class="st0" width="27.4" height="369.7"/>
<rect x="567.3" y="125" class="st1" width="27.4" height="369.7"/>
<g class="st2">
	<g>
		<defs>
			<rect id="SVGID_1_" x="79.3" y="129.5" width="240.4" height="187.9"/>
		</defs>
		<clipPath id="SVGID_2_">
			<use xlink:href="#SVGID_1_"  style="overflow:visible;"/>
		</clipPath>
		<rect x="88.7" y="137" class="st3" width="221.5" height="179"/>
		<rect x="88.7" y="137" class="st4" width="221.5" height="179"/>
	</g>
</g>
<g class="st2">
	<g>
		<defs>
			<rect id="SVGID_3_" x="318.6" y="129.5" width="240.4" height="187.9"/>
		</defs>
		<clipPath id="SVGID_4_">
			<use xlink:href="#SVGID_3_"  style="overflow:visible;"/>
		</clipPath>
		<rect x="328" y="137" class="st5" width="221.5" height="179"/>
		<rect x="328" y="137" class="st6" width="221.5" height="179"/>
	</g>
</g>
<path d="M309.8,426.1h179.9v20H309.8V426.1z M269.8,416.1c0,5.5,4.5,10,10,10h10v20v20v30c0,5.5,4.5,10,10,10c5.5,0,10-4.5,10-10
	v-30h179.9v30c0,5.5,4.5,10,10,10c5.5,0,10-4.5,10-10v-30v-20v-20h10c5.5,0,10-4.5,10-10c0-5.5-4.5-10-10-10H279.8
	C274.3,406.1,269.8,410.6,269.8,416.1 M617.9,66.3H21.7c4.1-11.6,15.2-20,28.3-20h539.6C602.6,46.4,613.7,54.7,617.9,66.3 M50,486.1
	L50,126.3l19.9,0.1v359.7H50z M70,106.3v-20h499.7v20c-7.4,0-13.8,4-17.3,10H87.2C83.7,110.4,77.3,106.3,70,106.3 M89.9,136.3h219.8
	v179.9H89.9V136.3z M329.8,136.3h219.8v179.9H329.8V136.3z M569.6,486.1l0.1-359.8l19.9,0.1v359.7H569.6z M639.6,76.3
	c0-27.6-22.4-50-50-50H50c-27.6,0-50,22.4-50,50c0,5.5,4.5,10,10,10h40v20c-11,0-20,9-20,20v359.7H20c-5.5,0-10,4.5-10,10
	c0,5.5,4.5,10,10,10h79.9c5.5,0,10-4.5,10-10c0-5.5-4.5-10-10-10h-10v-20v-20V336.2h459.7v109.9v20v20h-10c-5.5,0-10,4.5-10,10
	c0,5.5,4.5,10,10,10h79.9c5.5,0,10-4.5,10-10c0-5.5-4.5-10-10-10h-10V126.4c0-11-9-20-20-20v-20h40
	C635.1,86.3,639.6,81.9,639.6,76.3"/>
<rect y="26.4" class="st7" width="639.6" height="479.7"/>
<line class="st8" x1="115.7" y1="184.6" x2="135.7" y2="168.2"/>
<line class="st8" x1="120.2" y1="211.7" x2="167.2" y2="172.7"/>
<g>
	<defs>
		<rect id="SVGID_5_" y="26.4" width="639.6" height="479.7"/>
	</defs>
	<clipPath id="SVGID_6_">
		<use xlink:href="#SVGID_5_"  style="overflow:visible;"/>
	</clipPath>
</g>
<path class="st0" d="M411.4,367.5c1.9,0,3.5-1.6,3.5-3.5s-1.6-3.5-3.5-3.5c-1.9,0-3.5,1.6-3.5,3.5S409.5,367.5,411.4,367.5"/>
<path class="st0" d="M411.4,382.2c1.9,0,3.5-1.6,3.5-3.5c0-1.9-1.6-3.5-3.5-3.5c-1.9,0-3.5,1.6-3.5,3.5
	C407.9,380.6,409.5,382.2,411.4,382.2"/>
<rect y="26.4" class="st7" width="639.6" height="479.7"/>
<rect y="26.4" class="st7" width="639.6" height="479.7"/>
</svg>
