<?xml version="1.0" encoding="utf-8"?>
<!-- Generator: Adobe Illustrator 21.0.2, SVG Export Plug-In . SVG Version: 6.00 Build 0)  -->
<svg version="1.1" id="Layer_1" xmlns="http://www.w3.org/2000/svg" xmlns:xlink="http://www.w3.org/1999/xlink" x="0px" y="0px"
	 viewBox="0 0 639.6 506" style="enable-background:new 0 0 639.6 506;" xml:space="preserve">
<style type="text/css">
	.st0{clip-path:url(#SVGID_2_);fill:#FFFFFF;}
	.st1{clip-path:url(#SVGID_2_);fill:none;stroke:#1D1D1B;stroke-width:0.902;}
	.st2{clip-path:url(#SVGID_2_);}
	.st3{opacity:0.7;clip-path:url(#SVGID_4_);}
	.st4{clip-path:url(#SVGID_6_);fill:#FFFFFF;}
	.st5{clip-path:url(#SVGID_6_);fill:none;stroke:#1D1D1B;stroke-width:0.902;}
	.st6{clip-path:url(#SVGID_8_);fill:#FFFFFF;}
	.st7{clip-path:url(#SVGID_8_);fill:none;stroke:#1D1D1B;stroke-width:0.902;}
	.st8{clip-path:url(#SVGID_4_);}
	.st9{clip-path:url(#SVGID_2_);fill:none;stroke:#000000;stroke-width:11;stroke-linecap:round;stroke-miterlimit:3;}
	.st10{clip-path:url(#SVGID_10_);fill:#A0ECFF;}
	.st11{clip-path:url(#SVGID_10_);}
	.st12{clip-path:url(#SVGID_12_);}
	.st13{clip-path:url(#SVGID_12_);fill:none;stroke:#000000;stroke-width:2.5;stroke-miterlimit:10;}
	.st14{clip-path:url(#SVGID_2_);fill:none;stroke:#000000;stroke-width:6;stroke-miterlimit:10;}
	.st15{clip-path:url(#SVGID_14_);fill:#FFFFFF;}
	.st16{clip-path:url(#SVGID_14_);fill:none;stroke:#000000;stroke-width:9;stroke-miterlimit:10;}
	.st17{clip-path:url(#SVGID_14_);fill:none;stroke:#000000;stroke-width:3;stroke-miterlimit:10;}
	.st18{clip-path:url(#SVGID_14_);fill:none;stroke:#000000;stroke-width:6;stroke-miterlimit:10;}
</style>
<g>
	<defs>
		<rect id="SVGID_1_" y="26.4" width="639.6" height="479.7"/>
	</defs>
	<clipPath id="SVGID_2_">
		<use xlink:href="#SVGID_1_"  style="overflow:visible;"/>
	</clipPath>
	<rect x="48.4" y="125" class="st0" width="27.4" height="369.7"/>
	<rect x="48.4" y="125" class="st1" width="27.4" height="369.7"/>
	<rect x="567.3" y="125" class="st0" width="27.4" height="369.7"/>
	<rect x="567.3" y="125" class="st1" width="27.4" height="369.7"/>
	<g class="st2">
		<defs>
			<rect id="SVGID_3_" y="26.4" width="639.6" height="479.7"/>
		</defs>
		<clipPath id="SVGID_4_">
			<use xlink:href="#SVGID_3_"  style="overflow:visible;"/>
		</clipPath>
		<g class="st3">
			<g>
				<defs>
					<rect id="SVGID_5_" x="79.3" y="129.5" width="240.4" height="187.9"/>
				</defs>
				<clipPath id="SVGID_6_">
					<use xlink:href="#SVGID_5_"  style="overflow:visible;"/>
				</clipPath>
				<rect x="88.7" y="137" class="st4" width="221.5" height="179"/>
				<rect x="88.7" y="137" class="st5" width="221.5" height="179"/>
			</g>
		</g>
		<g class="st3">
			<g>
				<defs>
					<rect id="SVGID_7_" x="318.6" y="129.5" width="240.4" height="187.9"/>
				</defs>
				<clipPath id="SVGID_8_">
					<use xlink:href="#SVGID_7_"  style="overflow:visible;"/>
				</clipPath>
				<rect x="328" y="137" class="st6" width="221.5" height="179"/>
				<rect x="328" y="137" class="st7" width="221.5" height="179"/>
			</g>
		</g>
		<path class="st8" d="M309.8,426.1h179.9v20H309.8V426.1z M269.8,416.1c0,5.5,4.5,10,10,10h10v20v20v30c0,5.5,4.5,10,10,10
			c5.5,0,10-4.5,10-10v-30h179.9v30c0,5.5,4.5,10,10,10c5.5,0,10-4.5,10-10v-30v-20v-20h10c5.5,0,10-4.5,10-10c0-5.5-4.5-10-10-10
			H279.8C274.3,406.1,269.8,410.6,269.8,416.1 M617.9,66.3H21.7c4.1-11.6,15.2-20,28.3-20h539.6C602.6,46.4,613.7,54.7,617.9,66.3
			 M50,486.1L50,126.3l19.9,0.1v359.7H50z M70,106.3v-20h499.7v20c-7.4,0-13.8,4-17.3,10H87.2C83.7,110.4,77.3,106.3,70,106.3
			 M89.9,136.3h219.8v179.9H89.9V136.3z M329.8,136.3h219.8v179.9H329.8V136.3z M569.6,486.1l0.1-359.8l19.9,0.1v359.7H569.6z
			 M639.6,76.3c0-27.6-22.4-50-50-50H50c-27.6,0-50,22.4-50,50c0,5.5,4.5,10,10,10h40v20c-11,0-20,9-20,20v359.7H20
			c-5.5,0-10,4.5-10,10c0,5.5,4.5,10,10,10h79.9c5.5,0,10-4.5,10-10c0-5.5-4.5-10-10-10h-10v-20v-20V336.2h459.7v109.9v20v20h-10
			c-5.5,0-10,4.5-10,10c0,5.5,4.5,10,10,10h79.9c5.5,0,10-4.5,10-10c0-5.5-4.5-10-10-10h-10V126.4c0-11-9-20-20-20v-20h40
			C635.1,86.3,639.6,81.9,639.6,76.3"/>
	</g>
	<line class="st9" x1="115.7" y1="184.6" x2="135.7" y2="168.2"/>
	<line class="st9" x1="120.2" y1="211.7" x2="167.2" y2="172.7"/>
	<g class="st2">
		<defs>
			<rect id="SVGID_9_" y="26.4" width="639.6" height="479.7"/>
		</defs>
		<clipPath id="SVGID_10_">
			<use xlink:href="#SVGID_9_"  style="overflow:visible;"/>
		</clipPath>
		<path class="st10" d="M417.4,193.8c0,0,16,4,17,13S423.5,244,405.5,260s-46.1,40.8-46.1,39.8s-10-88.8,11-105
			c15.6-12.1,47-1.6,47-1.6"/>
		<path class="st11" d="M450.2,303.5c-3.4,0-6.1,2.7-6.1,6.1c0,3.4,2.7,6.1,6.1,6.1c3.4,0,6.1-2.7,6.1-6.1
			C456.3,306.3,453.6,303.5,450.2,303.5 M450.2,318.6c-4.9,0-9-4-9-9c0-4.9,4-9,9-9c4.9,0,9,4,9,9
			C459.2,314.6,455.1,318.6,450.2,318.6"/>
		<path class="st11" d="M445.1,308.5c0.5-2,2.1-3.5,4-4l0.7,2.8c-0.9,0.2-1.7,1-2,2L445.1,308.5z"/>
		<path class="st11" d="M416.2,275.6h2.3c0-3.1,2.5-5.6,5.6-5.6c3.1,0,5.6,2.5,5.6,5.6h2.3c0-4.3-3.5-7.9-7.9-7.9
			C419.7,267.8,416.2,271.3,416.2,275.6"/>
		<path class="st11" d="M405.8,295.9c-2.2,0-4.7-3.8-4.7-9.1h-2.7c0,6.6,3.3,11.9,7.4,11.9c4.2,0,7.4-5.2,7.4-11.9h-2.7
			C410.5,292.2,408,295.9,405.8,295.9"/>
	</g>
	<rect x="448.8" y="282" class="st2" width="2.9" height="20.6"/>
	<g class="st2">
		<defs>
			<rect id="SVGID_11_" y="26.4" width="639.6" height="479.7"/>
		</defs>
		<clipPath id="SVGID_12_">
			<use xlink:href="#SVGID_11_"  style="overflow:visible;"/>
		</clipPath>
		<path class="st12" d="M447.2,276.6v-17.4c4,0.8,7.1,4.4,7.1,8.7C454.3,272.2,451.3,275.8,447.2,276.6 M442.1,266.1
			c-2.7-5.8-8.5-9.9-15.3-10c7.6-8.8,12.6-17.6,15.3-26.4V266.1z M442.1,288.3c0,13.2-10.8,24-24,24h-24.7c-7.3,0-13.8-3.3-18.2-8.4
			c2.7-2.5,5.4-5,8-7.5c2.4-2.3,4.9-4.6,7.3-6.9c4.5-1.5,8.2-4.9,10.1-9.2c2.6-2.3,5.3-4.6,7.9-6.8c0.2-0.2,0.5-0.4,0.7-0.6
			c0,0.1,0,0.2,0,0.4c0,9.5,7.7,17.2,17.2,17.2c6.9,0,12.9-4.1,15.6-10.1V288.3z M426.5,258.6c8.1,0,14.6,6.6,14.6,14.6
			c0,8.1-6.6,14.6-14.6,14.6c-8.1,0-14.6-6.6-14.6-14.6c0-0.9,0.1-1.8,0.3-2.7c4.6-4,8.7-7.9,12.3-11.8
			C425.1,258.7,425.8,258.6,426.5,258.6 M363.7,308.6c-0.2-2.3-0.3-4.7-0.5-7c-0.1-0.8-0.1-1.6-0.2-2.3c2.9-9.6,8.9-19,18.1-28.6
			c5.6-5.8,11.8-11.1,17.9-16.3c3.1-2.6,6.2-5.3,9.3-8.1c5-4.5,9.9-9.2,14.5-14.1l-2.1-2c-4.6,4.8-9.4,9.5-14.3,13.9
			c-3,2.7-6.2,5.4-9.2,8c-6.1,5.2-12.4,10.6-18.1,16.5c-7.6,7.9-13.1,15.7-16.5,23.6c-0.2-3.3-0.5-6.6-0.7-9.9l0.2,0
			c1.8-12.1,7.8-24.1,17.6-34.8c7.7-8.5,17.5-16,31.5-24.4l-1.5-2.5c-14.3,8.6-24.2,16.3-32.2,25c-7.7,8.4-13.2,17.7-16.2,27.2
			c-0.4-7.9-0.6-15.9-0.6-23.8c0-2.3,0-4.7-0.1-7.1c-0.2-12.7-0.5-27.2,6.5-36.9c6.9-9.6,19.5-13.4,32.5-13.4
			c7.5,0,15.1,1.2,21.8,3.4c1.3,0.4,2.7,0.9,3.9,1.4c10.3,4,15,11.2,14.4,21.9c-1.1,17.3-12.1,34.3-33.9,52
			c-9,7.3-17.4,15.3-25.6,23.1C374.9,298.3,369.3,303.5,363.7,308.6 M446.4,255.5v-29c0-4.6-0.8-8.9-2.3-12.9
			c-0.8-10.1-6.7-17.5-17.1-21.6c-1.3-0.5-2.8-1-4.2-1.5c-20.6-6.4-46.9-5.3-59.2,11.7c-7.9,10.9-7.6,26.1-7.4,39.6
			c0,2.4,0.1,4.8,0.1,7c-0.1,17.8,1.2,35.7,2.5,53c0.3,3.8,0.6,7.6,0.8,11.4l0.3,4.3l3.3-2.8c3-2.6,5.9-5.2,8.8-7.9
			c5.2,6,12.8,9.8,21.4,9.8h24.7c15.6,0,28.3-12.7,28.3-28.3v-7.9c6.4-0.5,11.4-5.9,11.4-12.4C457.9,261.4,452.8,256.1,446.4,255.5"
			/>
		<path class="st13" d="M447.2,276.6v-17.4c4,0.8,7.1,4.4,7.1,8.7C454.3,272.2,451.3,275.8,447.2,276.6z M442.1,266.1
			c-2.7-5.8-8.5-9.9-15.3-10c7.6-8.8,12.6-17.6,15.3-26.4V266.1z M442.1,288.3c0,13.2-10.8,24-24,24h-24.7c-7.3,0-13.8-3.3-18.2-8.4
			c2.7-2.5,5.4-5,8-7.5c2.4-2.3,4.9-4.6,7.3-6.9c4.5-1.5,8.2-4.9,10.1-9.2c2.6-2.3,5.3-4.6,7.9-6.8c0.2-0.2,0.5-0.4,0.7-0.6
			c0,0.1,0,0.2,0,0.4c0,9.5,7.7,17.2,17.2,17.2c6.9,0,12.9-4.1,15.6-10.1V288.3z M426.5,258.6c8.1,0,14.6,6.6,14.6,14.6
			c0,8.1-6.6,14.6-14.6,14.6c-8.1,0-14.6-6.6-14.6-14.6c0-0.9,0.1-1.8,0.3-2.7c4.6-4,8.7-7.9,12.3-11.8
			C425.1,258.7,425.8,258.6,426.5,258.6z M363.7,308.6c-0.2-2.3-0.3-4.7-0.5-7c-0.1-0.8-0.1-1.6-0.2-2.3c2.9-9.6,8.9-19,18.1-28.6
			c5.6-5.8,11.8-11.1,17.9-16.3c3.1-2.6,6.2-5.3,9.3-8.1c5-4.5,9.9-9.2,14.5-14.1l-2.1-2c-4.6,4.8-9.4,9.5-14.3,13.9
			c-3,2.7-6.2,5.4-9.2,8c-6.1,5.2-12.4,10.6-18.1,16.5c-7.6,7.9-13.1,15.7-16.5,23.6c-0.2-3.3-0.5-6.6-0.7-9.9l0.2,0
			c1.8-12.1,7.8-24.1,17.6-34.8c7.7-8.5,17.5-16,31.5-24.4l-1.5-2.5c-14.3,8.6-24.2,16.3-32.2,25c-7.7,8.4-13.2,17.7-16.2,27.2
			c-0.4-7.9-0.6-15.9-0.6-23.8c0-2.3,0-4.7-0.1-7.1c-0.2-12.7-0.5-27.2,6.5-36.9c6.9-9.6,19.5-13.4,32.5-13.4
			c7.5,0,15.1,1.2,21.8,3.4c1.3,0.4,2.7,0.9,3.9,1.4c10.3,4,15,11.2,14.4,21.9c-1.1,17.3-12.1,34.3-33.9,52
			c-9,7.3-17.4,15.3-25.6,23.1C374.9,298.3,369.3,303.5,363.7,308.6z M446.4,255.5v-29c0-4.6-0.8-8.9-2.3-12.9
			c-0.8-10.1-6.7-17.5-17.1-21.6c-1.3-0.5-2.8-1-4.2-1.5c-20.6-6.4-46.9-5.3-59.2,11.7c-7.9,10.9-7.6,26.1-7.4,39.6
			c0,2.4,0.1,4.8,0.1,7c-0.1,17.8,1.2,35.7,2.5,53c0.3,3.8,0.6,7.6,0.8,11.4l0.3,4.3l3.3-2.8c3-2.6,5.9-5.2,8.8-7.9
			c5.2,6,12.8,9.8,21.4,9.8h24.7c15.6,0,28.3-12.7,28.3-28.3v-7.9c6.4-0.5,11.4-5.9,11.4-12.4C457.9,261.4,452.8,256.1,446.4,255.5z
			"/>
	</g>
	<rect x="398" y="314.4" class="st0" width="22" height="36.7"/>
	<rect x="398" y="314.4" class="st14" width="22" height="36.7"/>
	<g class="st2">
		<defs>
			<rect id="SVGID_13_" y="26.4" width="639.6" height="479.7"/>
		</defs>
		<clipPath id="SVGID_14_">
			<use xlink:href="#SVGID_13_"  style="overflow:visible;"/>
		</clipPath>
		<path class="st15" d="M423,329c0,0-2,14-14,14s-13.5-14.1-13.5-14.1h-12.2h-9.6c0,0-21.3,26.9-21.3,78.3l61.4-0.2l57.8,0.2
			c0-51.4-23.2-78.3-23.2-78.3h-6.1H423"/>
		<path class="st16" d="M423,329c0,0-2,14-14,14s-13.5-14.1-13.5-14.1h-12.2h-9.6c0,0-21.3,26.9-21.3,78.3l61.4-0.2l57.8,0.2
			c0-51.4-23.2-78.3-23.2-78.3h-6.1H423"/>
		<path class="st15" d="M391.7,357.2c0,0-13.3,18.5-13.9,45c0.4,0-8.1,95-8.1,95l45.6,0l-13.8-93.9l25.2,0l-9.3,94.4l45.6,0
			c0,0-14.1-94.4-14.1-94.6c-0.5-27.1-14.1-46-14.1-46"/>
		<path class="st16" d="M391.7,357.2c0,0-13.3,18.5-13.9,45c0.4,0-8.1,95-8.1,95l45.6,0l-13.8-93.9l25.2,0l-9.3,94.4l45.6,0
			c0,0-14.1-94.4-14.1-94.6c-0.5-27.1-14.1-46-14.1-46"/>
		<path class="st15" d="M411.4,367.5c1.9,0,3.5-1.6,3.5-3.5s-1.6-3.5-3.5-3.5c-1.9,0-3.5,1.6-3.5,3.5S409.5,367.5,411.4,367.5"/>
		<circle class="st17" cx="411.4" cy="364" r="3.5"/>
		<path class="st15" d="M411.4,382.2c1.9,0,3.5-1.6,3.5-3.5c0-1.9-1.6-3.5-3.5-3.5c-1.9,0-3.5,1.6-3.5,3.5
			C407.9,380.6,409.5,382.2,411.4,382.2"/>
		<circle class="st17" cx="411.4" cy="378.7" r="3.5"/>
		<path class="st15" d="M369.8,498.2c0,0,8.5-19.2,22.8-19.2c14.2,0,22.8,19.2,22.8,19.2"/>
		<path class="st16" d="M369.8,498.2c0,0,8.5-19.2,22.8-19.2c14.2,0,22.8,19.2,22.8,19.2"/>
		<path class="st15" d="M417.5,497.7c0,0,8.5-19.2,22.8-19.2c14.2,0,22.8,19.2,22.8,19.2"/>
		<path class="st16" d="M417.5,497.7c0,0,8.5-19.2,22.8-19.2c14.2,0,22.8,19.2,22.8,19.2"/>
		<path class="st15" d="M379.5,401c0,0,14.7-7.2,26-2c13,6,38,0,42-9"/>
		<path class="st18" d="M379.5,401c0,0,14.7-7.2,26-2c13,6,38,0,42-9"/>
	</g>
</g>
</svg>
