<?xml version="1.0" encoding="utf-8"?>
<!-- Generator: Adobe Illustrator 19.2.1, SVG Export Plug-In . SVG Version: 6.00 Build 0)  -->
<svg version="1.1" id="Camada_1" xmlns="http://www.w3.org/2000/svg" xmlns:xlink="http://www.w3.org/1999/xlink" x="0px" y="0px"
	 viewBox="0 0 100 100" style="enable-background:new 0 0 100 100;" xml:space="preserve">
<style type="text/css">
	.st0{fill:#FFFFFF;}
	.st1{fill-rule:evenodd;clip-rule:evenodd;fill:#FFFFFF;}
</style>
<g>
	<g>
		<path class="st0" d="M92.8,36.1c6,18.5-0.6,38.9-16.3,50.3c-15.8,11.5-37.1,11.5-52.9,0C7.8,74.9,1.2,54.6,7.2,36.1
			C13.2,17.6,30.5,5,50,5C69.5,5,86.8,17.6,92.8,36.1z M50,9.1c-17.7,0-33.5,11.4-38.9,28.3c-5.5,16.9,0.5,35.4,14.9,45.8
			c14.4,10.4,33.8,10.4,48.1,0c14.4-10.4,20.4-28.9,14.9-45.8C83.5,20.5,67.7,9.1,50,9.1z"/>
	</g>
	<path class="st1" d="M56.1,37.1c1.2,0,2.4,0,3.7,0c0.2,0,0.3,0,0.5,0v-6.4c-0.7-0.1-1.3-0.2-2-0.2c-1.3-0.1-2.5-0.1-3.8-0.1
		c-1.9,0-3.7,0.5-5.3,1.6c-1.8,1.3-2.8,3.1-3.2,5.3c-0.2,0.9-0.2,1.8-0.2,2.7c0,1.4,0,2.8,0,4.3v0.5h-6.1V52h6v17.8h7.4V52h6
		c0.3-2.4,0.6-4.7,0.9-7.1c-0.5,0-0.9,0-1.4,0c-1.7,0-5.6,0-5.6,0s0-3.5,0.1-5C53.2,37.8,54.4,37.1,56.1,37.1z"/>
</g>
</svg>
