<?xml version="1.0" encoding="utf-8"?>
<!-- Generator: Adobe Illustrator 19.2.1, SVG Export Plug-In . SVG Version: 6.00 Build 0)  -->
<svg version="1.1" id="Camada_1" xmlns="http://www.w3.org/2000/svg" xmlns:xlink="http://www.w3.org/1999/xlink" x="0px" y="0px"
	 viewBox="0 0 100 100" style="enable-background:new 0 0 100 100;" xml:space="preserve">
<style type="text/css">
	.st0{fill:#FFFFFF;}
</style>
<path class="st0" d="M56.7,29.3H43.3c-7.7,0-14.1,6.3-14.1,14.1v13.3c0,7.7,6.3,14.1,14.1,14.1h13.3c7.7,0,14.1-6.3,14.1-14.1V43.3
	C70.7,35.5,64.4,29.3,56.7,29.3z M50,58.9c-4.5,0-8.1-3.7-8.1-8.1s3.7-8.1,8.1-8.1s8.1,3.7,8.1,8.1S54.5,58.9,50,58.9z M61,43.4
	c-2,0-3.7-1.6-3.7-3.7c0-2,1.6-3.7,3.7-3.7s3.7,1.6,3.7,3.7C64.7,41.8,63.1,43.4,61,43.4z"/>
<path class="st0" d="M50,5C25.2,5,5,25.2,5,50s20.2,45,45,45s45-20.2,45-45S74.8,5,50,5z M50,92C26.8,92,8,73.2,8,50S26.8,8,50,8
	s42,18.8,42,42S73.2,92,50,92z"/>
</svg>
