<?xml version="1.0" encoding="utf-8"?>
<!-- Generator: Adobe Illustrator 19.2.1, SVG Export Plug-In . SVG Version: 6.00 Build 0)  -->
<svg version="1.1" id="Camada_1" xmlns="http://www.w3.org/2000/svg" xmlns:xlink="http://www.w3.org/1999/xlink" x="0px" y="0px"
	 viewBox="0 0 100 100" style="enable-background:new 0 0 100 100;" xml:space="preserve">
<style type="text/css">
	.st0{fill:#FFFFFF;}
	.st1{fill-rule:evenodd;clip-rule:evenodd;fill:#FFFFFF;}
</style>
<g>
	<g>
		<path class="st0" d="M92.8,36.1c6,18.5-0.6,38.9-16.3,50.3c-15.8,11.5-37.1,11.5-52.9,0C7.8,74.9,1.2,54.6,7.2,36.1
			C13.2,17.6,30.5,5,50,5C69.5,5,86.8,17.6,92.8,36.1z M50,9.1c-17.7,0-33.5,11.4-38.9,28.3c-5.5,16.9,0.5,35.4,14.9,45.8
			c14.4,10.4,33.8,10.4,48.1,0c14.4-10.4,20.4-28.9,14.9-45.8C83.5,20.5,67.7,9.1,50,9.1z"/>
	</g>
	<path class="st1" d="M43.3,59.8c-4.5-0.2-7.4-3.4-8.1-6.1c1.3,0.2,2.5,0.2,3.7-0.1c0,0,0.1,0,0.1-0.1c-2.5-0.6-4.4-1.9-5.7-4
		c-0.9-1.4-1.3-2.9-1.3-4.6c1.2,0.7,2.5,1,3.9,1.1c-1.8-1.3-3.1-3.1-3.6-5.3c-0.5-2.2-0.2-4.3,0.9-6.3c4.7,5.6,10.7,8.6,18,9.1
		c0-0.3-0.1-0.6-0.1-1c-0.2-2.1,0.2-4,1.3-5.7c1.4-2.2,3.4-3.5,5.9-3.9c2.9-0.5,5.5,0.4,7.6,2.4c0.1,0.1,0.3,0.2,0.5,0.1
		c1.8-0.4,3.5-1,5.1-2c0,0,0.1,0,0.1-0.1c0,0,0,0,0.1,0c-0.7,2-1.9,3.6-3.7,4.7c1.7-0.2,3.3-0.6,4.9-1.3c0,0,0,0,0,0
		c-0.3,0.4-0.7,0.9-1,1.3c-0.9,1.1-2,2.1-3.2,3c-0.1,0.1-0.1,0.1-0.1,0.3c0,1.3,0,2.6-0.2,3.9c-0.3,2.7-1.1,5.3-2.2,7.8
		C65,55.7,63.4,58,61.5,60c-3.3,3.4-7.3,5.7-12,6.7c-1.6,0.4-3.2,0.5-4.9,0.6c-5,0.1-9.7-1.1-14-3.7c-0.1,0-0.1-0.1-0.2-0.1
		c3,0.3,5.9-0.1,8.7-1.2C40.7,61.6,42,60.8,43.3,59.8z"/>
</g>
</svg>
