<?xml version="1.0" encoding="utf-8"?>
<!-- Generator: Adobe Illustrator 19.2.1, SVG Export Plug-In . SVG Version: 6.00 Build 0)  -->
<svg version="1.1" id="Camada_1" xmlns="http://www.w3.org/2000/svg" xmlns:xlink="http://www.w3.org/1999/xlink" x="0px" y="0px"
	 viewBox="0 0 100 100" style="enable-background:new 0 0 100 100;" xml:space="preserve">
<style type="text/css">
	.st0{fill:#FFFFFF;}
	.st1{fill-rule:evenodd;clip-rule:evenodd;fill:#FFFFFF;}
</style>
<g>
	<g>
		<path class="st0" d="M92.8,36.1c6,18.5-0.6,38.9-16.3,50.3c-15.8,11.5-37.1,11.5-52.9,0C7.8,74.9,1.2,54.6,7.2,36.1S30.5,5,50,5
			C69.5,5,86.8,17.6,92.8,36.1z M50,9.1c-17.7,0-33.5,11.4-38.9,28.3c-5.5,16.9,0.5,35.4,14.9,45.8c14.4,10.4,33.8,10.4,48.1,0
			c14.4-10.4,20.4-28.9,14.9-45.8C83.5,20.5,67.7,9.1,50,9.1z"/>
	</g>
	<g>
		<path class="st1" d="M34.8,62.6c-1.4-0.5-2.4-1.4-2.9-2.8c-1.3-3.5-1.6-18.1,0.8-21c0.8-1,1.9-1.6,3.2-1.7
			c6.6-0.7,26.9-0.6,29.3,0.2c1.4,0.5,2.3,1.4,2.9,2.8c1.4,3.6,1.4,16.7-0.2,20.2c-0.4,0.9-1.2,1.6-2.1,2.1
			C63.3,63.7,38.1,63.7,34.8,62.6z M45.3,55.8c4-2.1,7.9-4.1,11.9-6.1c-4-2.1-7.9-4.1-11.9-6.2C45.3,47.5,45.3,51.6,45.3,55.8z"/>
	</g>
</g>
</svg>
