<?xml version="1.0" encoding="utf-8"?>
<!-- Generator: Adobe Illustrator 19.2.1, SVG Export Plug-In . SVG Version: 6.00 Build 0)  -->
<svg version="1.1"
	 id="Layer_1" xmlns:cc="http://creativecommons.org/ns#" xmlns:dc="http://purl.org/dc/elements/1.1/" xmlns:inkscape="http://www.inkscape.org/namespaces/inkscape" xmlns:rdf="http://www.w3.org/1999/02/22-rdf-syntax-ns#" xmlns:sodipodi="http://sodipodi.sourceforge.net/DTD/sodipodi-0.dtd" xmlns:svg="http://www.w3.org/2000/svg"
	 xmlns="http://www.w3.org/2000/svg" xmlns:xlink="http://www.w3.org/1999/xlink" x="0px" y="0px" viewBox="0 0 76.7 125"
	 style="enable-background:new 0 0 76.7 125;" xml:space="preserve">
<style type="text/css">
	.st0{fill:#FFFFFF;}
	.st1{fill:none;stroke:#1D1D1B;stroke-width:0.8312;stroke-linecap:round;stroke-miterlimit:3;}
	.st2{enable-background:new    ;}
	.st3{fill:none;stroke:#000000;stroke-width:0.6022;stroke-linecap:round;stroke-linejoin:round;}
	.st4{fill:none;stroke:#000000;stroke-width:0.1577;stroke-linecap:round;stroke-linejoin:round;}
	.st5{fill:none;stroke:#1D1D1B;stroke-width:0.1298;stroke-linecap:round;stroke-miterlimit:3;}
	.st6{fill:#FF9400;}
	.st7{fill:none;stroke:#FFFFFF;stroke-linecap:round;stroke-linejoin:round;}
	.st8{fill:#A1EDFF;}
	.st9{fill:#1D1D1B;}
	.st10{fill:none;stroke:#000000;stroke-width:0.4755;stroke-linecap:round;stroke-miterlimit:200;stroke-dasharray:1.8443,1.8443;}
	.st11{fill:none;stroke:#000000;stroke-width:3;stroke-linecap:round;stroke-miterlimit:10;}
</style>
<rect x="2.3" y="16.9" class="st0" width="71.7" height="87.5"/>
<path class="st1" d="M33.9,82c0,0-1.4,0-1.4,1.4v9.8c0,0,0,1.4,1.4,1.4h20c0,0,1.4,0,1.4-1.4v-9.8c0,0,0-1.4-1.4-1.4H33.9z"/>
<g class="st2">
	<path d="M20.2,39.4c-0.2,0-0.5,0-0.7,0c-0.2,0-0.4,0-0.5,0c-0.1,0-0.1-0.1-0.1-0.1v-3.7c0-0.1,0.1-0.2,0.3-0.3s0.5-0.1,0.8-0.1
		c0.4,0,0.6,0.1,0.6,0.3v1.3h0.5v-1.2c0-0.1,0.1-0.2,0.4-0.3c0.2-0.1,0.5-0.1,0.8-0.1c0.4,0,0.6,0.1,0.6,0.3v3.8
		c0,0.1-0.1,0.1-0.4,0.1c-0.2,0-0.5,0-0.7,0s-0.4,0-0.5,0c-0.1,0-0.1-0.1-0.1-0.1v-1.4h-0.5v1.4C20.5,39.4,20.4,39.4,20.2,39.4z"/>
	<path d="M24.8,38.1c0,0.3,0.1,0.4,0.4,0.4c0.1,0,0.3,0,0.6-0.1c0.2-0.1,0.4-0.1,0.4-0.1c0.1,0,0.2,0.1,0.3,0.3
		c0.1,0.2,0.2,0.4,0.2,0.5c0,0.2-0.2,0.3-0.5,0.4c-0.3,0.1-0.6,0.1-0.9,0.1c-0.3,0-0.6,0-0.8-0.1c-0.2,0-0.4-0.1-0.5-0.2
		c-0.1-0.1-0.2-0.2-0.3-0.3c-0.1-0.1-0.2-0.2-0.2-0.3c0-0.1-0.1-0.2-0.1-0.3c0-0.2-0.1-0.4-0.1-0.5c0-0.7,0.2-1.2,0.6-1.5
		c0.2-0.1,0.4-0.2,0.6-0.3c0.2-0.1,0.5-0.1,0.8-0.1c1,0,1.5,0.4,1.5,1.1c0,0.7-0.6,1.1-1.7,1.1H24.8z M24.7,37.3v0.4
		c0.1,0,0.2,0,0.3-0.1c0.1-0.1,0.1-0.2,0.1-0.3c0-0.2-0.1-0.4-0.2-0.4C24.8,36.8,24.7,37,24.7,37.3z"/>
	<path d="M28.6,35.1v4.3c0,0-0.1,0.1-0.3,0.1s-0.5,0-0.7,0c-0.2,0-0.4,0-0.5,0c-0.1,0-0.1-0.1-0.1-0.1v-4.2c0-0.1,0.1-0.2,0.3-0.3
		s0.5-0.1,0.7-0.1C28.5,34.8,28.6,34.9,28.6,35.1z"/>
	<path d="M28.9,36.4c0,0,0.1-0.1,0.2-0.2c0.1-0.1,0.3-0.1,0.5-0.2c0.2-0.1,0.4-0.1,0.6-0.1c0.4,0,0.6,0.1,0.6,0.3l0.1,1.9h0.1
		l0.1-1.8c0-0.1,0.1-0.2,0.4-0.3c0.3-0.1,0.5-0.1,0.7-0.1c0.2,0,0.4,0,0.5,0.1s0.2,0.1,0.2,0.1c0,0,0,0.1,0,0.1s-0.1,0.2-0.3,0.6
		c-0.2,0.4-0.5,1.2-1,2.5c0,0.1-0.4,0.1-1,0.1c-0.2,0-0.3,0-0.4,0c-0.1,0-0.1-0.1-0.1-0.1c-0.3-0.7-0.6-1.4-0.8-2
		C29,36.8,28.9,36.5,28.9,36.4z"/>
	<path d="M34.7,38.1c0,0.3,0.1,0.4,0.4,0.4c0.1,0,0.3,0,0.6-0.1c0.2-0.1,0.4-0.1,0.4-0.1c0.1,0,0.2,0.1,0.3,0.3
		c0.1,0.2,0.2,0.4,0.2,0.5c0,0.2-0.2,0.3-0.5,0.4c-0.3,0.1-0.6,0.1-0.9,0.1c-0.3,0-0.6,0-0.8-0.1c-0.2,0-0.4-0.1-0.5-0.2
		c-0.1-0.1-0.2-0.2-0.3-0.3c-0.1-0.1-0.2-0.2-0.2-0.3c0-0.1-0.1-0.2-0.1-0.3c0-0.2-0.1-0.4-0.1-0.5c0-0.7,0.2-1.2,0.6-1.5
		c0.2-0.1,0.4-0.2,0.6-0.3c0.2-0.1,0.5-0.1,0.8-0.1c1,0,1.5,0.4,1.5,1.1c0,0.7-0.6,1.1-1.7,1.1H34.7z M34.7,37.3v0.4
		c0.1,0,0.2,0,0.3-0.1c0.1-0.1,0.1-0.2,0.1-0.3c0-0.2-0.1-0.4-0.2-0.4C34.8,36.8,34.7,37,34.7,37.3z"/>
	<path d="M39.3,39.4c-0.1,0.1-0.2,0.1-0.5,0.1c-0.3,0-0.5,0-0.6-0.1s-0.3-0.1-0.5-0.2c-0.3-0.2-0.4-0.6-0.4-1.2v-0.9H37
		c0,0-0.1,0-0.1-0.1c0-0.1,0-0.2,0-0.4s0-0.3,0.1-0.4c0.1-0.1,0.1-0.2,0.2-0.2h0.2v-0.7c0-0.1,0.1-0.2,0.4-0.3
		c0.2-0.1,0.5-0.1,0.7-0.1c0.4,0,0.5,0.1,0.5,0.3V36h0.4c0.1,0,0.2,0.2,0.2,0.5c0,0.2,0,0.4-0.1,0.5s-0.1,0.2-0.2,0.2h-0.4v1.1
		c0,0.1,0,0.2,0.1,0.2c0.1,0,0.2,0.1,0.2,0.1c0.1,0,0.1,0,0.1,0.1c0,0.1,0,0.2,0,0.3C39.4,39.2,39.4,39.4,39.3,39.4z"/>
	<path d="M40.7,34.8c0.3,0,0.5,0,0.6,0.1c0.1,0.1,0.2,0.2,0.2,0.4c0,0.4-0.3,0.5-0.8,0.5c-0.6,0-0.8-0.2-0.8-0.5
		C39.9,35,40.1,34.8,40.7,34.8z M41.5,36.4v3c0,0-0.1,0.1-0.3,0.1c-0.2,0-0.5,0-0.7,0s-0.4,0-0.5,0c-0.1,0-0.1-0.1-0.1-0.1v-2.9
		c0-0.1,0.1-0.2,0.3-0.3c0.2-0.1,0.5-0.1,0.7-0.1C41.3,36.1,41.5,36.2,41.5,36.4z"/>
	<path d="M43.1,39.5c-0.4,0-0.7-0.1-0.9-0.3c-0.1-0.1-0.2-0.2-0.2-0.3c-0.1-0.1-0.1-0.3-0.1-0.5c0-0.2,0-0.4,0.1-0.5
		s0.2-0.2,0.3-0.3s0.3-0.1,0.4-0.2c0.3-0.1,0.5-0.1,0.9-0.1h0.2c0-0.2-0.1-0.3-0.2-0.3c0,0-0.1,0-0.2,0c-0.1,0-0.2,0-0.4,0.1
		c-0.1,0.1-0.3,0.1-0.3,0.2c-0.1,0.1-0.2,0.1-0.2,0.1c-0.1,0-0.2-0.1-0.3-0.3c-0.1-0.2-0.2-0.4-0.2-0.5c0-0.1,0.1-0.1,0.2-0.2
		s0.4-0.2,0.6-0.2c0.3-0.1,0.5-0.1,0.8-0.1s0.5,0,0.7,0.1s0.3,0.1,0.5,0.2c0.1,0.1,0.2,0.1,0.3,0.2c0.1,0.1,0.1,0.2,0.2,0.3
		s0.1,0.2,0.1,0.3c0,0.1,0,0.3,0,0.5v1.8c0,0-0.1,0.1-0.3,0.1s-0.4,0-0.6,0s-0.3,0-0.4,0c-0.1,0-0.1,0-0.1,0c0,0,0,0,0-0.1l0-0.3h0
		C43.8,39.4,43.5,39.5,43.1,39.5z M43.9,38.6v-0.7c-0.1,0-0.2,0-0.3,0.1c-0.1,0.1-0.1,0.2-0.1,0.3c0,0.3,0.1,0.4,0.2,0.4
		C43.8,38.7,43.8,38.7,43.9,38.6C43.9,38.6,43.9,38.6,43.9,38.6z"/>
	<path d="M46,39.2c0-0.1,0-0.2,0-0.3c0-0.1,0-0.3,0.1-0.4s0.3-0.1,0.5-0.1s0.4,0.1,0.5,0.2c0.1,0.1,0.1,0.3,0.1,0.5
		c0,1-0.3,1.5-1,1.5c-0.1,0-0.1-0.1-0.2-0.2C46,40.1,46,39.9,46,39.9s0-0.1,0-0.1c0.1,0,0.1,0,0.2-0.1s0.1-0.1,0.1-0.1l0-0.1
		C46.2,39.5,46.1,39.4,46,39.2z"/>
	<path d="M50.7,36.9c0,0,0.1-0.1,0.3-0.1c0.2-0.1,0.3-0.1,0.5-0.1c0.2,0,0.4,0,0.5,0.1c0.1,0.1,0.2,0.1,0.3,0.2
		c0.1,0.1,0.1,0.2,0.2,0.3c0.1,0.2,0.1,0.4,0.1,0.7c0,0.2,0,0.4,0,0.5c0,0.1-0.1,0.2-0.1,0.4c-0.1,0.1-0.2,0.3-0.3,0.4
		c-0.1,0.1-0.3,0.2-0.5,0.2c-0.2,0.1-0.5,0.1-0.8,0.1c-0.6,0-1.1-0.2-1.4-0.5S49,38.1,49,37.3c0-0.8,0.1-1.3,0.4-1.7
		c0.3-0.3,0.8-0.5,1.4-0.5c0.4,0,0.8,0,1.1,0.1c0.3,0.1,0.5,0.1,0.5,0.2c0,0.1,0,0.3-0.1,0.5c-0.1,0.3-0.1,0.4-0.2,0.4
		c0,0-0.1,0-0.2,0c-0.3-0.1-0.5-0.1-0.7-0.1c-0.2,0-0.4,0.1-0.4,0.2C50.7,36.6,50.6,36.7,50.7,36.9C50.6,36.9,50.7,36.9,50.7,36.9z
		 M50.8,37.4c-0.1,0-0.2,0.2-0.2,0.6c0,0.4,0.1,0.6,0.2,0.6c0.1,0,0.2-0.2,0.2-0.6C51,37.6,51,37.4,50.8,37.4z"/>
	<path d="M54.7,36.9c0,0,0.1-0.1,0.3-0.1c0.2-0.1,0.3-0.1,0.5-0.1c0.2,0,0.4,0,0.5,0.1c0.1,0.1,0.2,0.1,0.3,0.2
		c0.1,0.1,0.1,0.2,0.2,0.3c0.1,0.2,0.1,0.4,0.1,0.7c0,0.2,0,0.4,0,0.5c0,0.1-0.1,0.2-0.1,0.4c-0.1,0.1-0.2,0.3-0.3,0.4
		c-0.1,0.1-0.3,0.2-0.5,0.2c-0.2,0.1-0.5,0.1-0.8,0.1c-0.6,0-1.1-0.2-1.4-0.5S53,38.1,53,37.3c0-0.8,0.1-1.3,0.4-1.7
		c0.3-0.3,0.8-0.5,1.4-0.5c0.4,0,0.8,0,1.1,0.1c0.3,0.1,0.5,0.1,0.5,0.2c0,0.1,0,0.3-0.1,0.5c-0.1,0.3-0.1,0.4-0.2,0.4
		c0,0-0.1,0-0.2,0c-0.3-0.1-0.5-0.1-0.7-0.1c-0.2,0-0.4,0.1-0.4,0.2C54.6,36.6,54.6,36.7,54.7,36.9C54.6,36.9,54.6,36.9,54.7,36.9z
		 M54.8,37.4c-0.1,0-0.2,0.2-0.2,0.6c0,0.4,0.1,0.6,0.2,0.6c0.1,0,0.2-0.2,0.2-0.6C55,37.6,54.9,37.4,54.8,37.4z"/>
	<path d="M59.8,39.5c-0.2,0.1-0.5,0.1-0.8,0.1s-0.6,0-0.8-0.1c-0.2-0.1-0.4-0.2-0.6-0.3c-0.4-0.3-0.5-0.9-0.5-1.8
		c0-0.9,0.2-1.5,0.6-1.8c0.2-0.2,0.4-0.3,0.6-0.3c0.2-0.1,0.5-0.1,0.8-0.1c0.3,0,0.6,0,0.8,0.1c0.2,0.1,0.4,0.2,0.6,0.3
		c0.4,0.3,0.6,0.9,0.6,1.8c0,0.9-0.2,1.5-0.5,1.8C60.2,39.3,60,39.4,59.8,39.5z M58.8,38.5c0,0.1,0.1,0.1,0.1,0.1s0.1,0,0.1-0.1
		c0-0.1,0.1-0.2,0.1-0.4c0-0.2,0-0.4,0-0.8c0-0.3,0-0.6,0-0.8c0-0.2,0-0.3-0.1-0.4c0-0.1-0.1-0.1-0.1-0.1s-0.1,0-0.1,0.1
		c-0.1,0.1-0.1,0.5-0.1,1.2C58.7,38,58.8,38.4,58.8,38.5z"/>
</g>
<g class="st2">
	<path d="M20.3,46.8c-0.1,0-0.3,0.1-0.6,0.1c-0.3,0-0.5,0-0.7-0.1c-0.2-0.1-0.3-0.1-0.3-0.2c0-0.1,0.2-0.7,0.5-1.8
		c0.4-1.1,0.6-1.8,0.6-2c0-0.1,0.2-0.1,0.5-0.1s0.6-0.1,1-0.1c0.3,0,0.5,0.1,0.6,0.2c0.8,2.5,1.1,3.8,1.1,3.8s0,0.1-0.1,0.1
		c-0.1,0.1-0.3,0.1-0.7,0.1c-0.7,0-1.1-0.1-1.1-0.3l0-0.4h-0.6l0,0.3C20.5,46.7,20.4,46.8,20.3,46.8z M21,45.1L20.9,44h-0.1
		l-0.1,1.1H21z"/>
	<path d="M26.9,44.9v1.8c0,0-0.1,0.1-0.3,0.1s-0.5,0-0.7,0c-0.2,0-0.4,0-0.5,0c-0.1,0-0.1-0.1-0.1-0.1v-1.9c0-0.2,0-0.3,0-0.4
		c0-0.1,0-0.1,0-0.1c0-0.1-0.1-0.1-0.1-0.1c-0.1,0-0.2,0.1-0.2,0.2v2.4c0,0-0.1,0.1-0.3,0.1c-0.2,0-0.5,0-0.7,0c-0.2,0-0.4,0-0.5,0
		c-0.1,0-0.1-0.1-0.1-0.1v-3c0-0.1,0.1-0.2,0.3-0.3c0.2-0.1,0.5-0.1,0.7-0.1c0.3,0,0.4,0.1,0.4,0.2l0.1,0.3h0
		c0.1-0.2,0.3-0.4,0.6-0.5c0.1,0,0.2-0.1,0.4-0.1c0.4,0,0.7,0.1,0.8,0.4C26.8,43.9,26.9,44.3,26.9,44.9z"/>
	<path d="M28.4,46.9c-0.4,0-0.7-0.1-0.9-0.3c-0.1-0.1-0.2-0.2-0.2-0.3c-0.1-0.1-0.1-0.3-0.1-0.5c0-0.2,0-0.4,0.1-0.5
		s0.2-0.2,0.3-0.3s0.3-0.1,0.4-0.2c0.3-0.1,0.5-0.1,0.9-0.1h0.2c0-0.2-0.1-0.3-0.2-0.3c0,0-0.1,0-0.2,0c-0.1,0-0.2,0-0.4,0.1
		c-0.1,0.1-0.3,0.1-0.3,0.2c-0.1,0.1-0.2,0.1-0.2,0.1c-0.1,0-0.2-0.1-0.3-0.3c-0.1-0.2-0.2-0.4-0.2-0.5c0-0.1,0.1-0.1,0.2-0.2
		c0.1-0.1,0.4-0.2,0.6-0.2c0.3-0.1,0.5-0.1,0.8-0.1c0.3,0,0.5,0,0.7,0.1c0.2,0,0.3,0.1,0.5,0.2c0.1,0.1,0.2,0.1,0.3,0.2
		c0.1,0.1,0.1,0.2,0.2,0.3s0.1,0.2,0.1,0.3c0,0.1,0,0.3,0,0.5v1.8c0,0-0.1,0.1-0.3,0.1c-0.2,0-0.4,0-0.6,0s-0.3,0-0.4,0
		c-0.1,0-0.1,0-0.1,0c0,0,0,0,0-0.1l0-0.3h0C29.1,46.7,28.9,46.9,28.4,46.9z M29.2,45.9v-0.7c-0.1,0-0.2,0-0.3,0.1s-0.1,0.2-0.1,0.3
		c0,0.3,0.1,0.4,0.2,0.4C29.1,46.1,29.1,46,29.2,45.9C29.2,46,29.2,46,29.2,45.9z"/>
	<path d="M34.2,45v1.8c0,0-0.1,0.1-0.3,0.1c-0.2,0-0.5,0-0.7,0c-0.2,0-0.4,0-0.5,0c-0.1,0-0.1-0.1-0.1-0.1v-3c0-0.1,0.1-0.2,0.3-0.2
		s0.5-0.1,0.7-0.1c0.3,0,0.4,0.1,0.4,0.2l0.1,0.3h0c0.1-0.2,0.2-0.3,0.4-0.4c0.2-0.1,0.4-0.2,0.6-0.2c0.2,0,0.4,0,0.4,0.1
		c0.1,0.1,0.1,0.2,0.1,0.3c0,0.1,0,0.2,0,0.4s-0.1,0.3-0.1,0.5c-0.1,0.2-0.1,0.3-0.2,0.3c0,0-0.2,0-0.4-0.1
		c-0.2-0.1-0.4-0.1-0.5-0.1c-0.1,0-0.2,0-0.3,0.1C34.3,44.8,34.2,44.9,34.2,45z"/>
	<path d="M38,46.9c-0.3,0-0.6,0-0.8-0.1c-0.2-0.1-0.4-0.1-0.6-0.3c-0.4-0.3-0.5-0.8-0.5-1.5c0-0.6,0.2-1.1,0.6-1.4
		c0.3-0.3,0.8-0.4,1.4-0.4c0.2,0,0.4,0,0.6,0c0.2,0,0.3,0.1,0.5,0.1c0.2,0.1,0.3,0.2,0.4,0.3c0.1,0.1,0.2,0.3,0.3,0.5
		c0.1,0.2,0.1,0.5,0.1,0.8c0,0.6-0.2,1.1-0.5,1.4C39,46.8,38.6,46.9,38,46.9z M37.8,45.8c0,0.1,0.1,0.2,0.1,0.3c0,0,0.1,0,0.1,0
		c0,0,0.1,0,0.1,0c0,0,0.1-0.1,0.1-0.3c0-0.1,0-0.3,0-0.5s0-0.4,0-0.5c0-0.1,0-0.2,0-0.3c0-0.1,0-0.1-0.1-0.2c0-0.1-0.1-0.1-0.1-0.1
		c-0.1,0-0.1,0-0.1,0c0,0-0.1,0.1-0.1,0.3c0,0.1,0,0.4,0,0.6C37.7,45.4,37.7,45.6,37.8,45.8z"/>
	<path d="M41.9,46.9c-0.7,0-1.2-0.1-1.5-0.2c-0.2-0.1-0.2-0.1-0.2-0.2c0-0.2,0-0.4,0.1-0.6s0.2-0.3,0.3-0.3c0,0,0.2,0,0.4,0.1
		c0.2,0.1,0.4,0.1,0.6,0.1c0.2,0,0.3,0,0.3,0c0,0,0.1-0.1,0.1-0.1s0-0.1-0.1-0.1s-0.2-0.1-0.3-0.1s-0.2,0-0.4-0.1
		c-0.1,0-0.3-0.1-0.4-0.1s-0.2-0.1-0.3-0.3s-0.1-0.3-0.1-0.4c0-0.1,0-0.3,0-0.3c0-0.1,0-0.2,0.1-0.3c0.1-0.1,0.1-0.2,0.2-0.3
		c0.1-0.1,0.3-0.2,0.5-0.2c0.2-0.1,0.5-0.1,0.7-0.1c0.3,0,0.5,0,0.7,0c0.2,0,0.3,0,0.4,0.1c0.1,0,0.2,0.1,0.3,0.1
		c0.1,0.1,0.2,0.1,0.2,0.2c0,0.2-0.1,0.3-0.2,0.5s-0.2,0.3-0.3,0.3c-0.1,0-0.2,0-0.4-0.1s-0.4-0.1-0.5-0.1c-0.2,0-0.3,0-0.3,0.1
		c0,0.1,0.1,0.1,0.2,0.1c0.1,0,0.3,0.1,0.4,0.1c0.2,0,0.3,0.1,0.5,0.1c0.2,0.1,0.3,0.2,0.4,0.3c0.1,0.2,0.2,0.3,0.2,0.6
		C43.5,46.5,43,46.9,41.9,46.9z"/>
	<path d="M45,46.9c-0.4,0-0.7-0.1-0.9-0.3c-0.1-0.1-0.2-0.2-0.2-0.3c-0.1-0.1-0.1-0.3-0.1-0.5c0-0.2,0-0.4,0.1-0.5s0.2-0.2,0.3-0.3
		s0.3-0.1,0.5-0.2c0.3-0.1,0.5-0.1,0.9-0.1h0.2c0-0.2-0.1-0.3-0.2-0.3c0,0-0.1,0-0.2,0s-0.2,0-0.4,0.1c-0.1,0.1-0.3,0.1-0.3,0.2
		c-0.1,0.1-0.2,0.1-0.2,0.1c-0.1,0-0.2-0.1-0.3-0.3c-0.1-0.2-0.2-0.4-0.2-0.5c0-0.1,0.1-0.1,0.2-0.2c0.1-0.1,0.4-0.2,0.6-0.2
		c0.3-0.1,0.5-0.1,0.8-0.1c0.3,0,0.5,0,0.7,0.1c0.2,0,0.3,0.1,0.5,0.2c0.1,0.1,0.2,0.1,0.3,0.2c0.1,0.1,0.1,0.2,0.2,0.3
		s0.1,0.2,0.1,0.3c0,0.1,0,0.3,0,0.5v1.8c0,0-0.1,0.1-0.3,0.1c-0.2,0-0.4,0-0.6,0s-0.3,0-0.4,0c-0.1,0-0.1,0-0.1,0c0,0,0,0,0-0.1
		l0-0.3h0C45.8,46.7,45.5,46.9,45,46.9z M45.8,45.9v-0.7c-0.1,0-0.2,0-0.3,0.1c-0.1,0.1-0.1,0.2-0.1,0.3c0,0.3,0.1,0.4,0.2,0.4
		C45.7,46.1,45.8,46,45.8,45.9C45.8,46,45.8,46,45.8,45.9z"/>
</g>
<g>
	<path d="M16.9,45.6c0,0.5-0.1,0.9-0.4,1.1s-0.6,0.3-1,0.3c-0.5,0-0.8-0.1-1-0.3c-0.2-0.2-0.4-0.5-0.4-1.1c0-0.5,0.1-0.9,0.4-1
		s0.6-0.3,1-0.3c0.5,0,0.8,0.1,1,0.3C16.7,44.8,16.9,45.1,16.9,45.6z"/>
</g>
<g>
	<path d="M35.1,88.6c0,0.2,0,0.3-0.1,0.3C34.9,89,34.8,89,34.7,89c-0.1,0-0.3,0-0.3-0.1c-0.2,0-0.2-0.1-0.2-0.3c0-0.2,0-0.3,0.1-0.3
		c0.1-0.1,0.2-0.1,0.3-0.1s0.3,0,0.3,0.1C35.1,88.3,35.1,88.4,35.1,88.6z"/>
</g>
<g>
	<polyline class="st3" points="15.1,39.7 16.7,38.1 15.1,36.4 	"/>
	<polyline class="st3" points="12.9,39.7 14.5,38.1 12.9,36.4 	"/>
</g>
<g>
	<polyline class="st4" points="34.8,85.6 35.2,85.2 34.8,84.7 	"/>
	<polyline class="st4" points="34.3,85.6 34.7,85.2 34.3,84.7 	"/>
</g>
<g class="st2">
	<path d="M36.9,86.2c-0.1,0-0.2,0-0.3,0s-0.3,0-0.4,0c-0.1,0-0.1-0.1-0.1-0.1c0,0,0.1-0.4,0.3-0.9c0.2-0.6,0.3-0.9,0.3-1
		c0,0,0.1,0,0.2-0.1c0.2,0,0.3,0,0.5,0s0.3,0,0.3,0.1c0.4,1.3,0.6,1.9,0.6,1.9s0,0,0,0.1c-0.1,0-0.2,0.1-0.3,0.1
		c-0.4,0-0.5,0-0.5-0.1l0-0.2H37l0,0.2C36.9,86.1,36.9,86.2,36.9,86.2z M37.2,85.3l0-0.5h-0.1L37,85.3H37.2z"/>
	<path d="M38.6,86.2c0,0-0.1-0.1-0.2-0.1s-0.1-0.1-0.1-0.2c-0.1-0.1-0.1-0.3-0.1-0.6c0-0.1,0-0.3,0.1-0.4c0-0.1,0.1-0.2,0.2-0.3
		c0.1-0.1,0.1-0.1,0.2-0.2c0.1-0.1,0.3-0.1,0.4-0.1c0.2,0,0.4,0,0.5,0.1s0.1,0.1,0.1,0.2s0,0.2,0,0.3c0,0.1-0.1,0.1-0.1,0.1
		c0,0-0.1,0-0.1-0.1S39.2,85,39.2,85s-0.1,0-0.1,0.1c0,0,0,0.1,0,0.3c0,0.1,0,0.2,0,0.3c0,0,0.1,0.1,0.1,0.1c0.1,0,0.1,0,0.2-0.1
		c0.1,0,0.1-0.1,0.1-0.1c0,0,0.1,0,0.1,0.1s0.1,0.2,0.1,0.2c0,0.1-0.1,0.2-0.2,0.2s-0.3,0.1-0.5,0.1C38.9,86.3,38.7,86.2,38.6,86.2z
		"/>
	<path d="M40.7,84v2.1c0,0-0.1,0-0.2,0.1c-0.1,0-0.2,0-0.4,0s-0.2,0-0.2,0s-0.1,0-0.1-0.1v-2.1c0,0,0.1-0.1,0.2-0.1s0.2-0.1,0.4-0.1
		C40.6,83.9,40.7,83.9,40.7,84z"/>
	<path d="M41.3,83.9c0.1,0,0.2,0,0.3,0.1s0.1,0.1,0.1,0.2c0,0.2-0.1,0.3-0.4,0.3s-0.4-0.1-0.4-0.3C40.9,84,41,83.9,41.3,83.9z
		 M41.7,84.7v1.5c0,0-0.1,0-0.2,0.1s-0.2,0-0.4,0s-0.2,0-0.2,0s-0.1,0-0.1-0.1v-1.4c0,0,0.1-0.1,0.2-0.1c0.1,0,0.2-0.1,0.4-0.1
		C41.6,84.5,41.7,84.6,41.7,84.7z"/>
	<path d="M44.7,85.2v0.9c0,0-0.1,0-0.2,0.1c-0.1,0-0.2,0-0.4,0s-0.2,0-0.2,0s-0.1,0-0.1-0.1v-0.8c0-0.3,0-0.4-0.1-0.4c0,0,0,0,0,0
		c0,0,0,0,0,0.1v1.2c0,0-0.1,0-0.2,0.1c-0.1,0-0.2,0-0.4,0s-0.2,0-0.2,0s-0.1,0-0.1-0.1v-0.8c0-0.2,0-0.4,0-0.4c0,0,0,0-0.1,0
		c0,0-0.1,0-0.1,0.1v1.2c0,0-0.1,0-0.2,0.1c-0.1,0-0.2,0-0.4,0s-0.2,0-0.2,0s-0.1,0-0.1-0.1v-1.5c0,0,0.1-0.1,0.2-0.1
		s0.2-0.1,0.4-0.1s0.2,0,0.2,0.1l0,0.1h0c0.1-0.1,0.2-0.2,0.3-0.2c0.1,0,0.1,0,0.2,0c0.2,0,0.3,0.1,0.4,0.3c0-0.1,0.1-0.1,0.2-0.2
		c0.1-0.1,0.2-0.1,0.3-0.1c0.2,0,0.3,0.1,0.4,0.2C44.6,84.8,44.7,85,44.7,85.2z"/>
	<path d="M45.5,86.3c-0.2,0-0.3,0-0.4-0.1c0,0-0.1-0.1-0.1-0.2c0-0.1,0-0.2,0-0.2s0-0.2,0.1-0.2c0-0.1,0.1-0.1,0.2-0.2
		c0.1,0,0.1-0.1,0.2-0.1c0.1,0,0.3-0.1,0.4-0.1h0.1c0-0.1,0-0.1-0.1-0.2c0,0-0.1,0-0.1,0s-0.1,0-0.2,0c-0.1,0-0.1,0.1-0.2,0.1
		c0,0-0.1,0-0.1,0c0,0-0.1,0-0.1-0.1C45,84.9,45,84.8,45,84.7c0,0,0-0.1,0.1-0.1c0.1,0,0.2-0.1,0.3-0.1c0.1,0,0.3-0.1,0.4-0.1
		s0.2,0,0.3,0c0.1,0,0.2,0,0.2,0.1c0.1,0,0.1,0.1,0.1,0.1s0.1,0.1,0.1,0.1c0,0,0,0.1,0,0.2c0,0.1,0,0.2,0,0.3v0.9c0,0-0.1,0-0.2,0.1
		c-0.1,0-0.2,0-0.3,0c-0.1,0-0.2,0-0.2,0c0,0,0,0-0.1,0s0,0,0,0l0-0.2h0C45.8,86.2,45.7,86.3,45.5,86.3z M45.9,85.8v-0.4
		c-0.1,0-0.1,0-0.1,0.1s0,0.1,0,0.1C45.7,85.8,45.7,85.8,45.9,85.8C45.8,85.8,45.8,85.8,45.9,85.8C45.8,85.8,45.9,85.8,45.9,85.8z"
		/>
	<path d="M47.6,86.5L47.6,86.5c-0.1,0-0.1,0-0.1-0.1v-0.2c-0.4-0.1-0.6-0.4-0.6-0.9c0-0.1,0-0.3,0.1-0.4c0-0.1,0.1-0.2,0.2-0.3
		c0.1-0.1,0.1-0.1,0.2-0.2c0.1-0.1,0.3-0.1,0.4-0.1c0.2,0,0.4,0,0.5,0.1s0.1,0.1,0.1,0.2s0,0.2,0,0.3c0,0.1-0.1,0.1-0.1,0.1
		c0,0-0.1,0-0.1-0.1c-0.1,0-0.2-0.1-0.2-0.1c-0.1,0-0.1,0-0.1,0.1s0,0.1,0,0.3c0,0.1,0,0.2,0,0.3c0,0,0.1,0.1,0.1,0.1
		c0.1,0,0.1,0,0.2-0.1s0.1-0.1,0.1-0.1c0,0,0.1,0,0.1,0.1s0.1,0.2,0.1,0.2c0,0.1,0,0.2-0.1,0.2s-0.2,0.1-0.4,0.1v0
		c0.2,0,0.3,0.1,0.3,0.2c0,0.1,0,0.1-0.1,0.2s-0.1,0.1-0.2,0.1c-0.1,0-0.1,0-0.2,0c0,0,0,0,0,0c0,0,0-0.1,0-0.1S47.5,86.6,47.6,86.5
		c0.1,0.1,0.1,0.1,0.1,0C47.7,86.5,47.7,86.5,47.6,86.5z"/>
	<path d="M49.1,86.3c-0.2,0-0.3,0-0.4-0.1c0,0-0.1-0.1-0.1-0.2c0-0.1,0-0.2,0-0.2s0-0.2,0.1-0.2s0.1-0.1,0.2-0.2
		c0.1,0,0.1-0.1,0.2-0.1c0.1,0,0.3-0.1,0.4-0.1h0.1c0-0.1,0-0.1-0.1-0.2c0,0-0.1,0-0.1,0c0,0-0.1,0-0.2,0c-0.1,0-0.1,0.1-0.2,0.1
		c0,0-0.1,0-0.1,0c0,0-0.1,0-0.1-0.1c-0.1-0.1-0.1-0.2-0.1-0.3c0,0,0-0.1,0.1-0.1c0.1,0,0.2-0.1,0.3-0.1c0.1,0,0.3-0.1,0.4-0.1
		s0.2,0,0.3,0c0.1,0,0.2,0,0.2,0.1c0.1,0,0.1,0.1,0.2,0.1s0.1,0.1,0.1,0.1c0,0,0,0.1,0,0.2c0,0.1,0,0.2,0,0.3v0.9c0,0-0.1,0-0.2,0.1
		c-0.1,0-0.2,0-0.3,0c-0.1,0-0.2,0-0.2,0c0,0,0,0-0.1,0c0,0,0,0,0,0l0-0.2h0C49.4,86.2,49.3,86.3,49.1,86.3z M50,84.3
		c-0.1,0.1-0.2,0.1-0.3,0.1s-0.2,0-0.3-0.1c-0.1,0-0.2-0.1-0.2-0.1c0,0-0.1,0-0.2,0.1c-0.1,0-0.2,0.1-0.2,0.1c0,0-0.1,0-0.1-0.1
		s-0.1-0.1-0.1-0.2c0,0,0.1-0.1,0.2-0.1c0.1-0.1,0.2-0.1,0.3-0.1c0.1,0,0.2,0,0.3,0.1c0.1,0,0.2,0.1,0.2,0.1c0,0,0.1,0,0.1-0.1
		s0.1-0.1,0.2-0.1s0.1,0,0.1,0.1c0,0.1,0.1,0.1,0.1,0.2C50.1,84.2,50.1,84.2,50,84.3z M49.5,85.8v-0.4c-0.1,0-0.1,0-0.1,0.1
		c0,0,0,0.1,0,0.1C49.3,85.8,49.3,85.8,49.5,85.8C49.4,85.8,49.4,85.8,49.5,85.8C49.5,85.8,49.5,85.8,49.5,85.8z"/>
	<path d="M51.4,86.3c-0.1,0-0.3,0-0.4,0c-0.1,0-0.2-0.1-0.3-0.1c-0.2-0.1-0.3-0.4-0.3-0.7c0-0.3,0.1-0.5,0.3-0.7
		c0.2-0.1,0.4-0.2,0.7-0.2c0.1,0,0.2,0,0.3,0c0.1,0,0.2,0,0.3,0.1s0.2,0.1,0.2,0.1c0.1,0.1,0.1,0.1,0.1,0.3s0.1,0.2,0.1,0.4
		c0,0.3-0.1,0.5-0.3,0.7C51.9,86.2,51.7,86.3,51.4,86.3z M51.3,85.7c0,0.1,0,0.1,0,0.1c0,0,0,0,0.1,0c0,0,0,0,0.1,0c0,0,0-0.1,0-0.1
		c0-0.1,0-0.2,0-0.3c0-0.1,0-0.2,0-0.3c0-0.1,0-0.1,0-0.1s0-0.1,0-0.1c0,0,0,0-0.1,0s0,0-0.1,0s0,0.1,0,0.1c0,0.1,0,0.2,0,0.3
		S51.3,85.6,51.3,85.7z"/>
</g>
<g>
	<circle class="st5" cx="34.7" cy="91.1" r="0.5"/>
	<polyline class="st5" points="34.7,90.9 34.7,91.1 34.8,91.2 	"/>
</g>
<g class="st2">
	<path d="M36.3,91.5c0-0.1,0.1-0.1,0.2-0.2c0.1-0.1,0.2-0.1,0.2-0.1c0,0,0.1-0.1,0.1-0.2c0,0,0-0.1,0-0.1c0,0-0.1,0-0.1,0
		c-0.1,0-0.1,0-0.1,0.1c0,0,0,0.1,0,0.1h-0.2c0-0.1,0-0.2,0-0.2c0.1-0.1,0.2-0.2,0.3-0.2c0.1,0,0.2,0,0.3,0.1S37,90.9,37,91
		c0,0.1,0,0.1-0.1,0.2c0,0-0.1,0.1-0.2,0.1l-0.1,0.1c-0.1,0-0.1,0.1-0.1,0.1c0,0,0,0,0,0.1H37v0.2h-0.7
		C36.3,91.6,36.3,91.5,36.3,91.5z"/>
	<path d="M37.8,90.8c0.1,0.1,0.1,0.2,0.1,0.4c0,0.2,0,0.3-0.1,0.4c-0.1,0.1-0.1,0.1-0.3,0.1s-0.2,0-0.3-0.1
		c-0.1-0.1-0.1-0.2-0.1-0.4c0-0.2,0-0.3,0.1-0.4c0.1-0.1,0.1-0.1,0.3-0.1S37.7,90.7,37.8,90.8z M37.4,91.5c0,0.1,0.1,0.1,0.1,0.1
		s0.1,0,0.1-0.1c0-0.1,0-0.2,0-0.3c0-0.1,0-0.2,0-0.3c0-0.1-0.1-0.1-0.1-0.1s-0.1,0-0.1,0.1s0,0.2,0,0.3
		C37.3,91.3,37.4,91.4,37.4,91.5z"/>
	<path d="M38.7,90.6H39l0.4,1.1h-0.2L39,91.5h-0.4l-0.1,0.2h-0.2L38.7,90.6z M38.7,91.3H39l-0.1-0.4L38.7,91.3z"/>
	<path d="M40,91.4c0,0,0,0.1,0,0.1c0,0.1,0.1,0.1,0.1,0.1c0,0,0.1,0,0.1,0s0-0.1,0-0.1c0-0.1,0-0.1-0.1-0.1c0,0-0.1,0-0.2,0v-0.1
		c0.1,0,0.1,0,0.1,0c0,0,0.1-0.1,0.1-0.1c0,0,0-0.1,0-0.1c0,0-0.1,0-0.1,0c0,0-0.1,0-0.1,0c0,0,0,0.1,0,0.1h-0.2c0-0.1,0-0.1,0-0.2
		c0,0,0-0.1,0.1-0.1c0,0,0.1,0,0.1-0.1c0,0,0.1,0,0.1,0c0.1,0,0.2,0,0.2,0.1c0.1,0.1,0.1,0.1,0.1,0.2c0,0.1,0,0.1-0.1,0.2
		c0,0,0,0-0.1,0.1c0,0,0,0,0.1,0c0.1,0,0.1,0.1,0.1,0.2c0,0.1,0,0.2-0.1,0.2c-0.1,0.1-0.2,0.1-0.3,0.1c-0.1,0-0.3,0-0.3-0.1
		c0-0.1,0-0.1-0.1-0.2H40z"/>
	<path d="M41.3,90.8c0.1,0.1,0.1,0.2,0.1,0.4c0,0.2,0,0.3-0.1,0.4s-0.1,0.1-0.3,0.1c-0.1,0-0.2,0-0.3-0.1c-0.1-0.1-0.1-0.2-0.1-0.4
		c0-0.2,0-0.3,0.1-0.4c0.1-0.1,0.1-0.1,0.3-0.1C41.1,90.6,41.2,90.7,41.3,90.8z M40.8,91.5c0,0.1,0.1,0.1,0.1,0.1
		c0.1,0,0.1,0,0.1-0.1c0-0.1,0-0.2,0-0.3c0-0.1,0-0.2,0-0.3c0-0.1-0.1-0.1-0.1-0.1c-0.1,0-0.1,0-0.1,0.1c0,0.1,0,0.2,0,0.3
		C40.8,91.3,40.8,91.4,40.8,91.5z"/>
	<path d="M42.6,90.6H43v1.1h-0.2V91c0,0,0,0,0-0.1c0,0,0-0.1,0-0.1l-0.2,0.9h-0.2l-0.2-0.9c0,0,0,0,0,0.1c0,0,0,0.1,0,0.1v0.7h-0.2
		v-1.1h0.3l0.2,0.8L42.6,90.6z"/>
	<path d="M43.4,91.7h-0.2v-1.1h0.2V91.7z"/>
	<path d="M43.6,90.6h0.2l0.4,0.8v-0.8h0.2v1.1h-0.2l-0.4-0.8v0.8h-0.2V90.6z"/>
</g>
<g class="st2">
	<path d="M37.1,88.7c0,0.1,0,0.1-0.1,0.2l0.1,0.1L37,89.1l-0.1-0.1c0,0-0.1,0-0.1,0.1c0,0-0.1,0-0.2,0c-0.1,0-0.3,0-0.3-0.1
		c-0.1-0.1-0.2-0.2-0.2-0.4c0-0.2,0.1-0.3,0.2-0.4c0.1-0.1,0.2-0.1,0.3-0.1c0.1,0,0.3,0,0.4,0.1c0.1,0.1,0.2,0.2,0.2,0.4
		C37.1,88.5,37.1,88.6,37.1,88.7z M36.7,88.8C36.7,88.8,36.7,88.8,36.7,88.8l-0.1-0.1l0.1-0.1l0.1,0.1c0,0,0-0.1,0-0.1
		c0,0,0-0.1,0-0.1c0-0.1,0-0.2-0.1-0.3c0-0.1-0.1-0.1-0.2-0.1c-0.1,0-0.2,0-0.2,0.1s-0.1,0.2-0.1,0.3c0,0.1,0,0.3,0.1,0.3
		C36.5,88.8,36.5,88.8,36.7,88.8C36.6,88.8,36.6,88.8,36.7,88.8z"/>
	<path d="M37.3,87.9h0.2v0.7c0,0.1,0,0.1,0,0.2c0,0.1,0.1,0.1,0.2,0.1c0.1,0,0.1,0,0.2-0.1c0,0,0-0.1,0-0.2v-0.7h0.2v0.7
		c0,0.1,0,0.2-0.1,0.3C38,89,37.9,89,37.7,89s-0.3-0.1-0.4-0.2c0-0.1-0.1-0.2-0.1-0.3V87.9z"/>
	<path d="M39.2,88.1h-0.6v0.2h0.5v0.2h-0.5v0.3h0.6V89h-0.8v-1.1h0.8V88.1z"/>
	<path d="M39.6,89h-0.2v-1.1h0.2V89z"/>
	<path d="M40.5,87.9c0,0,0.1,0,0.1,0.1c0,0,0,0.1,0.1,0.1c0,0,0,0.1,0,0.1c0,0.1,0,0.1,0,0.2c0,0-0.1,0.1-0.1,0.1c0,0,0.1,0,0.1,0.1
		c0,0,0,0.1,0,0.2v0.1c0,0,0,0.1,0,0.1c0,0,0,0,0,0.1v0h-0.2c0,0,0,0,0-0.1c0,0,0-0.1,0-0.1l0-0.1c0-0.1,0-0.1,0-0.1
		c0,0-0.1,0-0.1,0H40V89h-0.2v-1.1h0.5C40.4,87.9,40.4,87.9,40.5,87.9z M40,88.1v0.3h0.2c0,0,0.1,0,0.1,0c0,0,0.1-0.1,0.1-0.1
		c0-0.1,0-0.1-0.1-0.1c0,0-0.1,0-0.1,0H40z"/>
	<path d="M41.7,88.9C41.6,89,41.5,89,41.3,89s-0.3,0-0.4-0.1c-0.1-0.1-0.2-0.3-0.2-0.4c0-0.2,0.1-0.3,0.2-0.4
		c0.1-0.1,0.2-0.1,0.4-0.1s0.3,0,0.4,0.1c0.1,0.1,0.2,0.2,0.2,0.4C41.9,88.6,41.8,88.8,41.7,88.9z M41.6,88.7
		c0.1-0.1,0.1-0.2,0.1-0.3s0-0.2-0.1-0.3s-0.1-0.1-0.2-0.1c-0.1,0-0.2,0-0.2,0.1c-0.1,0.1-0.1,0.2-0.1,0.3c0,0.1,0,0.2,0.1,0.3
		c0.1,0.1,0.1,0.1,0.2,0.1C41.4,88.8,41.5,88.8,41.6,88.7z"/>
	<path d="M42,88.8l0.6-0.7H42v-0.2h0.8v0.2l-0.6,0.7h0.6V89H42V88.8z"/>
	<path d="M43.6,87.9h0.3l0.4,1.1H44l-0.1-0.2h-0.4L43.5,89h-0.2L43.6,87.9z M43.6,88.6h0.3l-0.1-0.4L43.6,88.6z"/>
	<path d="M45.1,87.9c0,0,0.1,0,0.1,0.1c0,0,0,0.1,0.1,0.1c0,0,0,0.1,0,0.1c0,0.1,0,0.1,0,0.2c0,0-0.1,0.1-0.1,0.1c0,0,0.1,0,0.1,0.1
		c0,0,0,0.1,0,0.2v0.1c0,0,0,0.1,0,0.1c0,0,0,0,0,0.1v0H45c0,0,0,0,0-0.1c0,0,0-0.1,0-0.1l0-0.1c0-0.1,0-0.1,0-0.1c0,0-0.1,0-0.1,0
		h-0.2V89h-0.2v-1.1h0.5C45,87.9,45,87.9,45.1,87.9z M44.6,88.1v0.3h0.2c0,0,0.1,0,0.1,0c0,0,0.1-0.1,0.1-0.1c0-0.1,0-0.1-0.1-0.1
		c0,0-0.1,0-0.1,0H44.6z"/>
	<path d="M45.8,87.9H46l0.4,1.1h-0.2l-0.1-0.2h-0.4L45.6,89h-0.2L45.8,87.9z M45.8,88.6H46l-0.1-0.4L45.8,88.6z"/>
	<path d="M46.6,87.9h0.2l0.4,0.8v-0.8h0.2V89h-0.2l-0.4-0.8V89h-0.2V87.9z"/>
	<path d="M47.6,89v-1.1h0.2v0.4h0.4v-0.4h0.2V89h-0.2v-0.5h-0.4V89H47.6z"/>
	<path d="M49,87.9h0.3l0.4,1.1h-0.2l-0.1-0.2H49L48.9,89h-0.2L49,87.9z M49,88.6h0.3l-0.1-0.4L49,88.6z"/>
</g>
<polyline class="st1" points="32.1,72.6 28.7,72.6 28.7,86.8 32.4,86.8 "/>
<g transform="translate(0,-952.36218)">
	<path d="M9.9,952.4c-5.5,0-9.9,4.5-9.9,9.9v105.1c0,5.5,4.5,9.9,9.9,9.9h56.8c5.5,0,9.9-4.5,9.9-9.9V962.3c0-5.5-4.5-9.9-9.9-9.9
		L9.9,952.4L9.9,952.4z M8.9,957h58.8c2.4,0,4.3,1.9,4.3,4.3v5.3H4.7v-5.3C4.7,958.9,6.5,957,8.9,957z M4.7,970.2h67.3v86.5H4.7
		V970.2z M4.7,1060.5h67.3v7.9c0,2.4-1.9,4.3-4.3,4.3H8.9c-2.4,0-4.3-1.9-4.3-4.3L4.7,1060.5z M25.6,1064.5"/>
</g>
<rect x="4.8" y="17.9" class="st6" width="67.3" height="12"/>
<g>
	<polyline class="st7" points="61.8,26.6 64.4,23.9 61.8,21.2 	"/>
	<polyline class="st7" points="58.2,26.6 60.9,23.9 58.2,21.2 	"/>
</g>
<g>
	<polyline class="st7" points="15.2,21.2 12.6,23.9 15.2,26.6 	"/>
	<polyline class="st7" points="18.8,21.2 16.1,23.9 18.8,26.6 	"/>
</g>
<g>
	<g>
		<path class="st8" d="M54.5,67.1c0,0-1.4,0-1.4,1.4v6.8c0,0,0,1.4,1.4,1.4h9c0,0,1.4,0,1.4-1.4v-6.8c0,0,0-1.4-1.4-1.4H54.5z"/>
		<path class="st1" d="M53.4,66.1c0,0-1.4,0-1.4,1.4v6.8c0,0,0,1.4,1.4,1.4h9c0,0,1.4,0,1.4-1.4v-6.8c0,0,0-1.4-1.4-1.4H53.4z"/>
		<g class="st2">
			<path class="st9" d="M54.7,69.6c0,0-0.1,0.1-0.2,0.3c-0.1,0.1-0.2,0.2-0.2,0.4c0,0.1-0.1,0.2-0.1,0.4c0,0.1-0.1,0.3-0.1,0.4h-0.3
				c0-0.3,0.1-0.6,0.3-0.9c0.1-0.2,0.2-0.3,0.3-0.4h-0.8l0-0.3h1.2V69.6z"/>
			<path class="st9" d="M55,69.8v-0.2c0.1,0,0.2,0,0.2,0c0.1,0,0.1,0,0.2-0.1c0,0,0-0.1,0.1-0.1c0,0,0-0.1,0-0.1h0.3V71h-0.3v-1.1
				H55z"/>
			<path class="st9" d="M56.3,69.5c0.1-0.1,0.2-0.2,0.4-0.2c0.3,0,0.4,0.1,0.5,0.3c0.1,0.1,0.1,0.3,0.1,0.5c0,0.2,0,0.4-0.1,0.5
				C57.1,70.9,57,71,56.7,71c-0.1,0-0.2,0-0.3-0.1c-0.1-0.1-0.2-0.2-0.2-0.3h0.3c0,0,0,0.1,0.1,0.1s0.1,0,0.1,0
				c0.1,0,0.2-0.1,0.2-0.2c0-0.1,0-0.2,0-0.3c0,0-0.1,0.1-0.1,0.1c-0.1,0-0.1,0.1-0.2,0.1c-0.1,0-0.2,0-0.3-0.1s-0.2-0.2-0.2-0.4
				C56.2,69.7,56.2,69.6,56.3,69.5z M56.9,70.1c0.1,0,0.1-0.1,0.1-0.2c0-0.1,0-0.2-0.1-0.2c0-0.1-0.1-0.1-0.2-0.1
				c-0.1,0-0.1,0-0.1,0c-0.1,0-0.1,0.1-0.1,0.2c0,0.1,0,0.2,0.1,0.2s0.1,0.1,0.2,0.1C56.8,70.2,56.8,70.2,56.9,70.1z"/>
			<path class="st9" d="M58.7,70.2c-0.1,0.1-0.2,0.1-0.4,0.1h-0.3V71h-0.3v-1.7h0.7c0.2,0,0.3,0,0.4,0.1c0.1,0.1,0.1,0.2,0.1,0.4
				C58.8,70,58.8,70.2,58.7,70.2z M58.4,69.6c0,0-0.1-0.1-0.2-0.1h-0.3v0.5h0.3c0.1,0,0.1,0,0.2-0.1c0,0,0.1-0.1,0.1-0.2
				C58.5,69.7,58.5,69.7,58.4,69.6z"/>
			<path class="st9" d="M59,70.2h0.6v0.3H59V70.2z"/>
			<path class="st9" d="M59.9,69.8v-0.2c0.1,0,0.2,0,0.2,0c0.1,0,0.1,0,0.2-0.1c0,0,0-0.1,0.1-0.1c0,0,0-0.1,0-0.1h0.3V71h-0.3v-1.1
				H59.9z"/>
			<path class="st9" d="M62.1,69.5c0.1,0.1,0.1,0.4,0.1,0.6c0,0.3,0,0.5-0.1,0.6C62,70.9,61.9,71,61.7,71s-0.4-0.1-0.4-0.2
				c-0.1-0.1-0.1-0.4-0.1-0.6c0-0.3,0-0.5,0.1-0.6c0.1-0.1,0.2-0.2,0.4-0.2S62,69.4,62.1,69.5z M61.5,70.6c0,0.1,0.1,0.2,0.2,0.2
				c0.1,0,0.2,0,0.2-0.2c0-0.1,0-0.2,0-0.4c0-0.2,0-0.3,0-0.4c0-0.1-0.1-0.1-0.2-0.1c-0.1,0-0.2,0-0.2,0.1c0,0.1,0,0.2,0,0.4
				C61.4,70.4,61.4,70.5,61.5,70.6z"/>
		</g>
	</g>
	<g>
		<path class="st6" d="M54.5,52.8c0,0-1.4,0-1.4,1.4V61c0,0,0,1.4,1.4,1.4h9c0,0,1.4,0,1.4-1.4v-6.8c0,0,0-1.4-1.4-1.4H54.5z"/>
		<path class="st1" d="M53.4,51.6c0,0-1.4,0-1.4,1.4v6.8c0,0,0,1.4,1.4,1.4h9c0,0,1.4,0,1.4-1.4V53c0,0,0-1.4-1.4-1.4H53.4z"/>
		<g class="st2">
			<path class="st9" d="M53.7,55.1c0.1-0.1,0.2-0.2,0.4-0.2c0.3,0,0.4,0.1,0.5,0.3c0.1,0.1,0.1,0.3,0.1,0.5c0,0.2,0,0.4-0.1,0.5
				c-0.1,0.3-0.3,0.4-0.5,0.4c-0.1,0-0.2,0-0.3-0.1c-0.1-0.1-0.2-0.2-0.2-0.3h0.3c0,0,0,0.1,0.1,0.1s0.1,0,0.1,0
				c0.1,0,0.2-0.1,0.2-0.2c0-0.1,0-0.2,0-0.3c0,0-0.1,0.1-0.1,0.1C54.2,56,54.1,56,54,56c-0.1,0-0.2,0-0.3-0.1s-0.2-0.2-0.2-0.4
				C53.5,55.3,53.6,55.2,53.7,55.1z M54.2,55.7c0.1,0,0.1-0.1,0.1-0.2c0-0.1,0-0.2-0.1-0.2c0-0.1-0.1-0.1-0.2-0.1
				c-0.1,0-0.1,0-0.1,0c-0.1,0-0.1,0.1-0.1,0.2c0,0.1,0,0.2,0.1,0.2s0.1,0.1,0.2,0.1C54.2,55.8,54.2,55.7,54.2,55.7z"/>
			<path class="st9" d="M55.2,56.1c0,0.1,0,0.1,0,0.2c0,0.1,0.1,0.1,0.2,0.1c0.1,0,0.1,0,0.2-0.1s0.1-0.1,0.1-0.2
				c0-0.1,0-0.2-0.1-0.2c0,0-0.1,0-0.2,0v-0.2c0.1,0,0.2,0,0.2,0c0.1,0,0.1-0.1,0.1-0.2c0-0.1,0-0.1-0.1-0.2c0,0-0.1-0.1-0.2-0.1
				c-0.1,0-0.1,0-0.2,0.1c0,0-0.1,0.1-0.1,0.2h-0.3c0-0.1,0-0.2,0-0.2c0-0.1,0.1-0.1,0.1-0.2c0,0,0.1-0.1,0.2-0.1c0.1,0,0.1,0,0.2,0
				c0.2,0,0.3,0,0.4,0.1c0.1,0.1,0.1,0.2,0.1,0.3c0,0.1,0,0.2-0.1,0.2c0,0-0.1,0.1-0.1,0.1c0,0,0.1,0,0.1,0.1
				c0.1,0.1,0.1,0.2,0.1,0.3c0,0.1,0,0.3-0.1,0.4c-0.1,0.1-0.2,0.2-0.4,0.2c-0.2,0-0.4-0.1-0.5-0.2c0-0.1-0.1-0.2-0.1-0.3H55.2z"/>
			<path class="st9" d="M56.2,55.8c0-0.1,0.1-0.1,0.2-0.2c-0.1-0.1-0.1-0.1-0.2-0.2c0-0.1,0-0.1,0-0.2c0-0.1,0-0.2,0.1-0.3
				c0.1-0.1,0.2-0.1,0.4-0.1s0.3,0,0.4,0.1c0.1,0.1,0.1,0.2,0.1,0.3c0,0.1,0,0.1,0,0.2c0,0.1-0.1,0.1-0.2,0.2c0.1,0,0.1,0.1,0.2,0.2
				c0,0.1,0.1,0.2,0.1,0.3c0,0.1-0.1,0.3-0.2,0.4c-0.1,0.1-0.2,0.1-0.4,0.1s-0.3,0-0.4-0.1c-0.1-0.1-0.1-0.2-0.1-0.4
				C56.1,56,56.1,55.9,56.2,55.8z M56.5,56.3c0,0,0.1,0.1,0.2,0.1s0.1,0,0.2-0.1s0.1-0.1,0.1-0.2c0-0.1,0-0.1-0.1-0.2
				s-0.1-0.1-0.2-0.1c-0.1,0-0.1,0-0.2,0.1s-0.1,0.1-0.1,0.2C56.5,56.2,56.5,56.2,56.5,56.3z M56.5,55.5c0,0,0.1,0.1,0.2,0.1
				s0.1,0,0.2-0.1s0.1-0.1,0.1-0.1c0-0.1,0-0.1-0.1-0.2c0,0-0.1-0.1-0.2-0.1s-0.1,0-0.2,0.1c0,0-0.1,0.1-0.1,0.2
				C56.5,55.4,56.5,55.5,56.5,55.5z"/>
			<path class="st9" d="M57.7,55.1c0.1-0.1,0.3-0.2,0.5-0.2c0.3,0,0.5,0.1,0.6,0.3c0.1,0.1,0.1,0.2,0.1,0.3h-0.4
				c0-0.1-0.1-0.1-0.1-0.2c-0.1-0.1-0.2-0.1-0.3-0.1c-0.1,0-0.2,0.1-0.3,0.2c-0.1,0.1-0.1,0.2-0.1,0.4c0,0.2,0,0.3,0.1,0.4
				c0.1,0.1,0.2,0.1,0.3,0.1c0.1,0,0.2,0,0.3-0.1c0,0,0.1-0.1,0.1-0.2h0.3c0,0.2-0.1,0.3-0.2,0.4c-0.1,0.1-0.3,0.2-0.5,0.2
				c-0.2,0-0.4-0.1-0.6-0.2s-0.2-0.4-0.2-0.6C57.5,55.4,57.5,55.2,57.7,55.1z"/>
			<path class="st9" d="M59.1,55.8h0.6v0.3h-0.6V55.8z"/>
			<path class="st9" d="M60,55.4v-0.2c0.1,0,0.2,0,0.2,0c0.1,0,0.1,0,0.2-0.1c0,0,0-0.1,0.1-0.1c0,0,0-0.1,0-0.1h0.3v1.6h-0.3v-1.1
				H60z"/>
			<path class="st9" d="M62.2,55.1c0.1,0.1,0.1,0.4,0.1,0.6c0,0.3,0,0.5-0.1,0.6c-0.1,0.1-0.2,0.2-0.4,0.2c-0.2,0-0.4-0.1-0.4-0.2
				c-0.1-0.1-0.1-0.4-0.1-0.6c0-0.3,0-0.5,0.1-0.6c0.1-0.1,0.2-0.2,0.4-0.2C62,54.9,62.1,55,62.2,55.1z M61.6,56.2
				c0,0.1,0.1,0.2,0.2,0.2c0.1,0,0.2,0,0.2-0.2c0-0.1,0-0.2,0-0.4c0-0.2,0-0.3,0-0.4c0-0.1-0.1-0.1-0.2-0.1c-0.1,0-0.2,0-0.2,0.1
				s0,0.2,0,0.4C61.5,55.9,61.5,56.1,61.6,56.2z"/>
		</g>
	</g>
</g>
<line class="st10" x1="13.6" y1="99.4" x2="64.6" y2="99.4"/>
<g>
	<g>
		<path class="st6" d="M14.8,52.8c0,0-1.4,0-1.4,1.4V61c0,0,0,1.4,1.4,1.4h9c0,0,1.4,0,1.4-1.4v-6.8c0,0,0-1.4-1.4-1.4H14.8z"/>
		<path class="st1" d="M13.8,51.6c0,0-1.4,0-1.4,1.4v6.8c0,0,0,1.4,1.4,1.4h9c0,0,1.4,0,1.4-1.4V53c0,0,0-1.4-1.4-1.4H13.8z"/>
		<g class="st2">
			<path class="st9" d="M14.7,55.3C14.7,55.3,14.7,55.3,14.7,55.3c-0.1-0.1-0.1-0.2-0.2-0.2c-0.1,0-0.2,0.1-0.2,0.2
				c0,0.1,0,0.2-0.1,0.3c0,0,0.1-0.1,0.1-0.1c0.1,0,0.1,0,0.2,0c0.1,0,0.3,0,0.4,0.1C15,55.7,15,55.9,15,56s0,0.3-0.1,0.4
				c-0.1,0.1-0.2,0.2-0.4,0.2c-0.2,0-0.4-0.1-0.5-0.3c-0.1-0.1-0.1-0.3-0.1-0.5c0-0.1,0-0.2,0-0.3c0-0.1,0.1-0.3,0.1-0.4
				c0-0.1,0.1-0.1,0.2-0.2c0.1,0,0.2-0.1,0.3-0.1c0.2,0,0.3,0,0.4,0.1c0.1,0.1,0.1,0.2,0.2,0.3H14.7z M14.3,56.3
				c0,0.1,0.1,0.1,0.2,0.1c0.1,0,0.1,0,0.2-0.1c0-0.1,0.1-0.1,0.1-0.2c0-0.1,0-0.2-0.1-0.2c0-0.1-0.1-0.1-0.2-0.1
				c-0.1,0-0.1,0-0.1,0c-0.1,0-0.1,0.1-0.1,0.2C14.2,56.1,14.3,56.2,14.3,56.3z"/>
			<path class="st9" d="M16,55.3C16,55.3,16,55.3,16,55.3c-0.1-0.1-0.1-0.2-0.2-0.2c-0.1,0-0.2,0.1-0.2,0.2c0,0.1,0,0.2-0.1,0.3
				c0,0,0.1-0.1,0.1-0.1c0.1,0,0.1,0,0.2,0c0.1,0,0.3,0,0.4,0.1c0.1,0.1,0.1,0.2,0.1,0.4s0,0.3-0.1,0.4c-0.1,0.1-0.2,0.2-0.4,0.2
				c-0.2,0-0.4-0.1-0.5-0.3c-0.1-0.1-0.1-0.3-0.1-0.5c0-0.1,0-0.2,0-0.3c0-0.1,0.1-0.3,0.1-0.4c0-0.1,0.1-0.1,0.2-0.2
				c0.1,0,0.2-0.1,0.3-0.1c0.2,0,0.3,0,0.4,0.1c0.1,0.1,0.1,0.2,0.2,0.3H16z M15.6,56.3c0,0.1,0.1,0.1,0.2,0.1c0.1,0,0.1,0,0.2-0.1
				c0-0.1,0.1-0.1,0.1-0.2c0-0.1,0-0.2-0.1-0.2c0-0.1-0.1-0.1-0.2-0.1c-0.1,0-0.1,0-0.1,0c-0.1,0-0.1,0.1-0.1,0.2
				C15.5,56.1,15.6,56.2,15.6,56.3z"/>
			<path class="st9" d="M16.6,55.1c0.1-0.1,0.2-0.2,0.4-0.2c0.3,0,0.4,0.1,0.5,0.3c0.1,0.1,0.1,0.3,0.1,0.5c0,0.2,0,0.4-0.1,0.5
				c-0.1,0.3-0.3,0.4-0.5,0.4c-0.1,0-0.2,0-0.3-0.1c-0.1-0.1-0.2-0.2-0.2-0.3h0.3c0,0,0,0.1,0.1,0.1s0.1,0,0.1,0
				c0.1,0,0.2-0.1,0.2-0.2c0-0.1,0-0.2,0-0.3c0,0-0.1,0.1-0.1,0.1C17.2,56,17.1,56,17,56c-0.1,0-0.2,0-0.3-0.1s-0.2-0.2-0.2-0.4
				C16.5,55.3,16.5,55.2,16.6,55.1z M17.2,55.7c0.1,0,0.1-0.1,0.1-0.2c0-0.1,0-0.2-0.1-0.2c0-0.1-0.1-0.1-0.2-0.1
				c-0.1,0-0.1,0-0.1,0c-0.1,0-0.1,0.1-0.1,0.2c0,0.1,0,0.2,0.1,0.2c0,0,0.1,0.1,0.2,0.1C17.1,55.8,17.2,55.7,17.2,55.7z"/>
			<path class="st9" d="M18.4,54.9h0.4l0.6,1.7H19l-0.1-0.3h-0.6l-0.1,0.3h-0.4L18.4,54.9z M18.4,55.9h0.4l-0.2-0.7L18.4,55.9z"/>
			<path class="st9" d="M19.5,55.8h0.6v0.3h-0.6V55.8z"/>
			<path class="st9" d="M20.3,55.4v-0.2c0.1,0,0.2,0,0.2,0c0.1,0,0.1,0,0.2-0.1c0,0,0-0.1,0.1-0.1c0,0,0-0.1,0-0.1h0.3v1.6h-0.3
				v-1.1H20.3z"/>
			<path class="st9" d="M22.6,55.1c0.1,0.1,0.1,0.4,0.1,0.6c0,0.3,0,0.5-0.1,0.6c-0.1,0.1-0.2,0.2-0.4,0.2c-0.2,0-0.4-0.1-0.4-0.2
				c-0.1-0.1-0.1-0.4-0.1-0.6c0-0.3,0-0.5,0.1-0.6s0.2-0.2,0.4-0.2C22.3,54.9,22.5,55,22.6,55.1z M21.9,56.2c0,0.1,0.1,0.2,0.2,0.2
				s0.2,0,0.2-0.2s0-0.2,0-0.4c0-0.2,0-0.3,0-0.4s-0.1-0.1-0.2-0.1s-0.2,0-0.2,0.1c0,0.1,0,0.2,0,0.4C21.9,55.9,21.9,56.1,21.9,56.2
				z"/>
		</g>
	</g>
	<g>
		<path class="st6" d="M14.8,67.1c0,0-1.4,0-1.4,1.4v6.8c0,0,0,1.4,1.4,1.4h9c0,0,1.4,0,1.4-1.4v-6.8c0,0,0-1.4-1.4-1.4H14.8z"/>
		<path class="st1" d="M13.8,66.1c0,0-1.4,0-1.4,1.4v6.8c0,0,0,1.4,1.4,1.4h9c0,0,1.4,0,1.4-1.4v-6.8c0,0,0-1.4-1.4-1.4H13.8z"/>
		<g class="st2">
			<path class="st9" d="M15.1,69.6c0,0-0.1,0.1-0.2,0.3c-0.1,0.1-0.2,0.2-0.2,0.4c0,0.1-0.1,0.2-0.1,0.4c0,0.1-0.1,0.3-0.1,0.4h-0.3
				c0-0.3,0.1-0.6,0.3-0.9c0.1-0.2,0.2-0.3,0.3-0.4h-0.8l0-0.3h1.2V69.6z"/>
			<path class="st9" d="M16.4,69.6c0,0-0.1,0.1-0.2,0.3c-0.1,0.1-0.2,0.2-0.2,0.4c0,0.1-0.1,0.2-0.1,0.4c0,0.1-0.1,0.3-0.1,0.4h-0.3
				c0-0.3,0.1-0.6,0.3-0.9c0.1-0.2,0.2-0.3,0.3-0.4h-0.8l0-0.3h1.2V69.6z"/>
			<path class="st9" d="M16.5,70.3c0-0.1,0.1-0.1,0.2-0.2c-0.1-0.1-0.1-0.1-0.2-0.2c0-0.1,0-0.1,0-0.2c0-0.1,0-0.2,0.1-0.3
				c0.1-0.1,0.2-0.1,0.4-0.1c0.2,0,0.3,0,0.4,0.1c0.1,0.1,0.1,0.2,0.1,0.3c0,0.1,0,0.1,0,0.2c0,0.1-0.1,0.1-0.2,0.2
				c0.1,0,0.1,0.1,0.2,0.2c0,0.1,0.1,0.2,0.1,0.3c0,0.1-0.1,0.3-0.2,0.4C17.4,71,17.2,71,17,71c-0.2,0-0.3,0-0.4-0.1
				c-0.1-0.1-0.1-0.2-0.1-0.4C16.5,70.4,16.5,70.3,16.5,70.3z M16.9,70.7c0,0,0.1,0.1,0.2,0.1s0.1,0,0.2-0.1s0.1-0.1,0.1-0.2
				c0-0.1,0-0.1-0.1-0.2s-0.1-0.1-0.2-0.1s-0.1,0-0.2,0.1s-0.1,0.1-0.1,0.2C16.8,70.6,16.8,70.6,16.9,70.7z M16.9,69.9
				c0,0,0.1,0.1,0.2,0.1c0.1,0,0.1,0,0.2-0.1s0.1-0.1,0.1-0.1c0-0.1,0-0.1-0.1-0.2c0,0-0.1-0.1-0.2-0.1c-0.1,0-0.1,0-0.2,0.1
				c0,0-0.1,0.1-0.1,0.2C16.9,69.8,16.9,69.9,16.9,69.9z"/>
			<path class="st9" d="M19,69.3c0.1,0,0.1,0.1,0.2,0.1c0,0,0.1,0.1,0.1,0.1c0,0.1,0,0.1,0,0.2c0,0.1,0,0.2-0.1,0.2
				c0,0.1-0.1,0.1-0.2,0.2c0.1,0,0.1,0.1,0.2,0.1c0,0.1,0,0.1,0,0.3v0.1c0,0.1,0,0.1,0,0.2c0,0,0,0.1,0.1,0.1v0h-0.4
				c0,0,0-0.1,0-0.1c0,0,0-0.1,0-0.1l0-0.2c0-0.1,0-0.2-0.1-0.2c0,0-0.1-0.1-0.2-0.1h-0.3V71h-0.3v-1.7h0.8
				C18.8,69.3,18.9,69.3,19,69.3z M18.2,69.6V70h0.4c0.1,0,0.1,0,0.2,0c0.1,0,0.1-0.1,0.1-0.2c0-0.1,0-0.2-0.1-0.2c0,0-0.1,0-0.2,0
				H18.2z"/>
			<path class="st9" d="M19.5,70.2h0.6v0.3h-0.6V70.2z"/>
			<path class="st9" d="M20.3,69.8v-0.2c0.1,0,0.2,0,0.2,0c0.1,0,0.1,0,0.2-0.1c0,0,0-0.1,0.1-0.1c0,0,0-0.1,0-0.1h0.3V71h-0.3v-1.1
				H20.3z"/>
			<path class="st9" d="M22.6,69.5c0.1,0.1,0.1,0.4,0.1,0.6c0,0.3,0,0.5-0.1,0.6c-0.1,0.1-0.2,0.2-0.4,0.2c-0.2,0-0.4-0.1-0.4-0.2
				c-0.1-0.1-0.1-0.4-0.1-0.6c0-0.3,0-0.5,0.1-0.6s0.2-0.2,0.4-0.2C22.3,69.3,22.5,69.4,22.6,69.5z M21.9,70.6
				c0,0.1,0.1,0.2,0.2,0.2s0.2,0,0.2-0.2s0-0.2,0-0.4c0-0.2,0-0.3,0-0.4s-0.1-0.1-0.2-0.1s-0.2,0-0.2,0.1c0,0.1,0,0.2,0,0.4
				C21.9,70.4,21.9,70.5,21.9,70.6z"/>
		</g>
	</g>
	<g>
		<path class="st8" d="M15,80.8c0,0-1.4,0-1.4,1.4V89c0,0,0,1.4,1.4,1.4h9c0,0,1.4,0,1.4-1.4v-6.8c0,0,0-1.4-1.4-1.4H15z"/>
		<path class="st1" d="M13.8,79.7c0,0-1.4,0-1.4,1.4v6.8c0,0,0,1.4,1.4,1.4h9c0,0,1.4,0,1.4-1.4v-6.8c0,0,0-1.4-1.4-1.4H13.8z"/>
		<g class="st2">
			<path class="st9" d="M14.4,84.1c0,0.1,0,0.1,0.1,0.2c0,0,0.1,0.1,0.2,0.1c0.1,0,0.1,0,0.2-0.1c0-0.1,0.1-0.1,0.1-0.2
				c0-0.1,0-0.2-0.1-0.2c0-0.1-0.1-0.1-0.2-0.1c0,0-0.1,0-0.1,0c-0.1,0-0.1,0.1-0.1,0.1l-0.3,0l0.1-0.9h0.9v0.3h-0.7l-0.1,0.4
				c0,0,0.1-0.1,0.1-0.1c0,0,0.1,0,0.2,0c0.1,0,0.3,0,0.4,0.1c0.1,0.1,0.2,0.2,0.2,0.4c0,0.2,0,0.3-0.1,0.4
				c-0.1,0.1-0.2,0.2-0.4,0.2c-0.2,0-0.3,0-0.4-0.1s-0.2-0.2-0.2-0.4H14.4z"/>
			<path class="st9" d="M16.4,83.1c0.1,0.1,0.1,0.4,0.1,0.6c0,0.3,0,0.5-0.1,0.6c-0.1,0.1-0.2,0.2-0.4,0.2c-0.2,0-0.4-0.1-0.4-0.2
				c-0.1-0.1-0.1-0.4-0.1-0.6c0-0.3,0-0.5,0.1-0.6s0.2-0.2,0.4-0.2C16.1,82.9,16.3,83,16.4,83.1z M15.7,84.2c0,0.1,0.1,0.2,0.2,0.2
				s0.2,0,0.2-0.2s0-0.2,0-0.4c0-0.2,0-0.3,0-0.4s-0.1-0.1-0.2-0.1s-0.2,0-0.2,0.1c0,0.1,0,0.2,0,0.4C15.7,84,15.7,84.1,15.7,84.2z"
				/>
			<path class="st9" d="M16.7,83.9c0-0.1,0.1-0.1,0.2-0.2c-0.1-0.1-0.1-0.1-0.2-0.2c0-0.1,0-0.1,0-0.2c0-0.1,0-0.2,0.1-0.3
				c0.1-0.1,0.2-0.1,0.4-0.1c0.2,0,0.3,0,0.4,0.1c0.1,0.1,0.1,0.2,0.1,0.3c0,0.1,0,0.1,0,0.2c0,0.1-0.1,0.1-0.2,0.2
				c0.1,0,0.1,0.1,0.2,0.2c0,0.1,0.1,0.2,0.1,0.3c0,0.1-0.1,0.3-0.2,0.4c-0.1,0.1-0.2,0.1-0.4,0.1c-0.2,0-0.3,0-0.4-0.1
				c-0.1-0.1-0.1-0.2-0.1-0.4C16.6,84,16.7,84,16.7,83.9z M17,84.3c0,0,0.1,0.1,0.2,0.1s0.1,0,0.2-0.1s0.1-0.1,0.1-0.2
				c0-0.1,0-0.1-0.1-0.2s-0.1-0.1-0.2-0.1s-0.1,0-0.2,0.1S17,84,17,84.1C17,84.2,17,84.3,17,84.3z M17.1,83.5c0,0,0.1,0.1,0.2,0.1
				c0.1,0,0.1,0,0.2-0.1s0.1-0.1,0.1-0.1c0-0.1,0-0.1-0.1-0.2c0,0-0.1-0.1-0.2-0.1c-0.1,0-0.1,0-0.2,0.1c0,0-0.1,0.1-0.1,0.2
				C17,83.5,17,83.5,17.1,83.5z"/>
			<path class="st9" d="M18,82.9h0.4v1.4h0.8v0.3H18V82.9z"/>
			<path class="st9" d="M19.3,83.8H20v0.3h-0.6V83.8z"/>
			<path class="st9" d="M20.2,83.5v-0.2c0.1,0,0.2,0,0.2,0c0.1,0,0.1,0,0.2-0.1c0,0,0-0.1,0.1-0.1c0,0,0-0.1,0-0.1h0.3v1.6h-0.3
				v-1.1H20.2z"/>
			<path class="st9" d="M22.4,83.1c0.1,0.1,0.1,0.4,0.1,0.6c0,0.3,0,0.5-0.1,0.6c-0.1,0.1-0.2,0.2-0.4,0.2c-0.2,0-0.4-0.1-0.4-0.2
				c-0.1-0.1-0.1-0.4-0.1-0.6c0-0.3,0-0.5,0.1-0.6s0.2-0.2,0.4-0.2C22.2,82.9,22.4,83,22.4,83.1z M21.8,84.2c0,0.1,0.1,0.2,0.2,0.2
				s0.2,0,0.2-0.2s0-0.2,0-0.4c0-0.2,0-0.3,0-0.4s-0.1-0.1-0.2-0.1s-0.2,0-0.2,0.1c0,0.1,0,0.2,0,0.4C21.8,84,21.8,84.1,21.8,84.2z"
				/>
		</g>
	</g>
</g>
<g>
	<path class="st8" d="M35.1,67.1c0,0-1.4,0-1.4,1.4v6.8c0,0,0,1.4,1.4,1.4h9c0,0,1.4,0,1.4-1.4v-6.8c0,0,0-1.4-1.4-1.4H35.1z"/>
	<path class="st1" d="M33.8,66.1c0,0-1.4,0-1.4,1.4v6.8c0,0,0,1.4,1.4,1.4h9c0,0,1.4,0,1.4-1.4v-6.8c0,0,0-1.4-1.4-1.4H33.8z"/>
	<g class="st2">
		<path class="st9" d="M34.3,69.5c0.1-0.1,0.2-0.2,0.4-0.2c0.3,0,0.4,0.1,0.5,0.3c0.1,0.1,0.1,0.3,0.1,0.5c0,0.2,0,0.4-0.1,0.5
			C35.2,70.9,35,71,34.7,71c-0.1,0-0.2,0-0.3-0.1c-0.1-0.1-0.2-0.2-0.2-0.3h0.3c0,0,0,0.1,0.1,0.1s0.1,0,0.1,0
			c0.1,0,0.2-0.1,0.2-0.2c0-0.1,0-0.2,0-0.3c0,0-0.1,0.1-0.1,0.1c-0.1,0-0.1,0.1-0.2,0.1c-0.1,0-0.2,0-0.3-0.1s-0.2-0.2-0.2-0.4
			C34.2,69.7,34.2,69.6,34.3,69.5z M34.9,70.1c0.1,0,0.1-0.1,0.1-0.2c0-0.1,0-0.2-0.1-0.2c0-0.1-0.1-0.1-0.2-0.1c-0.1,0-0.1,0-0.1,0
			c-0.1,0-0.1,0.1-0.1,0.2c0,0.1,0,0.2,0.1,0.2c0,0,0.1,0.1,0.2,0.1C34.8,70.2,34.8,70.2,34.9,70.1z"/>
		<path class="st9" d="M36.6,69.6c0,0-0.1,0.1-0.2,0.3c-0.1,0.1-0.2,0.2-0.2,0.4c0,0.1-0.1,0.2-0.1,0.4c0,0.1-0.1,0.3-0.1,0.4h-0.3
			c0-0.3,0.1-0.6,0.3-0.9c0.1-0.2,0.2-0.3,0.3-0.4h-0.8l0-0.3h1.2V69.6z"/>
		<path class="st9" d="M36.8,70.3c0-0.1,0.1-0.1,0.2-0.2c-0.1-0.1-0.1-0.1-0.2-0.2c0-0.1,0-0.1,0-0.2c0-0.1,0-0.2,0.1-0.3
			c0.1-0.1,0.2-0.1,0.4-0.1c0.2,0,0.3,0,0.4,0.1c0.1,0.1,0.1,0.2,0.1,0.3c0,0.1,0,0.1,0,0.2c0,0.1-0.1,0.1-0.2,0.2
			c0.1,0,0.1,0.1,0.2,0.2c0,0.1,0.1,0.2,0.1,0.3c0,0.1-0.1,0.3-0.2,0.4C37.7,71,37.5,71,37.3,71c-0.2,0-0.3,0-0.4-0.1
			c-0.1-0.1-0.1-0.2-0.1-0.4C36.8,70.4,36.8,70.3,36.8,70.3z M37.2,70.7c0,0,0.1,0.1,0.2,0.1s0.1,0,0.2-0.1s0.1-0.1,0.1-0.2
			c0-0.1,0-0.1-0.1-0.2s-0.1-0.1-0.2-0.1s-0.1,0-0.2,0.1s-0.1,0.1-0.1,0.2C37.1,70.6,37.1,70.6,37.2,70.7z M37.2,69.9
			c0,0,0.1,0.1,0.2,0.1c0.1,0,0.1,0,0.2-0.1s0.1-0.1,0.1-0.1c0-0.1,0-0.1-0.1-0.2c0,0-0.1-0.1-0.2-0.1c-0.1,0-0.1,0-0.2,0.1
			c0,0-0.1,0.1-0.1,0.2C37.1,69.8,37.2,69.9,37.2,69.9z"/>
		<path class="st9" d="M38.4,70.3L38.4,70.3c0,0.2,0,0.3,0,0.3s0.1,0.1,0.2,0.1c0.1,0,0.1,0,0.2-0.1c0,0,0-0.1,0-0.2v-1.2h0.4v1.2
			c0,0.1,0,0.3-0.1,0.3C39,70.9,38.8,71,38.6,71c-0.2,0-0.4-0.1-0.4-0.2c-0.1-0.1-0.1-0.3-0.1-0.5v0H38.4z"/>
		<path class="st9" d="M39.4,70.2H40v0.3h-0.6V70.2z"/>
		<path class="st9" d="M40.2,69.8v-0.2c0.1,0,0.2,0,0.2,0c0.1,0,0.1,0,0.2-0.1c0,0,0-0.1,0.1-0.1c0,0,0-0.1,0-0.1H41V71h-0.3v-1.1
			H40.2z"/>
		<path class="st9" d="M42.5,69.5c0.1,0.1,0.1,0.4,0.1,0.6c0,0.3,0,0.5-0.1,0.6C42.4,70.9,42.2,71,42,71c-0.2,0-0.4-0.1-0.4-0.2
			c-0.1-0.1-0.1-0.4-0.1-0.6c0-0.3,0-0.5,0.1-0.6c0.1-0.1,0.2-0.2,0.4-0.2C42.2,69.3,42.4,69.4,42.5,69.5z M41.8,70.6
			c0,0.1,0.1,0.2,0.2,0.2c0.1,0,0.2,0,0.2-0.2c0-0.1,0-0.2,0-0.4c0-0.2,0-0.3,0-0.4c0-0.1-0.1-0.1-0.2-0.1c-0.1,0-0.2,0-0.2,0.1
			s0,0.2,0,0.4C41.8,70.4,41.8,70.5,41.8,70.6z"/>
	</g>
</g>
<g>
	<path class="st6" d="M35.1,52.8c0,0-1.4,0-1.4,1.4V61c0,0,0,1.4,1.4,1.4h9c0,0,1.4,0,1.4-1.4v-6.8c0,0,0-1.4-1.4-1.4H35.1z"/>
	<path class="st1" d="M33.8,51.6c0,0-1.4,0-1.4,1.4v6.8c0,0,0,1.4,1.4,1.4h9c0,0,1.4,0,1.4-1.4V53c0,0,0-1.4-1.4-1.4H33.8z"/>
	<g class="st2">
		<path class="st9" d="M34.1,55.1c0.1-0.1,0.2-0.2,0.4-0.2c0.3,0,0.4,0.1,0.5,0.3c0.1,0.1,0.1,0.3,0.1,0.5c0,0.2,0,0.4-0.1,0.5
			c-0.1,0.3-0.3,0.4-0.5,0.4c-0.1,0-0.2,0-0.3-0.1c-0.1-0.1-0.2-0.2-0.2-0.3h0.3c0,0,0,0.1,0.1,0.1s0.1,0,0.1,0
			c0.1,0,0.2-0.1,0.2-0.2c0-0.1,0-0.2,0-0.3c0,0-0.1,0.1-0.1,0.1c-0.1,0-0.1,0.1-0.2,0.1c-0.1,0-0.2,0-0.3-0.1S34,55.7,34,55.5
			C34,55.3,34,55.2,34.1,55.1z M34.7,55.7c0.1,0,0.1-0.1,0.1-0.2c0-0.1,0-0.2-0.1-0.2c0-0.1-0.1-0.1-0.2-0.1c-0.1,0-0.1,0-0.1,0
			c-0.1,0-0.1,0.1-0.1,0.2c0,0.1,0,0.2,0.1,0.2c0,0,0.1,0.1,0.2,0.1C34.6,55.8,34.7,55.7,34.7,55.7z"/>
		<path class="st9" d="M36.1,55.3C36.1,55.3,36.1,55.3,36.1,55.3c-0.1-0.1-0.1-0.2-0.2-0.2c-0.1,0-0.2,0.1-0.2,0.2
			c0,0.1,0,0.2-0.1,0.3c0,0,0.1-0.1,0.1-0.1c0.1,0,0.1,0,0.2,0c0.1,0,0.3,0,0.4,0.1c0.1,0.1,0.1,0.2,0.1,0.4s0,0.3-0.1,0.4
			c-0.1,0.1-0.2,0.2-0.4,0.2c-0.2,0-0.4-0.1-0.5-0.3c-0.1-0.1-0.1-0.3-0.1-0.5c0-0.1,0-0.2,0-0.3c0-0.1,0.1-0.3,0.1-0.4
			c0-0.1,0.1-0.1,0.2-0.2c0.1,0,0.2-0.1,0.3-0.1c0.2,0,0.3,0,0.4,0.1c0.1,0.1,0.1,0.2,0.2,0.3H36.1z M35.7,56.3
			c0,0.1,0.1,0.1,0.2,0.1c0.1,0,0.1,0,0.2-0.1c0-0.1,0.1-0.1,0.1-0.2c0-0.1,0-0.2-0.1-0.2c0-0.1-0.1-0.1-0.2-0.1c-0.1,0-0.1,0-0.1,0
			c-0.1,0-0.1,0.1-0.1,0.2C35.6,56.1,35.6,56.2,35.7,56.3z"/>
		<path class="st9" d="M37.7,55.2c0,0-0.1,0.1-0.2,0.3c-0.1,0.1-0.2,0.2-0.2,0.4c0,0.1-0.1,0.2-0.1,0.4c0,0.1-0.1,0.3-0.1,0.4h-0.3
			c0-0.3,0.1-0.6,0.3-0.9c0.1-0.2,0.2-0.3,0.3-0.4h-0.8l0-0.3h1.2V55.2z"/>
		<path class="st9" d="M38.5,54.9h0.4l0.6,1.7h-0.4L39,56.2h-0.6l-0.1,0.3h-0.4L38.5,54.9z M38.4,55.9h0.4l-0.2-0.7L38.4,55.9z"/>
		<path class="st9" d="M39.5,55.8h0.6v0.3h-0.6V55.8z"/>
		<path class="st9" d="M40.4,55.4v-0.2c0.1,0,0.2,0,0.2,0c0.1,0,0.1,0,0.2-0.1c0,0,0-0.1,0.1-0.1c0,0,0-0.1,0-0.1h0.3v1.6h-0.3v-1.1
			H40.4z"/>
		<path class="st9" d="M42.6,55.1c0.1,0.1,0.1,0.4,0.1,0.6c0,0.3,0,0.5-0.1,0.6c-0.1,0.1-0.2,0.2-0.4,0.2c-0.2,0-0.4-0.1-0.4-0.2
			c-0.1-0.1-0.1-0.4-0.1-0.6c0-0.3,0-0.5,0.1-0.6c0.1-0.1,0.2-0.2,0.4-0.2C42.4,54.9,42.6,55,42.6,55.1z M42,56.2
			c0,0.1,0.1,0.2,0.2,0.2c0.1,0,0.2,0,0.2-0.2c0-0.1,0-0.2,0-0.4c0-0.2,0-0.3,0-0.4c0-0.1-0.1-0.1-0.2-0.1c-0.1,0-0.2,0-0.2,0.1
			s0,0.2,0,0.4C42,55.9,42,56.1,42,56.2z"/>
	</g>
</g>
<line class="st11" x1="27.4" y1="114.2" x2="50.4" y2="114.2"/>
<g>
	<path class="st0" d="M32,23.2v2.5c0,0.1-0.2,0.1-0.5,0.1c-0.3,0-0.6,0.1-0.9,0.1s-0.5,0-0.6,0s-0.1-0.1-0.1-0.1v-2.5
		c0-0.2,0-0.4,0-0.5s0-0.1-0.1-0.2c0-0.1-0.1-0.2-0.2-0.2c-0.1,0-0.2,0.1-0.2,0.2v3.2c0,0.1-0.2,0.1-0.5,0.1s-0.6,0.1-0.9,0.1
		c-0.3,0-0.5,0-0.6,0c-0.1,0-0.1-0.1-0.1-0.1v-3.9c0-0.1,0.2-0.2,0.5-0.3c0.3-0.1,0.6-0.2,1-0.2s0.5,0.1,0.6,0.3l0.1,0.4h0.1
		c0.2-0.3,0.4-0.5,0.8-0.6c0.2,0,0.3-0.1,0.5-0.1c0.5,0,0.9,0.2,1.1,0.5C31.9,22,32,22.5,32,23.2z"/>
	<path class="st0" d="M32.6,26.8v-5.1c0-0.1,0.1-0.2,0.4-0.3s0.6-0.2,1-0.2c0.2,0,0.3,0,0.4,0.1c0.1,0,0.1,0.1,0.2,0.1
		c0,0,0.1,0.2,0.1,0.5h0.1c0,0,0.1-0.1,0.1-0.2c0.1-0.1,0.2-0.2,0.3-0.2s0.2-0.1,0.4-0.2c0.2-0.1,0.4-0.1,0.6-0.1
		c0.2,0,0.4,0,0.6,0.1c0.2,0.1,0.3,0.2,0.4,0.3c0.1,0.1,0.2,0.3,0.2,0.5c0.1,0.2,0.1,0.4,0.1,0.5c0,0.1,0,0.3,0,0.5
		c0,0.2,0,0.5,0,0.7c0,0.2,0,0.4-0.1,0.7c0,0.2-0.1,0.4-0.2,0.6c-0.1,0.2-0.2,0.3-0.3,0.4c-0.2,0.3-0.6,0.4-1.1,0.4
		c-0.2,0-0.3,0-0.5-0.1c-0.1-0.1-0.2-0.1-0.3-0.2c-0.1-0.1-0.2-0.3-0.2-0.4l0-0.1h-0.1l0.1,0.7v0.9c0,0.1-0.2,0.1-0.5,0.1
		S33.7,27,33.4,27s-0.5,0-0.6,0C32.6,27,32.6,26.9,32.6,26.8z M35.1,22.6c0-0.2-0.1-0.3-0.2-0.3s-0.2,0.1-0.2,0.2v2.1
		c0,0.1,0.1,0.2,0.2,0.2c0.2,0,0.3-0.4,0.3-1.2C35.2,23.1,35.2,22.8,35.1,22.6z"/>
	<path class="st0" d="M39.6,25.1c0,0.3-0.1,0.5-0.2,0.6c-0.1,0.1-0.4,0.2-0.6,0.2c-0.3,0-0.5-0.1-0.6-0.2s-0.2-0.3-0.2-0.6
		c0-0.3,0.1-0.5,0.2-0.6c0.1-0.1,0.4-0.2,0.6-0.2s0.5,0.1,0.6,0.2C39.5,24.6,39.6,24.8,39.6,25.1z"/>
	<path class="st0" d="M42.4,25.9c-0.9,0-1.5-0.1-1.9-0.3c-0.2-0.1-0.3-0.2-0.3-0.3c0-0.2,0.1-0.5,0.2-0.8c0.1-0.3,0.2-0.4,0.3-0.4
		c0.1,0,0.2,0.1,0.5,0.2s0.6,0.2,0.8,0.2s0.3,0,0.4,0c0.1,0,0.1-0.1,0.1-0.2s-0.1-0.1-0.2-0.2c-0.1,0-0.2-0.1-0.4-0.1
		s-0.3,0-0.5-0.1c-0.2,0-0.4-0.1-0.5-0.2s-0.3-0.2-0.4-0.4c-0.1-0.2-0.2-0.4-0.2-0.6c0-0.2,0-0.3,0-0.4s0.1-0.2,0.1-0.4
		s0.2-0.3,0.3-0.4c0.1-0.1,0.4-0.2,0.7-0.3c0.3-0.1,0.6-0.1,1-0.1s0.7,0,0.9,0s0.4,0.1,0.6,0.1c0.1,0,0.3,0.1,0.3,0.1
		c0.2,0.1,0.2,0.2,0.2,0.3c0,0.2-0.1,0.4-0.2,0.7c-0.1,0.3-0.3,0.4-0.4,0.4s-0.3,0-0.6-0.1c-0.3-0.1-0.5-0.1-0.6-0.1
		c-0.2,0-0.3,0.1-0.3,0.2c0,0.1,0.1,0.1,0.2,0.2c0.2,0,0.3,0.1,0.5,0.1c0.2,0,0.4,0.1,0.6,0.2c0.2,0.1,0.4,0.2,0.6,0.4
		c0.2,0.2,0.2,0.5,0.2,0.8C44.6,25.4,43.9,25.9,42.4,25.9z"/>
	<path class="st0" d="M45.1,26.8v-5.1c0-0.1,0.1-0.2,0.4-0.3c0.3-0.1,0.6-0.2,1-0.2c0.2,0,0.3,0,0.4,0.1c0.1,0,0.1,0.1,0.2,0.1
		c0,0,0.1,0.2,0.1,0.5h0.1c0,0,0.1-0.1,0.1-0.2c0.1-0.1,0.2-0.2,0.3-0.2s0.2-0.1,0.4-0.2c0.2-0.1,0.4-0.1,0.6-0.1
		c0.2,0,0.4,0,0.6,0.1c0.2,0.1,0.3,0.2,0.4,0.3c0.1,0.1,0.2,0.3,0.2,0.5c0.1,0.2,0.1,0.4,0.1,0.5c0,0.1,0,0.3,0,0.5
		c0,0.2,0,0.5,0,0.7c0,0.2,0,0.4-0.1,0.7c0,0.2-0.1,0.4-0.2,0.6c-0.1,0.2-0.2,0.3-0.3,0.4c-0.2,0.3-0.6,0.4-1.1,0.4
		c-0.2,0-0.3,0-0.5-0.1c-0.1-0.1-0.2-0.1-0.3-0.2c-0.1-0.1-0.2-0.3-0.2-0.4l0-0.1h-0.1l0.1,0.7v0.9c0,0.1-0.2,0.1-0.5,0.1
		S46.2,27,45.9,27s-0.5,0-0.6,0C45.1,27,45.1,26.9,45.1,26.8z M47.7,22.6c0-0.2-0.1-0.3-0.2-0.3c-0.1,0-0.2,0.1-0.2,0.2v2.1
		c0,0.1,0.1,0.2,0.2,0.2c0.2,0,0.3-0.4,0.3-1.2C47.7,23.1,47.7,22.8,47.7,22.6z"/>
</g>
</svg>
