<?xml version="1.0" encoding="utf-8"?>
<!-- Generator: Adobe Illustrator 19.2.1, SVG Export Plug-In . SVG Version: 6.00 Build 0)  -->
<svg version="1.1"
	 id="Layer_1" xmlns:cc="http://creativecommons.org/ns#" xmlns:dc="http://purl.org/dc/elements/1.1/" xmlns:inkscape="http://www.inkscape.org/namespaces/inkscape" xmlns:rdf="http://www.w3.org/1999/02/22-rdf-syntax-ns#" xmlns:sodipodi="http://sodipodi.sourceforge.net/DTD/sodipodi-0.dtd" xmlns:svg="http://www.w3.org/2000/svg"
	 xmlns="http://www.w3.org/2000/svg" xmlns:xlink="http://www.w3.org/1999/xlink" x="0px" y="0px" viewBox="0 0 76.7 125"
	 style="enable-background:new 0 0 76.7 125;" xml:space="preserve">
<style type="text/css">
	.st0{fill:#FFFFFF;}
	.st1{fill:#FF9400;}
	.st2{fill:none;stroke:#FFFFFF;stroke-width:0.8627;}
	.st3{enable-background:new    ;}
	.st4{fill:none;stroke:#FFFFFF;stroke-linecap:round;stroke-linejoin:round;}
	.st5{fill:none;stroke:#FFFFFF;stroke-width:0.5587;}
	.st6{fill:none;stroke:#FFFFFF;stroke-width:0.8;}
	.st7{fill:#A1EDFF;}
	.st8{fill:none;stroke:#1D1D1B;stroke-width:0.8312;stroke-linecap:round;stroke-miterlimit:3;}
	.st9{fill:#1D1D1B;}
	.st10{fill:none;stroke:#000000;stroke-width:0.4755;stroke-linecap:round;stroke-miterlimit:200;stroke-dasharray:1.8443,1.8443;}
	.st11{fill:none;stroke:#000000;stroke-width:3;stroke-linecap:round;stroke-miterlimit:10;}
</style>
<rect x="2.3" y="16.9" class="st0" width="71.7" height="87.5"/>
<g transform="translate(0,-952.36218)">
	<path d="M9.9,952.4c-5.5,0-9.9,4.5-9.9,9.9v105.1c0,5.5,4.5,9.9,9.9,9.9h56.8c5.5,0,9.9-4.5,9.9-9.9V962.3c0-5.5-4.5-9.9-9.9-9.9
		L9.9,952.4L9.9,952.4z M8.9,957h58.8c2.4,0,4.3,1.9,4.3,4.3v5.3H4.7v-5.3C4.7,958.9,6.5,957,8.9,957z M4.7,970.2h67.3v86.5H4.7
		V970.2z M4.7,1060.5h67.3v7.9c0,2.4-1.9,4.3-4.3,4.3H8.9c-2.4,0-4.3-1.9-4.3-4.3L4.7,1060.5z M25.6,1064.5"/>
</g>
<rect x="4.8" y="17.9" class="st1" width="67.3" height="12"/>
<rect x="22.8" y="20.8" class="st2" width="31.1" height="6.1"/>
<g class="st3">
	<path class="st0" d="M28.5,23.4H29L28.4,25h-0.4l-0.6-1.6h0.5l0.3,1.2L28.5,23.4z"/>
	<path class="st0" d="M29.8,24c0.1,0,0.1,0,0.2,0c0.1,0,0.1-0.1,0.1-0.1c0-0.1,0-0.1-0.1-0.1c0,0-0.1,0-0.2,0c-0.1,0-0.2,0-0.2,0.1
		c0,0,0,0.1-0.1,0.1h-0.4c0-0.1,0-0.3,0.1-0.3c0.1-0.1,0.3-0.2,0.6-0.2c0.2,0,0.3,0,0.5,0.1c0.1,0.1,0.2,0.2,0.2,0.4v0.7
		c0,0.1,0,0.1,0,0.2c0,0.1,0,0.1,0,0.1s0,0,0.1,0V25h-0.5c0,0,0-0.1,0-0.1s0-0.1,0-0.1c-0.1,0.1-0.1,0.1-0.2,0.2
		C29.8,25,29.7,25,29.6,25c-0.1,0-0.3,0-0.4-0.1c-0.1-0.1-0.1-0.2-0.1-0.4c0-0.2,0.1-0.3,0.2-0.4c0.1,0,0.2-0.1,0.4-0.1L29.8,24z
		 M30.1,24.2C30,24.2,30,24.2,30.1,24.2c-0.1,0.1-0.1,0.1-0.2,0.1l-0.1,0c-0.1,0-0.2,0-0.2,0.1c-0.1,0-0.1,0.1-0.1,0.2
		c0,0.1,0,0.1,0.1,0.2c0,0,0.1,0,0.1,0c0.1,0,0.2,0,0.3-0.1c0.1-0.1,0.1-0.1,0.1-0.3V24.2z"/>
	<path class="st0" d="M31.3,23.2h-0.4v-0.4h0.4V23.2z M30.9,23.4h0.4V25h-0.4V23.4z"/>
	<path class="st0" d="M33.9,23.5c0.1,0.1,0.2,0.3,0.2,0.6c0,0.3-0.1,0.5-0.2,0.6S33.6,25,33.4,25c-0.1,0-0.2,0-0.3-0.1
		c0,0-0.1-0.1-0.1-0.2v0.8h-0.4v-2.2h0.4v0.2c0-0.1,0.1-0.1,0.1-0.2c0.1-0.1,0.2-0.1,0.3-0.1C33.6,23.3,33.7,23.4,33.9,23.5z
		 M33.5,23.8c-0.1-0.1-0.1-0.1-0.3-0.1c-0.2,0-0.3,0.1-0.3,0.2c0,0.1,0,0.2,0,0.3c0,0.2,0,0.3,0.1,0.4c0.1,0,0.1,0.1,0.2,0.1
		c0.1,0,0.2,0,0.3-0.1c0.1-0.1,0.1-0.2,0.1-0.4C33.6,24,33.6,23.9,33.5,23.8z"/>
	<path class="st0" d="M35.2,23.3C35.2,23.3,35.3,23.3,35.2,23.3l0,0.4c0,0,0,0-0.1,0s0,0,0,0c-0.2,0-0.3,0.1-0.3,0.2
		c0,0.1,0,0.2,0,0.3V25h-0.4v-1.6h0.4v0.3c0.1-0.1,0.1-0.2,0.2-0.2C35,23.4,35.1,23.3,35.2,23.3C35.2,23.3,35.2,23.3,35.2,23.3z"/>
	<path class="st0" d="M36.2,24c0.1,0,0.1,0,0.2,0c0.1,0,0.1-0.1,0.1-0.1c0-0.1,0-0.1-0.1-0.1c0,0-0.1,0-0.2,0c-0.1,0-0.2,0-0.2,0.1
		c0,0,0,0.1-0.1,0.1h-0.4c0-0.1,0-0.3,0.1-0.3c0.1-0.1,0.3-0.2,0.6-0.2c0.2,0,0.3,0,0.5,0.1c0.1,0.1,0.2,0.2,0.2,0.4v0.7
		c0,0.1,0,0.1,0,0.2c0,0.1,0,0.1,0,0.1s0,0,0.1,0V25h-0.5c0,0,0-0.1,0-0.1s0-0.1,0-0.1c-0.1,0.1-0.1,0.1-0.2,0.2
		C36.1,25,36,25,35.9,25c-0.1,0-0.3,0-0.4-0.1c-0.1-0.1-0.1-0.2-0.1-0.4c0-0.2,0.1-0.3,0.2-0.4c0.1,0,0.2-0.1,0.4-0.1L36.2,24z
		 M36.4,24.2C36.4,24.2,36.4,24.2,36.4,24.2c-0.1,0.1-0.1,0.1-0.2,0.1l-0.1,0c-0.1,0-0.2,0-0.2,0.1c-0.1,0-0.1,0.1-0.1,0.2
		c0,0.1,0,0.1,0.1,0.2c0,0,0.1,0,0.1,0c0.1,0,0.2,0,0.3-0.1c0.1-0.1,0.1-0.1,0.1-0.3V24.2z"/>
	<path class="st0" d="M39.4,24.8C39.2,24.9,39,25,38.7,25s-0.5-0.1-0.6-0.2s-0.2-0.4-0.2-0.6c0-0.2,0.1-0.4,0.2-0.6s0.3-0.3,0.6-0.3
		s0.5,0.1,0.6,0.3s0.2,0.4,0.2,0.6C39.6,24.4,39.5,24.6,39.4,24.8z M39,24.5c0.1-0.1,0.1-0.2,0.1-0.4s0-0.3-0.1-0.4
		c-0.1-0.1-0.2-0.1-0.3-0.1s-0.2,0-0.3,0.1c-0.1,0.1-0.1,0.2-0.1,0.4s0,0.3,0.1,0.4c0.1,0.1,0.2,0.1,0.3,0.1S39,24.6,39,24.5z"/>
	<path class="st0" d="M41.1,23.4c0.1,0.1,0.2,0.2,0.2,0.4V25h-0.4v-1c0-0.1,0-0.1,0-0.2c0-0.1-0.1-0.1-0.2-0.1
		c-0.1,0-0.2,0.1-0.3,0.2c0,0.1,0,0.1,0,0.2V25h-0.4v-1.6h0.4v0.2c0.1-0.1,0.1-0.1,0.2-0.2c0.1-0.1,0.2-0.1,0.3-0.1
		C40.9,23.3,41,23.4,41.1,23.4z"/>
	<path class="st0" d="M42.5,23.4c0.1,0,0.1,0.1,0.2,0.2v-0.8h0.4V25h-0.4v-0.2c-0.1,0.1-0.1,0.2-0.2,0.2S42.4,25,42.2,25
		c-0.2,0-0.3-0.1-0.5-0.2c-0.1-0.2-0.2-0.3-0.2-0.6c0-0.3,0.1-0.5,0.2-0.6c0.1-0.2,0.3-0.2,0.5-0.2C42.4,23.3,42.5,23.3,42.5,23.4z
		 M42.6,24.5c0.1-0.1,0.1-0.2,0.1-0.3c0-0.2,0-0.3-0.1-0.4c-0.1-0.1-0.1-0.1-0.2-0.1c-0.1,0-0.2,0-0.3,0.1C42,23.9,42,24,42,24.2
		c0,0.1,0,0.3,0.1,0.4c0.1,0.1,0.1,0.1,0.3,0.1S42.6,24.6,42.6,24.5z"/>
	<path class="st0" d="M44.6,23.4c0.1,0,0.2,0.1,0.3,0.2c0.1,0.1,0.1,0.2,0.1,0.3c0,0.1,0,0.2,0,0.3h-1.2c0,0.2,0.1,0.3,0.2,0.3
		c0.1,0,0.1,0.1,0.2,0.1c0.1,0,0.2,0,0.2-0.1c0,0,0.1-0.1,0.1-0.1H45c0,0.1-0.1,0.2-0.2,0.3c-0.1,0.2-0.3,0.2-0.6,0.2
		c-0.2,0-0.4-0.1-0.6-0.2c-0.2-0.1-0.2-0.3-0.2-0.6c0-0.3,0.1-0.5,0.2-0.6s0.3-0.2,0.6-0.2C44.3,23.3,44.5,23.3,44.6,23.4z
		 M43.9,23.7c-0.1,0.1-0.1,0.1-0.1,0.2h0.7c0-0.1,0-0.2-0.1-0.3c-0.1-0.1-0.1-0.1-0.2-0.1C44.1,23.7,44,23.7,43.9,23.7z"/>
	<path class="st0" d="M45.5,22.9c0.1-0.1,0.3-0.1,0.4-0.1c0.2,0,0.4,0.1,0.5,0.2c0.1,0.1,0.2,0.3,0.2,0.5c0,0.1,0,0.2-0.1,0.3
		c0,0.1-0.1,0.1-0.2,0.2L46.2,24c-0.1,0-0.1,0.1-0.1,0.2c0,0,0,0.1,0,0.2h-0.4c0-0.2,0-0.3,0-0.3c0-0.1,0.1-0.1,0.2-0.2l0.1-0.1
		c0,0,0.1-0.1,0.1-0.1c0-0.1,0.1-0.1,0.1-0.2c0-0.1,0-0.1-0.1-0.2c0-0.1-0.1-0.1-0.2-0.1c-0.1,0-0.2,0-0.2,0.1
		c0,0.1-0.1,0.2-0.1,0.2h-0.4C45.2,23.2,45.3,23,45.5,22.9z M45.7,24.5h0.4V25h-0.4V24.5z"/>
</g>
<g>
	<polyline class="st4" points="61.8,26.6 64.4,23.9 61.8,21.2 	"/>
	<polyline class="st4" points="58.2,26.6 60.9,23.9 58.2,21.2 	"/>
</g>
<g>
	<circle class="st5" cx="14.9" cy="23" r="0.8"/>
	<path class="st6" d="M17.4,23.3c0-1.4-1.1-2.5-2.5-2.5s-2.5,1.1-2.5,2.5s2.5,3.6,2.5,3.6S17.4,24.7,17.4,23.3z"/>
</g>
<g class="st3">
	<path d="M15.1,40.4c-0.3,0-0.6,0.1-0.9,0.1s-0.5,0-0.6,0c-0.1,0-0.1-0.1-0.1-0.2V36c0-0.1,0.1-0.2,0.4-0.3s0.6-0.1,0.9-0.1
		c0.4,0,0.7,0.1,0.7,0.3v1.5h0.6V36c0-0.1,0.1-0.2,0.4-0.3s0.6-0.1,0.9-0.1c0.4,0,0.7,0.1,0.7,0.3v4.5c0,0.1-0.1,0.1-0.4,0.1
		c-0.3,0-0.6,0.1-0.9,0.1s-0.5,0-0.5,0c-0.1,0-0.1-0.1-0.1-0.2v-1.6h-0.6v1.6C15.5,40.3,15.4,40.4,15.1,40.4z"/>
	<path d="M20.4,38.9c0,0.3,0.1,0.5,0.4,0.5c0.2,0,0.4-0.1,0.7-0.2c0.3-0.1,0.4-0.2,0.4-0.2c0.1,0,0.2,0.1,0.4,0.4
		c0.1,0.3,0.2,0.5,0.2,0.6c0,0.2-0.2,0.3-0.6,0.4c-0.4,0.1-0.7,0.1-1.1,0.1s-0.7,0-0.9-0.1c-0.2-0.1-0.4-0.1-0.6-0.2
		c-0.2-0.1-0.3-0.2-0.4-0.3s-0.2-0.2-0.3-0.4s-0.1-0.2-0.1-0.4c0-0.2-0.1-0.4-0.1-0.6c0-0.8,0.2-1.4,0.7-1.8
		c0.2-0.2,0.5-0.3,0.7-0.3c0.3-0.1,0.6-0.1,1-0.1c1.2,0,1.8,0.4,1.8,1.2c0,0.9-0.7,1.3-2,1.3H20.4z M20.4,37.9v0.5
		c0.1,0,0.2-0.1,0.3-0.2s0.1-0.2,0.1-0.4c0-0.3-0.1-0.4-0.2-0.4C20.5,37.4,20.4,37.5,20.4,37.9z"/>
	<path d="M25,35.3v5c0,0.1-0.1,0.1-0.4,0.1c-0.3,0-0.5,0-0.8,0c-0.3,0-0.5,0-0.5,0c-0.1,0-0.1-0.1-0.1-0.1v-4.8
		c0-0.1,0.1-0.2,0.4-0.3c0.3-0.1,0.5-0.1,0.9-0.1C24.8,35,25,35.1,25,35.3z"/>
	<path d="M25.2,36.9c0,0,0.1-0.1,0.2-0.2c0.1-0.1,0.3-0.1,0.6-0.2s0.5-0.1,0.7-0.1c0.5,0,0.7,0.1,0.7,0.3l0.2,2.2h0.1l0.2-2.1
		c0-0.1,0.2-0.2,0.5-0.3c0.3-0.1,0.6-0.1,0.8-0.1c0.2,0,0.4,0,0.5,0.1s0.2,0.1,0.2,0.1c0,0,0,0.1,0,0.1s-0.1,0.3-0.3,0.7
		c-0.2,0.4-0.6,1.4-1.2,2.9c0,0.1-0.4,0.2-1.1,0.2c-0.2,0-0.4,0-0.4,0c-0.1,0-0.1-0.1-0.1-0.1c-0.3-0.8-0.6-1.6-1-2.3
		C25.4,37.3,25.2,36.9,25.2,36.9z"/>
	<path d="M32.1,38.9c0,0.3,0.1,0.5,0.4,0.5c0.2,0,0.4-0.1,0.7-0.2c0.3-0.1,0.4-0.2,0.4-0.2c0.1,0,0.2,0.1,0.4,0.4
		c0.1,0.3,0.2,0.5,0.2,0.6c0,0.2-0.2,0.3-0.6,0.4c-0.4,0.1-0.7,0.1-1.1,0.1s-0.7,0-0.9-0.1c-0.2-0.1-0.4-0.1-0.6-0.2
		c-0.2-0.1-0.3-0.2-0.4-0.3s-0.2-0.2-0.3-0.4s-0.1-0.2-0.1-0.4c0-0.2-0.1-0.4-0.1-0.6c0-0.8,0.2-1.4,0.7-1.8
		c0.2-0.2,0.5-0.3,0.7-0.3c0.3-0.1,0.6-0.1,1-0.1c1.2,0,1.8,0.4,1.8,1.2c0,0.9-0.7,1.3-2,1.3H32.1z M32,37.9v0.5
		c0.1,0,0.2-0.1,0.3-0.2s0.1-0.2,0.1-0.4c0-0.3-0.1-0.4-0.2-0.4C32.1,37.4,32,37.5,32,37.9z"/>
	<path d="M37.4,40.4c-0.1,0.1-0.3,0.1-0.6,0.1c-0.3,0-0.5,0-0.7-0.1c-0.2,0-0.4-0.1-0.6-0.2c-0.3-0.2-0.5-0.7-0.5-1.4v-1.1h-0.4
		c-0.1,0-0.1-0.1-0.1-0.2c0-0.1-0.1-0.3-0.1-0.4c0-0.2,0-0.4,0.1-0.5c0.1-0.1,0.1-0.2,0.2-0.2h0.2v-0.8c0-0.1,0.1-0.3,0.4-0.3
		c0.3-0.1,0.6-0.1,0.8-0.1c0.4,0,0.6,0.1,0.6,0.3v1h0.5c0.1,0,0.2,0.2,0.2,0.5c0,0.2,0,0.4-0.1,0.6c-0.1,0.1-0.1,0.2-0.2,0.2h-0.4
		V39c0,0.1,0.1,0.2,0.2,0.3c0.1,0.1,0.2,0.1,0.3,0.1s0.1,0,0.2,0.1c0,0.1,0,0.2,0,0.4C37.6,40.1,37.5,40.3,37.4,40.4z"/>
	<path d="M39,35c0.3,0,0.5,0,0.7,0.1c0.2,0.1,0.3,0.3,0.3,0.5c0,0.4-0.3,0.6-1,0.6s-1-0.2-1-0.6S38.4,35,39,35z M40,36.9v3.5
		c0,0.1-0.1,0.1-0.4,0.1c-0.3,0-0.5,0-0.8,0s-0.5,0-0.5,0c-0.1,0-0.1-0.1-0.1-0.1V37c0-0.1,0.1-0.2,0.4-0.3c0.3-0.1,0.6-0.2,0.9-0.2
		C39.8,36.5,40,36.6,40,36.9z"/>
	<path d="M41.8,40.5c-0.4,0-0.8-0.1-1-0.3c-0.1-0.1-0.2-0.2-0.3-0.4c-0.1-0.2-0.1-0.4-0.1-0.6c0-0.2,0.1-0.4,0.2-0.6
		c0.1-0.2,0.2-0.3,0.4-0.4s0.3-0.2,0.5-0.2c0.3-0.1,0.6-0.1,1-0.1h0.2c0-0.2-0.1-0.3-0.2-0.4c-0.1,0-0.1,0-0.3,0
		c-0.1,0-0.3,0-0.4,0.1s-0.3,0.1-0.4,0.2c-0.1,0.1-0.2,0.1-0.2,0.1c-0.1,0-0.2-0.1-0.3-0.3c-0.1-0.2-0.2-0.4-0.2-0.6
		c0-0.1,0.1-0.1,0.3-0.2c0.2-0.1,0.4-0.2,0.7-0.3c0.3-0.1,0.6-0.1,0.9-0.1s0.6,0,0.8,0.1s0.4,0.1,0.5,0.2s0.3,0.2,0.3,0.3
		c0.1,0.1,0.2,0.2,0.2,0.3c0,0.1,0.1,0.2,0.1,0.4c0,0.2,0,0.4,0,0.6v2.1c0,0.1-0.1,0.1-0.4,0.1c-0.2,0-0.5,0-0.7,0
		c-0.2,0-0.4,0-0.5,0c-0.1,0-0.1,0-0.1,0c0,0,0-0.1,0-0.1l-0.1-0.4h-0.1C42.7,40.3,42.4,40.5,41.8,40.5z M42.8,39.4v-0.8
		c-0.1,0-0.2,0.1-0.3,0.2s-0.1,0.2-0.1,0.3c0,0.3,0.1,0.5,0.2,0.5c0.1,0,0.1,0,0.1,0S42.8,39.4,42.8,39.4z"/>
	<path d="M45.2,40.1c0-0.1,0-0.2,0-0.4c0-0.2,0-0.3,0.1-0.4c0.1-0.1,0.3-0.2,0.6-0.2s0.5,0.1,0.6,0.2c0.1,0.1,0.2,0.3,0.2,0.5
		c0,1.1-0.4,1.7-1.1,1.7c-0.1,0-0.1-0.1-0.2-0.3c-0.1-0.2-0.1-0.3-0.1-0.4s0-0.1,0-0.1c0.1,0,0.2,0,0.2-0.1c0.1,0,0.1-0.1,0.1-0.1
		l0-0.1C45.5,40.5,45.3,40.4,45.2,40.1z"/>
	<path d="M50.7,37.4c0,0,0.2-0.1,0.3-0.1s0.4-0.1,0.6-0.1c0.2,0,0.4,0,0.6,0.1c0.2,0.1,0.3,0.2,0.4,0.3c0.1,0.1,0.2,0.2,0.2,0.4
		c0.1,0.3,0.1,0.5,0.1,0.8c0,0.3,0,0.5,0,0.6s-0.1,0.3-0.2,0.4s-0.2,0.3-0.3,0.4c-0.1,0.1-0.3,0.2-0.6,0.3s-0.6,0.1-0.9,0.1
		c-0.7,0-1.3-0.2-1.7-0.6c-0.4-0.4-0.6-1.1-0.6-2c0-0.9,0.2-1.6,0.5-2c0.4-0.4,0.9-0.6,1.6-0.6c0.5,0,0.9,0,1.3,0.1s0.5,0.2,0.5,0.3
		c0,0.1,0,0.3-0.1,0.6c-0.1,0.3-0.2,0.5-0.2,0.5c0,0-0.1,0-0.2,0c-0.3-0.1-0.6-0.1-0.9-0.1c-0.3,0-0.4,0.1-0.5,0.2
		C50.7,37.1,50.6,37.3,50.7,37.4C50.6,37.5,50.7,37.5,50.7,37.4z M50.9,38c-0.1,0-0.2,0.3-0.2,0.8c0,0.5,0.1,0.8,0.2,0.8
		c0.1,0,0.2-0.3,0.2-0.8C51.1,38.3,51,38,50.9,38z"/>
	<path d="M55.3,37.4c0,0,0.2-0.1,0.3-0.1c0.2-0.1,0.4-0.1,0.6-0.1s0.4,0,0.6,0.1s0.3,0.2,0.4,0.3c0.1,0.1,0.2,0.2,0.2,0.4
		c0.1,0.3,0.1,0.5,0.1,0.8c0,0.3,0,0.5,0,0.6c0,0.1-0.1,0.3-0.2,0.4s-0.2,0.3-0.3,0.4s-0.3,0.2-0.6,0.3c-0.3,0.1-0.6,0.1-0.9,0.1
		c-0.7,0-1.3-0.2-1.7-0.6c-0.4-0.4-0.6-1.1-0.6-2c0-0.9,0.2-1.6,0.5-2c0.3-0.4,0.9-0.6,1.6-0.6c0.5,0,0.9,0,1.3,0.1
		c0.4,0.1,0.5,0.2,0.5,0.3c0,0.1,0,0.3-0.1,0.6c-0.1,0.3-0.2,0.5-0.2,0.5c0,0-0.1,0-0.2,0c-0.3-0.1-0.6-0.1-0.9-0.1
		s-0.4,0.1-0.5,0.2C55.3,37.1,55.2,37.3,55.3,37.4C55.3,37.5,55.3,37.5,55.3,37.4z M55.5,38c-0.1,0-0.2,0.3-0.2,0.8
		c0,0.5,0.1,0.8,0.2,0.8c0.1,0,0.2-0.3,0.2-0.8C55.7,38.3,55.6,38,55.5,38z"/>
	<path d="M61.3,40.4c-0.3,0.1-0.6,0.1-1,0.1c-0.4,0-0.7,0-1-0.1c-0.3-0.1-0.5-0.2-0.7-0.4C58.2,39.7,58,39,58,38
		c0-1,0.2-1.7,0.7-2.1c0.2-0.2,0.5-0.3,0.7-0.4c0.3-0.1,0.6-0.1,0.9-0.1s0.7,0,0.9,0.1c0.3,0.1,0.5,0.2,0.7,0.4
		c0.4,0.4,0.7,1,0.7,2.1c0,1-0.2,1.7-0.6,2.1C61.8,40.2,61.6,40.4,61.3,40.4z M60.2,39.4c0,0.1,0.1,0.1,0.2,0.1s0.1,0,0.2-0.1
		c0-0.1,0.1-0.2,0.1-0.4c0-0.2,0-0.5,0-0.9s0-0.7,0-0.9c0-0.2-0.1-0.4-0.1-0.4c0-0.1-0.1-0.1-0.2-0.1s-0.1,0-0.2,0.1
		c-0.1,0.2-0.1,0.6-0.1,1.4C60.1,38.8,60.1,39.2,60.2,39.4z"/>
</g>
<g>
	<g>
		<path class="st7" d="M54.5,67.1c0,0-1.4,0-1.4,1.4v6.8c0,0,0,1.4,1.4,1.4h9c0,0,1.4,0,1.4-1.4v-6.8c0,0,0-1.4-1.4-1.4H54.5z"/>
		<path class="st8" d="M53.4,66.1c0,0-1.4,0-1.4,1.4v6.8c0,0,0,1.4,1.4,1.4h9c0,0,1.4,0,1.4-1.4v-6.8c0,0,0-1.4-1.4-1.4H53.4z"/>
		<g class="st3">
			<path class="st9" d="M54.7,69.6c0,0-0.1,0.1-0.2,0.3c-0.1,0.1-0.2,0.2-0.2,0.4c0,0.1-0.1,0.2-0.1,0.4c0,0.1-0.1,0.3-0.1,0.4h-0.3
				c0-0.3,0.1-0.6,0.3-0.9c0.1-0.2,0.2-0.3,0.3-0.4h-0.8l0-0.3h1.2V69.6z"/>
			<path class="st9" d="M55,69.8v-0.2c0.1,0,0.2,0,0.2,0c0.1,0,0.1,0,0.2-0.1c0,0,0-0.1,0.1-0.1c0,0,0-0.1,0-0.1h0.3V71h-0.3v-1.1
				H55z"/>
			<path class="st9" d="M56.3,69.5c0.1-0.1,0.2-0.2,0.4-0.2c0.3,0,0.4,0.1,0.5,0.3c0.1,0.1,0.1,0.3,0.1,0.5c0,0.2,0,0.4-0.1,0.5
				C57.1,70.9,57,71,56.7,71c-0.1,0-0.2,0-0.3-0.1c-0.1-0.1-0.2-0.2-0.2-0.3h0.3c0,0,0,0.1,0.1,0.1s0.1,0,0.1,0
				c0.1,0,0.2-0.1,0.2-0.2c0-0.1,0-0.2,0-0.3c0,0-0.1,0.1-0.1,0.1c-0.1,0-0.1,0.1-0.2,0.1c-0.1,0-0.2,0-0.3-0.1s-0.2-0.2-0.2-0.4
				C56.2,69.7,56.2,69.6,56.3,69.5z M56.9,70.1c0.1,0,0.1-0.1,0.1-0.2c0-0.1,0-0.2-0.1-0.2c0-0.1-0.1-0.1-0.2-0.1
				c-0.1,0-0.1,0-0.1,0c-0.1,0-0.1,0.1-0.1,0.2c0,0.1,0,0.2,0.1,0.2s0.1,0.1,0.2,0.1C56.8,70.2,56.8,70.2,56.9,70.1z"/>
			<path class="st9" d="M58.7,70.2c-0.1,0.1-0.2,0.1-0.4,0.1h-0.3V71h-0.3v-1.7h0.7c0.2,0,0.3,0,0.4,0.1c0.1,0.1,0.1,0.2,0.1,0.4
				C58.8,70,58.8,70.2,58.7,70.2z M58.4,69.6c0,0-0.1-0.1-0.2-0.1h-0.3v0.5h0.3c0.1,0,0.1,0,0.2-0.1c0,0,0.1-0.1,0.1-0.2
				C58.5,69.7,58.5,69.7,58.4,69.6z"/>
			<path class="st9" d="M59,70.2h0.6v0.3H59V70.2z"/>
			<path class="st9" d="M59.9,69.8v-0.2c0.1,0,0.2,0,0.2,0c0.1,0,0.1,0,0.2-0.1c0,0,0-0.1,0.1-0.1c0,0,0-0.1,0-0.1h0.3V71h-0.3v-1.1
				H59.9z"/>
			<path class="st9" d="M62.1,69.5c0.1,0.1,0.1,0.4,0.1,0.6c0,0.3,0,0.5-0.1,0.6C62,70.9,61.9,71,61.7,71s-0.4-0.1-0.4-0.2
				c-0.1-0.1-0.1-0.4-0.1-0.6c0-0.3,0-0.5,0.1-0.6c0.1-0.1,0.2-0.2,0.4-0.2S62,69.4,62.1,69.5z M61.5,70.6c0,0.1,0.1,0.2,0.2,0.2
				c0.1,0,0.2,0,0.2-0.2c0-0.1,0-0.2,0-0.4c0-0.2,0-0.3,0-0.4c0-0.1-0.1-0.1-0.2-0.1c-0.1,0-0.2,0-0.2,0.1c0,0.1,0,0.2,0,0.4
				C61.4,70.4,61.4,70.5,61.5,70.6z"/>
		</g>
	</g>
	<g>
		<path class="st1" d="M54.5,52.8c0,0-1.4,0-1.4,1.4V61c0,0,0,1.4,1.4,1.4h9c0,0,1.4,0,1.4-1.4v-6.8c0,0,0-1.4-1.4-1.4H54.5z"/>
		<path class="st8" d="M53.4,51.6c0,0-1.4,0-1.4,1.4v6.8c0,0,0,1.4,1.4,1.4h9c0,0,1.4,0,1.4-1.4V53c0,0,0-1.4-1.4-1.4H53.4z"/>
		<g class="st3">
			<path class="st9" d="M53.7,55.1c0.1-0.1,0.2-0.2,0.4-0.2c0.3,0,0.4,0.1,0.5,0.3c0.1,0.1,0.1,0.3,0.1,0.5c0,0.2,0,0.4-0.1,0.5
				c-0.1,0.3-0.3,0.4-0.5,0.4c-0.1,0-0.2,0-0.3-0.1c-0.1-0.1-0.2-0.2-0.2-0.3h0.3c0,0,0,0.1,0.1,0.1s0.1,0,0.1,0
				c0.1,0,0.2-0.1,0.2-0.2c0-0.1,0-0.2,0-0.3c0,0-0.1,0.1-0.1,0.1C54.2,56,54.1,56,54,56c-0.1,0-0.2,0-0.3-0.1s-0.2-0.2-0.2-0.4
				C53.5,55.3,53.6,55.2,53.7,55.1z M54.2,55.7c0.1,0,0.1-0.1,0.1-0.2c0-0.1,0-0.2-0.1-0.2c0-0.1-0.1-0.1-0.2-0.1
				c-0.1,0-0.1,0-0.1,0c-0.1,0-0.1,0.1-0.1,0.2c0,0.1,0,0.2,0.1,0.2s0.1,0.1,0.2,0.1C54.2,55.8,54.2,55.7,54.2,55.7z"/>
			<path class="st9" d="M55.2,56.1c0,0.1,0,0.1,0,0.2c0,0.1,0.1,0.1,0.2,0.1c0.1,0,0.1,0,0.2-0.1s0.1-0.1,0.1-0.2
				c0-0.1,0-0.2-0.1-0.2c0,0-0.1,0-0.2,0v-0.2c0.1,0,0.2,0,0.2,0c0.1,0,0.1-0.1,0.1-0.2c0-0.1,0-0.1-0.1-0.2c0,0-0.1-0.1-0.2-0.1
				c-0.1,0-0.1,0-0.2,0.1c0,0-0.1,0.1-0.1,0.2h-0.3c0-0.1,0-0.2,0-0.2c0-0.1,0.1-0.1,0.1-0.2c0,0,0.1-0.1,0.2-0.1c0.1,0,0.1,0,0.2,0
				c0.2,0,0.3,0,0.4,0.1c0.1,0.1,0.1,0.2,0.1,0.3c0,0.1,0,0.2-0.1,0.2c0,0-0.1,0.1-0.1,0.1c0,0,0.1,0,0.1,0.1
				c0.1,0.1,0.1,0.2,0.1,0.3c0,0.1,0,0.3-0.1,0.4c-0.1,0.1-0.2,0.2-0.4,0.2c-0.2,0-0.4-0.1-0.5-0.2c0-0.1-0.1-0.2-0.1-0.3H55.2z"/>
			<path class="st9" d="M56.2,55.8c0-0.1,0.1-0.1,0.2-0.2c-0.1-0.1-0.1-0.1-0.2-0.2c0-0.1,0-0.1,0-0.2c0-0.1,0-0.2,0.1-0.3
				c0.1-0.1,0.2-0.1,0.4-0.1s0.3,0,0.4,0.1c0.1,0.1,0.1,0.2,0.1,0.3c0,0.1,0,0.1,0,0.2c0,0.1-0.1,0.1-0.2,0.2c0.1,0,0.1,0.1,0.2,0.2
				c0,0.1,0.1,0.2,0.1,0.3c0,0.1-0.1,0.3-0.2,0.4c-0.1,0.1-0.2,0.1-0.4,0.1s-0.3,0-0.4-0.1c-0.1-0.1-0.1-0.2-0.1-0.4
				C56.1,56,56.1,55.9,56.2,55.8z M56.5,56.3c0,0,0.1,0.1,0.2,0.1s0.1,0,0.2-0.1s0.1-0.1,0.1-0.2c0-0.1,0-0.1-0.1-0.2
				s-0.1-0.1-0.2-0.1c-0.1,0-0.1,0-0.2,0.1s-0.1,0.1-0.1,0.2C56.5,56.2,56.5,56.2,56.5,56.3z M56.5,55.5c0,0,0.1,0.1,0.2,0.1
				s0.1,0,0.2-0.1s0.1-0.1,0.1-0.1c0-0.1,0-0.1-0.1-0.2c0,0-0.1-0.1-0.2-0.1s-0.1,0-0.2,0.1c0,0-0.1,0.1-0.1,0.2
				C56.5,55.4,56.5,55.5,56.5,55.5z"/>
			<path class="st9" d="M57.7,55.1c0.1-0.1,0.3-0.2,0.5-0.2c0.3,0,0.5,0.1,0.6,0.3c0.1,0.1,0.1,0.2,0.1,0.3h-0.4
				c0-0.1-0.1-0.1-0.1-0.2c-0.1-0.1-0.2-0.1-0.3-0.1c-0.1,0-0.2,0.1-0.3,0.2c-0.1,0.1-0.1,0.2-0.1,0.4c0,0.2,0,0.3,0.1,0.4
				c0.1,0.1,0.2,0.1,0.3,0.1c0.1,0,0.2,0,0.3-0.1c0,0,0.1-0.1,0.1-0.2h0.3c0,0.2-0.1,0.3-0.2,0.4c-0.1,0.1-0.3,0.2-0.5,0.2
				c-0.2,0-0.4-0.1-0.6-0.2s-0.2-0.4-0.2-0.6C57.5,55.4,57.5,55.2,57.7,55.1z"/>
			<path class="st9" d="M59.1,55.8h0.6v0.3h-0.6V55.8z"/>
			<path class="st9" d="M60,55.4v-0.2c0.1,0,0.2,0,0.2,0c0.1,0,0.1,0,0.2-0.1c0,0,0-0.1,0.1-0.1c0,0,0-0.1,0-0.1h0.3v1.6h-0.3v-1.1
				H60z"/>
			<path class="st9" d="M62.2,55.1c0.1,0.1,0.1,0.4,0.1,0.6c0,0.3,0,0.5-0.1,0.6c-0.1,0.1-0.2,0.2-0.4,0.2c-0.2,0-0.4-0.1-0.4-0.2
				c-0.1-0.1-0.1-0.4-0.1-0.6c0-0.3,0-0.5,0.1-0.6c0.1-0.1,0.2-0.2,0.4-0.2C62,54.9,62.1,55,62.2,55.1z M61.6,56.2
				c0,0.1,0.1,0.2,0.2,0.2c0.1,0,0.2,0,0.2-0.2c0-0.1,0-0.2,0-0.4c0-0.2,0-0.3,0-0.4c0-0.1-0.1-0.1-0.2-0.1c-0.1,0-0.2,0-0.2,0.1
				s0,0.2,0,0.4C61.5,55.9,61.5,56.1,61.6,56.2z"/>
		</g>
	</g>
</g>
<line class="st10" x1="13.6" y1="99.4" x2="64.6" y2="99.4"/>
<g>
	<g>
		<path class="st1" d="M14.8,52.8c0,0-1.4,0-1.4,1.4V61c0,0,0,1.4,1.4,1.4h9c0,0,1.4,0,1.4-1.4v-6.8c0,0,0-1.4-1.4-1.4H14.8z"/>
		<path class="st8" d="M13.8,51.6c0,0-1.4,0-1.4,1.4v6.8c0,0,0,1.4,1.4,1.4h9c0,0,1.4,0,1.4-1.4V53c0,0,0-1.4-1.4-1.4H13.8z"/>
		<g class="st3">
			<path class="st9" d="M14.7,55.3C14.7,55.3,14.7,55.3,14.7,55.3c-0.1-0.1-0.1-0.2-0.2-0.2c-0.1,0-0.2,0.1-0.2,0.2
				c0,0.1,0,0.2-0.1,0.3c0,0,0.1-0.1,0.1-0.1c0.1,0,0.1,0,0.2,0c0.1,0,0.3,0,0.4,0.1C15,55.7,15,55.9,15,56s0,0.3-0.1,0.4
				c-0.1,0.1-0.2,0.2-0.4,0.2c-0.2,0-0.4-0.1-0.5-0.3c-0.1-0.1-0.1-0.3-0.1-0.5c0-0.1,0-0.2,0-0.3c0-0.1,0.1-0.3,0.1-0.4
				c0-0.1,0.1-0.1,0.2-0.2c0.1,0,0.2-0.1,0.3-0.1c0.2,0,0.3,0,0.4,0.1c0.1,0.1,0.1,0.2,0.2,0.3H14.7z M14.3,56.3
				c0,0.1,0.1,0.1,0.2,0.1c0.1,0,0.1,0,0.2-0.1c0-0.1,0.1-0.1,0.1-0.2c0-0.1,0-0.2-0.1-0.2c0-0.1-0.1-0.1-0.2-0.1
				c-0.1,0-0.1,0-0.1,0c-0.1,0-0.1,0.1-0.1,0.2C14.2,56.1,14.3,56.2,14.3,56.3z"/>
			<path class="st9" d="M16,55.3C16,55.3,16,55.3,16,55.3c-0.1-0.1-0.1-0.2-0.2-0.2c-0.1,0-0.2,0.1-0.2,0.2c0,0.1,0,0.2-0.1,0.3
				c0,0,0.1-0.1,0.1-0.1c0.1,0,0.1,0,0.2,0c0.1,0,0.3,0,0.4,0.1c0.1,0.1,0.1,0.2,0.1,0.4s0,0.3-0.1,0.4c-0.1,0.1-0.2,0.2-0.4,0.2
				c-0.2,0-0.4-0.1-0.5-0.3c-0.1-0.1-0.1-0.3-0.1-0.5c0-0.1,0-0.2,0-0.3c0-0.1,0.1-0.3,0.1-0.4c0-0.1,0.1-0.1,0.2-0.2
				c0.1,0,0.2-0.1,0.3-0.1c0.2,0,0.3,0,0.4,0.1c0.1,0.1,0.1,0.2,0.2,0.3H16z M15.6,56.3c0,0.1,0.1,0.1,0.2,0.1c0.1,0,0.1,0,0.2-0.1
				c0-0.1,0.1-0.1,0.1-0.2c0-0.1,0-0.2-0.1-0.2c0-0.1-0.1-0.1-0.2-0.1c-0.1,0-0.1,0-0.1,0c-0.1,0-0.1,0.1-0.1,0.2
				C15.5,56.1,15.6,56.2,15.6,56.3z"/>
			<path class="st9" d="M16.6,55.1c0.1-0.1,0.2-0.2,0.4-0.2c0.3,0,0.4,0.1,0.5,0.3c0.1,0.1,0.1,0.3,0.1,0.5c0,0.2,0,0.4-0.1,0.5
				c-0.1,0.3-0.3,0.4-0.5,0.4c-0.1,0-0.2,0-0.3-0.1c-0.1-0.1-0.2-0.2-0.2-0.3h0.3c0,0,0,0.1,0.1,0.1s0.1,0,0.1,0
				c0.1,0,0.2-0.1,0.2-0.2c0-0.1,0-0.2,0-0.3c0,0-0.1,0.1-0.1,0.1C17.2,56,17.1,56,17,56c-0.1,0-0.2,0-0.3-0.1s-0.2-0.2-0.2-0.4
				C16.5,55.3,16.5,55.2,16.6,55.1z M17.2,55.7c0.1,0,0.1-0.1,0.1-0.2c0-0.1,0-0.2-0.1-0.2c0-0.1-0.1-0.1-0.2-0.1
				c-0.1,0-0.1,0-0.1,0c-0.1,0-0.1,0.1-0.1,0.2c0,0.1,0,0.2,0.1,0.2c0,0,0.1,0.1,0.2,0.1C17.1,55.8,17.2,55.7,17.2,55.7z"/>
			<path class="st9" d="M18.4,54.9h0.4l0.6,1.7H19l-0.1-0.3h-0.6l-0.1,0.3h-0.4L18.4,54.9z M18.4,55.9h0.4l-0.2-0.7L18.4,55.9z"/>
			<path class="st9" d="M19.5,55.8h0.6v0.3h-0.6V55.8z"/>
			<path class="st9" d="M20.3,55.4v-0.2c0.1,0,0.2,0,0.2,0c0.1,0,0.1,0,0.2-0.1c0,0,0-0.1,0.1-0.1c0,0,0-0.1,0-0.1h0.3v1.6h-0.3
				v-1.1H20.3z"/>
			<path class="st9" d="M22.6,55.1c0.1,0.1,0.1,0.4,0.1,0.6c0,0.3,0,0.5-0.1,0.6c-0.1,0.1-0.2,0.2-0.4,0.2c-0.2,0-0.4-0.1-0.4-0.2
				c-0.1-0.1-0.1-0.4-0.1-0.6c0-0.3,0-0.5,0.1-0.6s0.2-0.2,0.4-0.2C22.3,54.9,22.5,55,22.6,55.1z M21.9,56.2c0,0.1,0.1,0.2,0.2,0.2
				s0.2,0,0.2-0.2s0-0.2,0-0.4c0-0.2,0-0.3,0-0.4s-0.1-0.1-0.2-0.1s-0.2,0-0.2,0.1c0,0.1,0,0.2,0,0.4C21.9,55.9,21.9,56.1,21.9,56.2
				z"/>
		</g>
	</g>
	<g>
		<path class="st1" d="M14.8,67.1c0,0-1.4,0-1.4,1.4v6.8c0,0,0,1.4,1.4,1.4h9c0,0,1.4,0,1.4-1.4v-6.8c0,0,0-1.4-1.4-1.4H14.8z"/>
		<path class="st8" d="M13.8,66.1c0,0-1.4,0-1.4,1.4v6.8c0,0,0,1.4,1.4,1.4h9c0,0,1.4,0,1.4-1.4v-6.8c0,0,0-1.4-1.4-1.4H13.8z"/>
		<g class="st3">
			<path class="st9" d="M15.1,69.6c0,0-0.1,0.1-0.2,0.3c-0.1,0.1-0.2,0.2-0.2,0.4c0,0.1-0.1,0.2-0.1,0.4c0,0.1-0.1,0.3-0.1,0.4h-0.3
				c0-0.3,0.1-0.6,0.3-0.9c0.1-0.2,0.2-0.3,0.3-0.4h-0.8l0-0.3h1.2V69.6z"/>
			<path class="st9" d="M16.4,69.6c0,0-0.1,0.1-0.2,0.3c-0.1,0.1-0.2,0.2-0.2,0.4c0,0.1-0.1,0.2-0.1,0.4c0,0.1-0.1,0.3-0.1,0.4h-0.3
				c0-0.3,0.1-0.6,0.3-0.9c0.1-0.2,0.2-0.3,0.3-0.4h-0.8l0-0.3h1.2V69.6z"/>
			<path class="st9" d="M16.5,70.3c0-0.1,0.1-0.1,0.2-0.2c-0.1-0.1-0.1-0.1-0.2-0.2c0-0.1,0-0.1,0-0.2c0-0.1,0-0.2,0.1-0.3
				c0.1-0.1,0.2-0.1,0.4-0.1c0.2,0,0.3,0,0.4,0.1c0.1,0.1,0.1,0.2,0.1,0.3c0,0.1,0,0.1,0,0.2c0,0.1-0.1,0.1-0.2,0.2
				c0.1,0,0.1,0.1,0.2,0.2c0,0.1,0.1,0.2,0.1,0.3c0,0.1-0.1,0.3-0.2,0.4C17.4,71,17.2,71,17,71c-0.2,0-0.3,0-0.4-0.1
				c-0.1-0.1-0.1-0.2-0.1-0.4C16.5,70.4,16.5,70.3,16.5,70.3z M16.9,70.7c0,0,0.1,0.1,0.2,0.1s0.1,0,0.2-0.1s0.1-0.1,0.1-0.2
				c0-0.1,0-0.1-0.1-0.2s-0.1-0.1-0.2-0.1s-0.1,0-0.2,0.1s-0.1,0.1-0.1,0.2C16.8,70.6,16.8,70.6,16.9,70.7z M16.9,69.9
				c0,0,0.1,0.1,0.2,0.1c0.1,0,0.1,0,0.2-0.1s0.1-0.1,0.1-0.1c0-0.1,0-0.1-0.1-0.2c0,0-0.1-0.1-0.2-0.1c-0.1,0-0.1,0-0.2,0.1
				c0,0-0.1,0.1-0.1,0.2C16.9,69.8,16.9,69.9,16.9,69.9z"/>
			<path class="st9" d="M19,69.3c0.1,0,0.1,0.1,0.2,0.1c0,0,0.1,0.1,0.1,0.1c0,0.1,0,0.1,0,0.2c0,0.1,0,0.2-0.1,0.2
				c0,0.1-0.1,0.1-0.2,0.2c0.1,0,0.1,0.1,0.2,0.1c0,0.1,0,0.1,0,0.3v0.1c0,0.1,0,0.1,0,0.2c0,0,0,0.1,0.1,0.1v0h-0.4
				c0,0,0-0.1,0-0.1c0,0,0-0.1,0-0.1l0-0.2c0-0.1,0-0.2-0.1-0.2c0,0-0.1-0.1-0.2-0.1h-0.3V71h-0.3v-1.7h0.8
				C18.8,69.3,18.9,69.3,19,69.3z M18.2,69.6V70h0.4c0.1,0,0.1,0,0.2,0c0.1,0,0.1-0.1,0.1-0.2c0-0.1,0-0.2-0.1-0.2c0,0-0.1,0-0.2,0
				H18.2z"/>
			<path class="st9" d="M19.5,70.2h0.6v0.3h-0.6V70.2z"/>
			<path class="st9" d="M20.3,69.8v-0.2c0.1,0,0.2,0,0.2,0c0.1,0,0.1,0,0.2-0.1c0,0,0-0.1,0.1-0.1c0,0,0-0.1,0-0.1h0.3V71h-0.3v-1.1
				H20.3z"/>
			<path class="st9" d="M22.6,69.5c0.1,0.1,0.1,0.4,0.1,0.6c0,0.3,0,0.5-0.1,0.6c-0.1,0.1-0.2,0.2-0.4,0.2c-0.2,0-0.4-0.1-0.4-0.2
				c-0.1-0.1-0.1-0.4-0.1-0.6c0-0.3,0-0.5,0.1-0.6s0.2-0.2,0.4-0.2C22.3,69.3,22.5,69.4,22.6,69.5z M21.9,70.6
				c0,0.1,0.1,0.2,0.2,0.2s0.2,0,0.2-0.2s0-0.2,0-0.4c0-0.2,0-0.3,0-0.4s-0.1-0.1-0.2-0.1s-0.2,0-0.2,0.1c0,0.1,0,0.2,0,0.4
				C21.9,70.4,21.9,70.5,21.9,70.6z"/>
		</g>
	</g>
	<g>
		<path class="st7" d="M15,80.8c0,0-1.4,0-1.4,1.4V89c0,0,0,1.4,1.4,1.4h9c0,0,1.4,0,1.4-1.4v-6.8c0,0,0-1.4-1.4-1.4H15z"/>
		<path class="st8" d="M13.8,79.7c0,0-1.4,0-1.4,1.4v6.8c0,0,0,1.4,1.4,1.4h9c0,0,1.4,0,1.4-1.4v-6.8c0,0,0-1.4-1.4-1.4H13.8z"/>
		<g class="st3">
			<path class="st9" d="M14.4,84.1c0,0.1,0,0.1,0.1,0.2c0,0,0.1,0.1,0.2,0.1c0.1,0,0.1,0,0.2-0.1c0-0.1,0.1-0.1,0.1-0.2
				c0-0.1,0-0.2-0.1-0.2c0-0.1-0.1-0.1-0.2-0.1c0,0-0.1,0-0.1,0c-0.1,0-0.1,0.1-0.1,0.1l-0.3,0l0.1-0.9h0.9v0.3h-0.7l-0.1,0.4
				c0,0,0.1-0.1,0.1-0.1c0,0,0.1,0,0.2,0c0.1,0,0.3,0,0.4,0.1c0.1,0.1,0.2,0.2,0.2,0.4c0,0.2,0,0.3-0.1,0.4
				c-0.1,0.1-0.2,0.2-0.4,0.2c-0.2,0-0.3,0-0.4-0.1s-0.2-0.2-0.2-0.4H14.4z"/>
			<path class="st9" d="M16.4,83.1c0.1,0.1,0.1,0.4,0.1,0.6c0,0.3,0,0.5-0.1,0.6c-0.1,0.1-0.2,0.2-0.4,0.2c-0.2,0-0.4-0.1-0.4-0.2
				c-0.1-0.1-0.1-0.4-0.1-0.6c0-0.3,0-0.5,0.1-0.6s0.2-0.2,0.4-0.2C16.1,82.9,16.3,83,16.4,83.1z M15.7,84.2c0,0.1,0.1,0.2,0.2,0.2
				s0.2,0,0.2-0.2s0-0.2,0-0.4c0-0.2,0-0.3,0-0.4s-0.1-0.1-0.2-0.1s-0.2,0-0.2,0.1c0,0.1,0,0.2,0,0.4C15.7,84,15.7,84.1,15.7,84.2z"
				/>
			<path class="st9" d="M16.7,83.9c0-0.1,0.1-0.1,0.2-0.2c-0.1-0.1-0.1-0.1-0.2-0.2c0-0.1,0-0.1,0-0.2c0-0.1,0-0.2,0.1-0.3
				c0.1-0.1,0.2-0.1,0.4-0.1c0.2,0,0.3,0,0.4,0.1c0.1,0.1,0.1,0.2,0.1,0.3c0,0.1,0,0.1,0,0.2c0,0.1-0.1,0.1-0.2,0.2
				c0.1,0,0.1,0.1,0.2,0.2c0,0.1,0.1,0.2,0.1,0.3c0,0.1-0.1,0.3-0.2,0.4c-0.1,0.1-0.2,0.1-0.4,0.1c-0.2,0-0.3,0-0.4-0.1
				c-0.1-0.1-0.1-0.2-0.1-0.4C16.6,84,16.7,84,16.7,83.9z M17,84.3c0,0,0.1,0.1,0.2,0.1s0.1,0,0.2-0.1s0.1-0.1,0.1-0.2
				c0-0.1,0-0.1-0.1-0.2s-0.1-0.1-0.2-0.1s-0.1,0-0.2,0.1S17,84,17,84.1C17,84.2,17,84.3,17,84.3z M17.1,83.5c0,0,0.1,0.1,0.2,0.1
				c0.1,0,0.1,0,0.2-0.1s0.1-0.1,0.1-0.1c0-0.1,0-0.1-0.1-0.2c0,0-0.1-0.1-0.2-0.1c-0.1,0-0.1,0-0.2,0.1c0,0-0.1,0.1-0.1,0.2
				C17,83.5,17,83.5,17.1,83.5z"/>
			<path class="st9" d="M18,82.9h0.4v1.4h0.8v0.3H18V82.9z"/>
			<path class="st9" d="M19.3,83.8H20v0.3h-0.6V83.8z"/>
			<path class="st9" d="M20.2,83.5v-0.2c0.1,0,0.2,0,0.2,0c0.1,0,0.1,0,0.2-0.1c0,0,0-0.1,0.1-0.1c0,0,0-0.1,0-0.1h0.3v1.6h-0.3
				v-1.1H20.2z"/>
			<path class="st9" d="M22.4,83.1c0.1,0.1,0.1,0.4,0.1,0.6c0,0.3,0,0.5-0.1,0.6c-0.1,0.1-0.2,0.2-0.4,0.2c-0.2,0-0.4-0.1-0.4-0.2
				c-0.1-0.1-0.1-0.4-0.1-0.6c0-0.3,0-0.5,0.1-0.6s0.2-0.2,0.4-0.2C22.2,82.9,22.4,83,22.4,83.1z M21.8,84.2c0,0.1,0.1,0.2,0.2,0.2
				s0.2,0,0.2-0.2s0-0.2,0-0.4c0-0.2,0-0.3,0-0.4s-0.1-0.1-0.2-0.1s-0.2,0-0.2,0.1c0,0.1,0,0.2,0,0.4C21.8,84,21.8,84.1,21.8,84.2z"
				/>
		</g>
	</g>
</g>
<g>
	<g>
		<path class="st7" d="M35.1,67.1c0,0-1.4,0-1.4,1.4v6.8c0,0,0,1.4,1.4,1.4h9c0,0,1.4,0,1.4-1.4v-6.8c0,0,0-1.4-1.4-1.4H35.1z"/>
		<path class="st8" d="M33.8,66.1c0,0-1.4,0-1.4,1.4v6.8c0,0,0,1.4,1.4,1.4h9c0,0,1.4,0,1.4-1.4v-6.8c0,0,0-1.4-1.4-1.4H33.8z"/>
		<g class="st3">
			<path class="st9" d="M34.3,69.5c0.1-0.1,0.2-0.2,0.4-0.2c0.3,0,0.4,0.1,0.5,0.3c0.1,0.1,0.1,0.3,0.1,0.5c0,0.2,0,0.4-0.1,0.5
				C35.2,70.9,35,71,34.7,71c-0.1,0-0.2,0-0.3-0.1c-0.1-0.1-0.2-0.2-0.2-0.3h0.3c0,0,0,0.1,0.1,0.1s0.1,0,0.1,0
				c0.1,0,0.2-0.1,0.2-0.2c0-0.1,0-0.2,0-0.3c0,0-0.1,0.1-0.1,0.1c-0.1,0-0.1,0.1-0.2,0.1c-0.1,0-0.2,0-0.3-0.1s-0.2-0.2-0.2-0.4
				C34.2,69.7,34.2,69.6,34.3,69.5z M34.9,70.1c0.1,0,0.1-0.1,0.1-0.2c0-0.1,0-0.2-0.1-0.2c0-0.1-0.1-0.1-0.2-0.1
				c-0.1,0-0.1,0-0.1,0c-0.1,0-0.1,0.1-0.1,0.2c0,0.1,0,0.2,0.1,0.2c0,0,0.1,0.1,0.2,0.1C34.8,70.2,34.8,70.2,34.9,70.1z"/>
			<path class="st9" d="M36.6,69.6c0,0-0.1,0.1-0.2,0.3c-0.1,0.1-0.2,0.2-0.2,0.4c0,0.1-0.1,0.2-0.1,0.4c0,0.1-0.1,0.3-0.1,0.4h-0.3
				c0-0.3,0.1-0.6,0.3-0.9c0.1-0.2,0.2-0.3,0.3-0.4h-0.8l0-0.3h1.2V69.6z"/>
			<path class="st9" d="M36.8,70.3c0-0.1,0.1-0.1,0.2-0.2c-0.1-0.1-0.1-0.1-0.2-0.2c0-0.1,0-0.1,0-0.2c0-0.1,0-0.2,0.1-0.3
				c0.1-0.1,0.2-0.1,0.4-0.1c0.2,0,0.3,0,0.4,0.1c0.1,0.1,0.1,0.2,0.1,0.3c0,0.1,0,0.1,0,0.2c0,0.1-0.1,0.1-0.2,0.2
				c0.1,0,0.1,0.1,0.2,0.2c0,0.1,0.1,0.2,0.1,0.3c0,0.1-0.1,0.3-0.2,0.4C37.7,71,37.5,71,37.3,71c-0.2,0-0.3,0-0.4-0.1
				c-0.1-0.1-0.1-0.2-0.1-0.4C36.8,70.4,36.8,70.3,36.8,70.3z M37.2,70.7c0,0,0.1,0.1,0.2,0.1s0.1,0,0.2-0.1s0.1-0.1,0.1-0.2
				c0-0.1,0-0.1-0.1-0.2s-0.1-0.1-0.2-0.1s-0.1,0-0.2,0.1s-0.1,0.1-0.1,0.2C37.1,70.6,37.1,70.6,37.2,70.7z M37.2,69.9
				c0,0,0.1,0.1,0.2,0.1c0.1,0,0.1,0,0.2-0.1s0.1-0.1,0.1-0.1c0-0.1,0-0.1-0.1-0.2c0,0-0.1-0.1-0.2-0.1c-0.1,0-0.1,0-0.2,0.1
				c0,0-0.1,0.1-0.1,0.2C37.1,69.8,37.2,69.9,37.2,69.9z"/>
			<path class="st9" d="M38.4,70.3L38.4,70.3c0,0.2,0,0.3,0,0.3s0.1,0.1,0.2,0.1c0.1,0,0.1,0,0.2-0.1c0,0,0-0.1,0-0.2v-1.2h0.4v1.2
				c0,0.1,0,0.3-0.1,0.3C39,70.9,38.8,71,38.6,71c-0.2,0-0.4-0.1-0.4-0.2c-0.1-0.1-0.1-0.3-0.1-0.5v0H38.4z"/>
			<path class="st9" d="M39.4,70.2H40v0.3h-0.6V70.2z"/>
			<path class="st9" d="M40.2,69.8v-0.2c0.1,0,0.2,0,0.2,0c0.1,0,0.1,0,0.2-0.1c0,0,0-0.1,0.1-0.1c0,0,0-0.1,0-0.1H41V71h-0.3v-1.1
				H40.2z"/>
			<path class="st9" d="M42.5,69.5c0.1,0.1,0.1,0.4,0.1,0.6c0,0.3,0,0.5-0.1,0.6C42.4,70.9,42.2,71,42,71c-0.2,0-0.4-0.1-0.4-0.2
				c-0.1-0.1-0.1-0.4-0.1-0.6c0-0.3,0-0.5,0.1-0.6c0.1-0.1,0.2-0.2,0.4-0.2C42.2,69.3,42.4,69.4,42.5,69.5z M41.8,70.6
				c0,0.1,0.1,0.2,0.2,0.2c0.1,0,0.2,0,0.2-0.2c0-0.1,0-0.2,0-0.4c0-0.2,0-0.3,0-0.4c0-0.1-0.1-0.1-0.2-0.1c-0.1,0-0.2,0-0.2,0.1
				s0,0.2,0,0.4C41.8,70.4,41.8,70.5,41.8,70.6z"/>
		</g>
	</g>
	<g>
		<path class="st1" d="M35.1,52.8c0,0-1.4,0-1.4,1.4V61c0,0,0,1.4,1.4,1.4h9c0,0,1.4,0,1.4-1.4v-6.8c0,0,0-1.4-1.4-1.4H35.1z"/>
		<path class="st8" d="M33.8,51.6c0,0-1.4,0-1.4,1.4v6.8c0,0,0,1.4,1.4,1.4h9c0,0,1.4,0,1.4-1.4V53c0,0,0-1.4-1.4-1.4H33.8z"/>
		<g class="st3">
			<path class="st9" d="M34.1,55.1c0.1-0.1,0.2-0.2,0.4-0.2c0.3,0,0.4,0.1,0.5,0.3c0.1,0.1,0.1,0.3,0.1,0.5c0,0.2,0,0.4-0.1,0.5
				c-0.1,0.3-0.3,0.4-0.5,0.4c-0.1,0-0.2,0-0.3-0.1c-0.1-0.1-0.2-0.2-0.2-0.3h0.3c0,0,0,0.1,0.1,0.1s0.1,0,0.1,0
				c0.1,0,0.2-0.1,0.2-0.2c0-0.1,0-0.2,0-0.3c0,0-0.1,0.1-0.1,0.1c-0.1,0-0.1,0.1-0.2,0.1c-0.1,0-0.2,0-0.3-0.1S34,55.7,34,55.5
				C34,55.3,34,55.2,34.1,55.1z M34.7,55.7c0.1,0,0.1-0.1,0.1-0.2c0-0.1,0-0.2-0.1-0.2c0-0.1-0.1-0.1-0.2-0.1c-0.1,0-0.1,0-0.1,0
				c-0.1,0-0.1,0.1-0.1,0.2c0,0.1,0,0.2,0.1,0.2c0,0,0.1,0.1,0.2,0.1C34.6,55.8,34.7,55.7,34.7,55.7z"/>
			<path class="st9" d="M36.1,55.3C36.1,55.3,36.1,55.3,36.1,55.3c-0.1-0.1-0.1-0.2-0.2-0.2c-0.1,0-0.2,0.1-0.2,0.2
				c0,0.1,0,0.2-0.1,0.3c0,0,0.1-0.1,0.1-0.1c0.1,0,0.1,0,0.2,0c0.1,0,0.3,0,0.4,0.1c0.1,0.1,0.1,0.2,0.1,0.4s0,0.3-0.1,0.4
				c-0.1,0.1-0.2,0.2-0.4,0.2c-0.2,0-0.4-0.1-0.5-0.3c-0.1-0.1-0.1-0.3-0.1-0.5c0-0.1,0-0.2,0-0.3c0-0.1,0.1-0.3,0.1-0.4
				c0-0.1,0.1-0.1,0.2-0.2c0.1,0,0.2-0.1,0.3-0.1c0.2,0,0.3,0,0.4,0.1c0.1,0.1,0.1,0.2,0.2,0.3H36.1z M35.7,56.3
				c0,0.1,0.1,0.1,0.2,0.1c0.1,0,0.1,0,0.2-0.1c0-0.1,0.1-0.1,0.1-0.2c0-0.1,0-0.2-0.1-0.2c0-0.1-0.1-0.1-0.2-0.1
				c-0.1,0-0.1,0-0.1,0c-0.1,0-0.1,0.1-0.1,0.2C35.6,56.1,35.6,56.2,35.7,56.3z"/>
			<path class="st9" d="M37.7,55.2c0,0-0.1,0.1-0.2,0.3c-0.1,0.1-0.2,0.2-0.2,0.4c0,0.1-0.1,0.2-0.1,0.4c0,0.1-0.1,0.3-0.1,0.4h-0.3
				c0-0.3,0.1-0.6,0.3-0.9c0.1-0.2,0.2-0.3,0.3-0.4h-0.8l0-0.3h1.2V55.2z"/>
			<path class="st9" d="M38.5,54.9h0.4l0.6,1.7h-0.4L39,56.2h-0.6l-0.1,0.3h-0.4L38.5,54.9z M38.4,55.9h0.4l-0.2-0.7L38.4,55.9z"/>
			<path class="st9" d="M39.5,55.8h0.6v0.3h-0.6V55.8z"/>
			<path class="st9" d="M40.4,55.4v-0.2c0.1,0,0.2,0,0.2,0c0.1,0,0.1,0,0.2-0.1c0,0,0-0.1,0.1-0.1c0,0,0-0.1,0-0.1h0.3v1.6h-0.3
				v-1.1H40.4z"/>
			<path class="st9" d="M42.6,55.1c0.1,0.1,0.1,0.4,0.1,0.6c0,0.3,0,0.5-0.1,0.6c-0.1,0.1-0.2,0.2-0.4,0.2c-0.2,0-0.4-0.1-0.4-0.2
				c-0.1-0.1-0.1-0.4-0.1-0.6c0-0.3,0-0.5,0.1-0.6c0.1-0.1,0.2-0.2,0.4-0.2C42.4,54.9,42.6,55,42.6,55.1z M42,56.2
				c0,0.1,0.1,0.2,0.2,0.2c0.1,0,0.2,0,0.2-0.2c0-0.1,0-0.2,0-0.4c0-0.2,0-0.3,0-0.4c0-0.1-0.1-0.1-0.2-0.1c-0.1,0-0.2,0-0.2,0.1
				s0,0.2,0,0.4C42,55.9,42,56.1,42,56.2z"/>
		</g>
	</g>
	<g>
		<path class="st7" d="M35.1,80.8c0,0-1.4,0-1.4,1.4V89c0,0,0,1.4,1.4,1.4h9c0,0,1.4,0,1.4-1.4v-6.8c0,0,0-1.4-1.4-1.4H35.1z"/>
		<path class="st8" d="M33.8,79.7c0,0-1.4,0-1.4,1.4v6.8c0,0,0,1.4,1.4,1.4h9c0,0,1.4,0,1.4-1.4v-6.8c0,0,0-1.4-1.4-1.4H33.8z"/>
		<g class="st3">
			<path class="st9" d="M34.4,84.1c0,0.1,0,0.1,0.1,0.2c0,0,0.1,0.1,0.2,0.1c0.1,0,0.1,0,0.2-0.1c0-0.1,0.1-0.1,0.1-0.2
				c0-0.1,0-0.2-0.1-0.2c0-0.1-0.1-0.1-0.2-0.1c0,0-0.1,0-0.1,0c-0.1,0-0.1,0.1-0.1,0.1l-0.3,0l0.1-0.9h0.9v0.3h-0.7l-0.1,0.4
				c0,0,0.1-0.1,0.1-0.1c0,0,0.1,0,0.2,0c0.1,0,0.3,0,0.4,0.1c0.1,0.1,0.2,0.2,0.2,0.4c0,0.2,0,0.3-0.1,0.4
				c-0.1,0.1-0.2,0.2-0.4,0.2c-0.2,0-0.3,0-0.4-0.1s-0.2-0.2-0.2-0.4H34.4z"/>
			<path class="st9" d="M36.4,83.1c0.1,0.1,0.1,0.4,0.1,0.6c0,0.3,0,0.5-0.1,0.6c-0.1,0.1-0.2,0.2-0.4,0.2c-0.2,0-0.4-0.1-0.4-0.2
				c-0.1-0.1-0.1-0.4-0.1-0.6c0-0.3,0-0.5,0.1-0.6s0.2-0.2,0.4-0.2C36.2,82.9,36.3,83,36.4,83.1z M35.8,84.2c0,0.1,0.1,0.2,0.2,0.2
				s0.2,0,0.2-0.2s0-0.2,0-0.4c0-0.2,0-0.3,0-0.4s-0.1-0.1-0.2-0.1s-0.2,0-0.2,0.1c0,0.1,0,0.2,0,0.4C35.8,84,35.8,84.1,35.8,84.2z"
				/>
			<path class="st9" d="M36.8,83.9c0-0.1,0.1-0.1,0.2-0.2c-0.1-0.1-0.1-0.1-0.2-0.2c0-0.1,0-0.1,0-0.2c0-0.1,0-0.2,0.1-0.3
				c0.1-0.1,0.2-0.1,0.4-0.1c0.2,0,0.3,0,0.4,0.1c0.1,0.1,0.1,0.2,0.1,0.3c0,0.1,0,0.1,0,0.2c0,0.1-0.1,0.1-0.2,0.2
				c0.1,0,0.1,0.1,0.2,0.2c0,0.1,0.1,0.2,0.1,0.3c0,0.1-0.1,0.3-0.2,0.4c-0.1,0.1-0.2,0.1-0.4,0.1c-0.2,0-0.3,0-0.4-0.1
				c-0.1-0.1-0.1-0.2-0.1-0.4C36.7,84,36.7,84,36.8,83.9z M37.1,84.3c0,0,0.1,0.1,0.2,0.1s0.1,0,0.2-0.1s0.1-0.1,0.1-0.2
				c0-0.1,0-0.1-0.1-0.2s-0.1-0.1-0.2-0.1s-0.1,0-0.2,0.1S37,84,37,84.1C37,84.2,37.1,84.3,37.1,84.3z M37.1,83.5
				c0,0,0.1,0.1,0.2,0.1c0.1,0,0.1,0,0.2-0.1s0.1-0.1,0.1-0.1c0-0.1,0-0.1-0.1-0.2c0,0-0.1-0.1-0.2-0.1c-0.1,0-0.1,0-0.2,0.1
				c0,0-0.1,0.1-0.1,0.2C37.1,83.5,37.1,83.5,37.1,83.5z"/>
			<path class="st9" d="M38.1,82.9h0.4v1.4h0.8v0.3h-1.2V82.9z"/>
			<path class="st9" d="M39.4,83.8H40v0.3h-0.6V83.8z"/>
			<path class="st9" d="M40.3,83.5v-0.2c0.1,0,0.2,0,0.2,0c0.1,0,0.1,0,0.2-0.1c0,0,0-0.1,0.1-0.1c0,0,0-0.1,0-0.1H41v1.6h-0.3v-1.1
				H40.3z"/>
			<path class="st9" d="M42.5,83.1c0.1,0.1,0.1,0.4,0.1,0.6c0,0.3,0,0.5-0.1,0.6c-0.1,0.1-0.2,0.2-0.4,0.2s-0.4-0.1-0.4-0.2
				c-0.1-0.1-0.1-0.4-0.1-0.6c0-0.3,0-0.5,0.1-0.6c0.1-0.1,0.2-0.2,0.4-0.2S42.4,83,42.5,83.1z M41.9,84.2c0,0.1,0.1,0.2,0.2,0.2
				c0.1,0,0.2,0,0.2-0.2c0-0.1,0-0.2,0-0.4c0-0.2,0-0.3,0-0.4c0-0.1-0.1-0.1-0.2-0.1c-0.1,0-0.2,0-0.2,0.1c0,0.1,0,0.2,0,0.4
				C41.8,84,41.8,84.1,41.9,84.2z"/>
		</g>
	</g>
</g>
<circle class="st8" cx="61" cy="87.3" r="3.2"/>
<polyline class="st8" points="61,85.7 61,87.3 61.9,88 "/>
<line class="st11" x1="27.4" y1="114.2" x2="50.4" y2="114.2"/>
</svg>
